<svg height="512" viewBox="0 0 64 64" width="512" xmlns="http://www.w3.org/2000/svg"><g id="Filled_outline" data-name="Filled outline"><path d="m9 37h22v24h-22z" fill="#f4f4e6"/><path d="m18 42-1 6 3 3 3-3-1-6z" fill="#2d75bb"/><path d="m22 42h-4l-2-5h8z" fill="#195c85"/><path d="m7 37h2a0 0 0 0 1 0 0v24a0 0 0 0 1 0 0h-6a0 0 0 0 1 0 0v-20a4 4 0 0 1 4-4z" fill="#f4f4e6"/><path d="m31 37 7 7 6-6 4 4-10 10-7-7z" fill="#f4f4e6"/><path d="m44 38v-3a4 4 0 0 1 4-4v3l4 4-4 4z" fill="#ffd782"/><path d="m11 13h18v20h-18z" fill="#ffd782"/><path d="m11 25a4 4 0 0 1 0-8z" fill="#f9bb4b"/><path d="m29 17a4 4 0 0 1 0 8z" fill="#f9bb4b"/><path d="m16 25h8a0 0 0 0 1 0 0v2a4 4 0 0 1 -4 4 4 4 0 0 1 -4-4v-2a0 0 0 0 1 0 0z" fill="#dd3e46"/><path d="m11 13s-4.5-3.5 2-10c0 0 0 4 9 4 6 0 7 2 7 6" fill="#394d5c"/><path d="m49.55 29.257h9.899v8.485h-9.899z" fill="#f4f4e6" transform="matrix(.707 -.707 .707 .707 -7.725 48.349)"/><path d="m55 27h-7v7l3-3z" fill="#e5e4cf"/><path d="m52 36h9v8h-9z" fill="#e5e4cf"/><path d="m31 57h30v4h-30z" fill="#55b56a"/><path d="m51 57h-4l2-8h4z" fill="#f4f4e6"/><path d="m55 57h-4l2-8h4z" fill="#e5e4cf"/><path d="m59 57h-4l2-8h4z" fill="#f4f4e6"/><path d="m14 37v8l6 6 6-6v-8h5v24h-22v-24z" fill="#394d5c"/><path d="m14 16h2v2h-2z"/><path d="m24 16h2v2h-2z"/><path d="m10 25.9v7.1a1 1 0 0 0 1 1h18a1 1 0 0 0 1-1v-7.1a5 5 0 0 0 0-9.8v-3.1c0-4.434-1.309-7-8-7-7.712 0-8-3-8-3a1 1 0 0 0 -1.707-.707c-2.67 2.67-3.948 5.239-3.8 7.636a5.578 5.578 0 0 0 1.507 3.492v2.679a5 5 0 0 0 0 9.8zm20-7.728a3 3 0 0 1 0 5.658zm-2 13.828h-16v-18h16zm-15.335-27.163c.977 1.427 3.387 3.163 9.335 3.163 4.877 0 5.831 1.233 5.975 4h-11.789a3.365 3.365 0 0 1 -2.186-3h-2a4.806 4.806 0 0 0 1 3h-1.6a3.588 3.588 0 0 1 -.913-2.2c-.087-1.465.659-3.164 2.178-4.963zm-2.665 13.334v5.658a3 3 0 0 1 0-5.658z"/><path d="m19 18h2v4h-2z"/><path d="m25 27v-2a1 1 0 0 0 -1-1h-8a1 1 0 0 0 -1 1v2a5 5 0 0 0 10 0zm-2 0a3 3 0 0 1 -6 0v-1h6z"/><path d="m54 32h2v2h-2z"/><path d="m61.707 32.293-6-6a1 1 0 0 0 -.707-.293h-7a1 1 0 0 0 -1 1v3.1a5.009 5.009 0 0 0 -4 4.9v2.586l-5 5-6.293-6.293a1 1 0 0 0 -.707-.293h-24a5.006 5.006 0 0 0 -5 5v20a1 1 0 0 0 1 1h58a1 1 0 0 0 1-1v-4a1 1 0 0 0 -1-1h-.719l1.689-6.757a1 1 0 0 0 -.97-1.243h-12a1 1 0 0 0 -.97.757l-1.811 7.243h-14.219v-8.586l5.293 5.293a1 1 0 0 0 1.414 0l12.293-12.293v3.586a1 1 0 0 0 1 1h9a1 1 0 0 0 1-1v-8a1 1 0 0 0 -1-1h-.586l1.293-1.293a1 1 0 0 0 0-1.414zm-37.03 5.707h.323v6.586l-1.333 1.333-.635-3.807zm-2.154 0-1.2 3h-2.646l-1.2-3zm-.594 9.657-1.929 1.929-1.929-1.929.776-4.657h2.306zm-6.929-9.657h.323l1.645 4.112-.635 3.807-1.333-1.333zm-7 22h-4v-19a3 3 0 0 1 3-3h1zm22 0h-20v-22h3v7a1 1 0 0 0 .293.707l6 6a1 1 0 0 0 1.414 0l6-6a1 1 0 0 0 .293-.707v-7h3zm27.781-10h1.938l-1.5 6h-1.938zm-4 0h1.938l-1.5 6h-1.938zm-4 0h1.938l-1.5 6h-1.938zm10.219 8v2h-28v-2zm-11-30h3.586l-3.586 3.586zm-11 22.586-6-6v-5.172l5.293 5.293a1 1 0 0 0 1.414 0l5.293-5.293 2.586 2.586zm10-10-3-3v-2.586a3 3 0 0 1 2-2.816v1.816a1 1 0 0 0 .293.707l3.293 3.293zm3.07-4.93-1.656-1.656 5.586-5.586 4.586 4.586-2 2h-5.586a.993.993 0 0 0 -.93.656zm8.93 7.344h-7v-6h7z"/><path d="m56 39h2v2h-2z"/></g></svg>