<svg height="512" viewBox="0 0 64 64" width="512" xmlns="http://www.w3.org/2000/svg"><g id="Filled_outline" data-name="Filled outline"><path d="m3 57h32v4h-32z" fill="#d3843d"/><path d="m34 39h20v16h-20z" fill="#e6f1fd"/><path d="m59 29a2 2 0 0 1 -2-2v-11a13 13 0 0 0 -13-13 13 13 0 0 0 -13 13v11a2 2 0 0 1 -2 2h-2a4 4 0 0 0 4 4h4v-18h7c0-4 2-5 2-5s2 1 2 5h7v18h4a4 4 0 0 0 4-4z" fill="#394d5c"/><path d="m46 15c0-4-2-5-2-5s-2 1-2 5h-7v20h18v-20z" fill="#ffd782"/><path d="m35 27a4 4 0 0 1 0-8z" fill="#f9bb4b"/><path d="m53 19a4 4 0 0 1 0 8z" fill="#f9bb4b"/><path d="m39 27h8a0 0 0 0 1 0 0v2a4 4 0 0 1 -4 4 4 4 0 0 1 -4-4v-2a0 0 0 0 1 0 0z" fill="#dd3e46"/><path d="m36 55h3a0 0 0 0 1 0 0v6a0 0 0 0 1 0 0h-3a3 3 0 0 1 -3-3 3 3 0 0 1 3-3z" fill="#ffd782"/><path d="m38 39v7l6 5 6-5v-7h4v16h-20v-16z" fill="#394d5c"/><path d="m42 39h4v4h-4z" fill="#e33e5c"/><path d="m42 43-4 3v-7h4z" fill="#b11e48"/><path d="m46 43 4 3v-7h-4z" fill="#b11e48"/><path d="m10 57h-4l-3-6h4z" fill="#f4f4e6"/><path d="m14 57h-4l-3-6h4z" fill="#e5e4cf"/><path d="m18 57h-4l-3-6h4z" fill="#f4f4e6"/><path d="m22 57h-4l-3-6h4z" fill="#e5e4cf"/><path d="m26 57h-4l-3-6h4z" fill="#f4f4e6"/><path d="m23 39v-8h-6v10a3.848 3.848 0 0 0 4 4h13v-6z" fill="#e6f1fd"/><path d="m17 27h6v4h-6z" fill="#96c3f0"/><path d="m6 7h14v16h-14z" fill="#f4f4e6"/><path d="m13 11-3 4 3 4 3-4z" fill="#da1c4b"/><path d="m17 27-4-4h7v-5l4 4-1 5z" fill="#ffd782"/><path d="m57 39h-3v16h-15v6h18a2.84 2.84 0 0 0 3-3v-15.6a3.219 3.219 0 0 0 -3-3.4z" fill="#e6f1fd"/><path d="m39 55h4v6h-4z" fill="#96c3f0"/><path d="m38 18h2v2h-2z"/><path d="m46 18h2v2h-2z"/><path d="m42 20h2v4h-2z"/><path d="m48 29v-2a1 1 0 0 0 -1-1h-8a1 1 0 0 0 -1 1v2a5 5 0 0 0 10 0zm-2 0a3 3 0 0 1 -6 0v-1h6z"/><path d="m30 16v11a1 1 0 0 1 -1 1h-2a1 1 0 0 0 -1 1 5.006 5.006 0 0 0 5 5h3v1a1 1 0 0 0 1 1h18a1 1 0 0 0 1-1v-1h3a5.006 5.006 0 0 0 5-5 1 1 0 0 0 -1-1h-2a1 1 0 0 1 -1-1v-11a14 14 0 0 0 -28 0zm4 16h-3a3.006 3.006 0 0 1 -2.829-2h.829a3 3 0 0 0 3-3v-.026a4.954 4.954 0 0 0 2 .925zm0-6.171a3 3 0 0 1 0-5.658zm18 8.171h-16v-18h6a1 1 0 0 0 1-1 5.712 5.712 0 0 1 1-3.683 5.69 5.69 0 0 1 1 3.683 1 1 0 0 0 1 1h6zm7-4h.829a3.006 3.006 0 0 1 -2.829 2h-3v-4.1a4.954 4.954 0 0 0 2-.925v.025a3 3 0 0 0 3 3zm-5-4.171v-5.658a3 3 0 0 1 0 5.658zm2-9.829v3.026a4.954 4.954 0 0 0 -2-.925v-3.101a1 1 0 0 0 -1-1h-6.04c-.308-3.682-2.273-4.774-2.513-4.895a1 1 0 0 0 -.894 0c-.241.121-2.2 1.213-2.513 4.895h-6.04a1 1 0 0 0 -1 1v3.1a4.954 4.954 0 0 0 -2 .925v-3.025a12 12 0 0 1 24 0z"/><path d="m43 46h2v2h-2z"/><path d="m13.8 10.4a1.036 1.036 0 0 0 -1.6 0l-3 4a1 1 0 0 0 0 1.2l3 4a1 1 0 0 0 1.6 0l3-4a1 1 0 0 0 0-1.2zm-.8 6.933-1.75-2.333 1.75-2.333 1.75 2.333z"/><path d="m3 62h54a3.827 3.827 0 0 0 4-4v-15.6a4.219 4.219 0 0 0 -4-4.4h-33v-10.9l.98-4.9a1 1 0 0 0 -.273-.9l-3.707-3.714v-10.586a1 1 0 0 0 -1-1h-14a1 1 0 0 0 -1 1v16a1 1 0 0 0 1 1h6.586l3.414 3.414v13.586a4.836 4.836 0 0 0 5 5h12v9a.981.981 0 0 0 .062.307 4.023 4.023 0 0 0 -.506.693h-5.938l-2.718-5.447a1 1 0 0 0 -.9-.553h-20a1 1 0 0 0 -.895 1.447l2.277 4.553h-1.382a1 1 0 0 0 -1 1v4a1 1 0 0 0 1 1zm4-40v-14h12v14zm8.414 2h4.586a1 1 0 0 0 1-1v-2.586l1.914 1.915-.733 3.671h-4.767zm6.586 4v2h-4v-2zm11 16h-12a2.841 2.841 0 0 1 -3-3v-9h4v7a1 1 0 0 0 1 1h10zm9 16h-2v-4h2zm13-5v-15h2a2.23 2.23 0 0 1 2 2.4v15.6a1.856 1.856 0 0 1 -2 2h-13v-4h10a1 1 0 0 0 1-1zm-8-15h2v4l-2-1.5zm-4 0h2v2h-2zm2.667 4 2.722 2.041-4.389 3.659-4.389-3.657 2.722-2.043zm-6.667-4h2v2.5l-2 1.5zm-4 0h2v6a1 1 0 0 0 .359.768l6 5a1 1 0 0 0 1.282 0l6-5a1 1 0 0 0 .359-.768v-6h2v14h-18zm1 16h2v4h-2a2 2 0 0 1 0-4zm-13.618-4 2 4h-1.764l-2-4zm-4 0 2 4h-1.764l-2-4zm-4 0 2 4h-1.764l-2-4zm-4 0 2 4h-1.764l-2-4zm-4 0 2 4h-1.764l-2-4zm-2.382 6h28a3.959 3.959 0 0 0 .556 2h-28.556z"/></g></svg>