<svg height="512" viewBox="0 0 64 64" width="512" xmlns="http://www.w3.org/2000/svg"><g id="Filled_outline" data-name="Filled outline"><path d="m25 28-5 2-8-22 16-5 2 6z" fill="#e5e4cf"/><path d="m31 5 16 4-6 23-16-4 5-19z" fill="#f4f4e6"/><path d="m32 16 6-5 3 7-6 5z" fill="#e33e5c"/><path d="m25 28 5 1v2l-3 3a2.828 2.828 0 0 1 -4 0 2.828 2.828 0 0 1 0-4z" fill="#ffd782"/><path d="m30 31-6 6a2.828 2.828 0 0 0 0 4 2.828 2.828 0 0 0 4 0l2-3z" fill="#ffd782"/><path d="m28.734 13.81-6.734-4.81-2 8 6.646 4.747z" fill="#e33e5c"/><path d="m36 32 5-.27 1-5.73 3 3a5.257 5.257 0 0 1 1 5l-3 13a5.27 5.27 0 0 0 1 5l8 9h-17l-5-8a14.241 14.241 0 0 1 -2-6v-6l2-3v-15a3 3 0 0 1 3-3 3 3 0 0 1 3 3z" fill="#ffd782"/><path d="m19.06 30.342a1 1 0 0 0 .94.658 1.02 1.02 0 0 0 .372-.071l1.123-.45a3.828 3.828 0 0 0 .8 4.228 3.763 3.763 0 0 0 1.636.949l-.636.637a3.8 3.8 0 0 0 3.705 6.384v4.323a15.114 15.114 0 0 0 2.152 6.53l5 8a1 1 0 0 0 .848.47h17a1 1 0 0 0 .748-1.665l-8.009-9.009a4.348 4.348 0 0 1 -.764-4.1l3-12.985a6.2 6.2 0 0 0 -1.264-5.947l-2.151-2.148 4.408-16.894a1 1 0 0 0 -.725-1.222l-16-4a1 1 0 0 0 -1.213.727l-.167.669-.914-2.742a1 1 0 0 0 -1.249-.639l-16 5a1 1 0 0 0 -.642 1.3zm4.647 2.951a1.831 1.831 0 0 1 0-2.586l1.6-1.6 3.693.924v.555l-2.707 2.707a1.831 1.831 0 0 1 -2.586 0zm1 7a1.831 1.831 0 0 1 0-2.586l4.293-4.293v4.286l-1.771 2.657a1.831 1.831 0 0 1 -2.522-.064zm19.586-10.586a4.262 4.262 0 0 1 .732 4.068l-2.992 12.97a6.245 6.245 0 0 0 1.219 5.92l6.521 7.335h-14.219l-4.71-7.537a13.311 13.311 0 0 1 -1.844-5.463v-5.7l1.832-2.748a1.006 1.006 0 0 0 .168-.552v-15a2 2 0 0 1 4 0v9a1 1 0 0 0 .3.7l-.006.006 4 4 1.414-1.414-3.114-3.114 3.164.791a.974.974 0 0 0 .242.031 1 1 0 0 0 .967-.747l1.008-3.864zm-11.08-13.416 4.4-3.664 2.178 5.082-3.552 2.96a3.783 3.783 0 0 0 -1.739-1.375zm-2.246-7.037v-.01l.758-3.03 14.052 3.511-5.494 21.065-3.283-.821v-6.969c0-.115-.024-.225-.033-.338l4.673-3.894a1 1 0 0 0 .279-1.162l-3-7a1 1 0 0 0 -1.559-.374l-6 5a1 1 0 0 0 -.279 1.163l1.152 2.683a4 4 0 0 0 -3.233 3.922v4.78l-2.763-.552zm-4.92 10.837-4.912-3.509 1.479-5.915 4.977 3.555zm1.315-15.844 1.6 4.786-.821 3.121-5.56-3.968a1 1 0 0 0 -1.551.571l-2 8a1 1 0 0 0 .389 1.056l6.081 4.346-1.342 5.1-3.574 1.43-7.284-20.047z"/><path d="m33.8 49.4c-.766-1.021-.8-1.824-.8-3.4v-4h-2v4a6.643 6.643 0 0 0 1.168 4.555l2 3 1.664-1.11z"/><path d="m35.5 54.882h2v2.236h-2z" transform="matrix(.894 -.447 .447 .894 -21.191 22.235)"/></g></svg>