<svg height="512" viewBox="0 0 64 64" width="512" xmlns="http://www.w3.org/2000/svg"><g id="Filled_outline" data-name="Filled outline"><path d="m17 12v31h-14v-40h30v9z" fill="#e5e4cf"/><path d="m17 12h30v40h-30z" fill="#f4f4e6"/><path d="m61 61h-30v-9h16v-31h14z" fill="#e5e4cf"/><path d="m32 19c-2 4-9 11-9 11-2.773 3.025-.081 7.571 4 8 .209.022-.214 0 0 0a4.4 4.4 0 0 0 3-1l-1 5h6l-1-5a4.4 4.4 0 0 0 3 1c4.341-.07 6.934-4.8 4-8 0 0-7-7-9-11z" fill="#394d5c"/><g fill="#e33e5c"><path d="m7 11 3-4 3 4-3 4z"/><path d="m17 14-6 9 6 9z"/><path d="m7 35 3-4 3 4-3 4z"/><path d="m55 51v-1a2 2 0 0 0 -4 0v1a2 2 0 0 0 0 4h4a2 2 0 0 0 0-4z"/><path d="m55 28v-1a2 2 0 0 0 -4 0v1a2 2 0 0 0 0 4h4a2 2 0 0 0 0-4z"/></g><path d="m61 20h-13v-8a1 1 0 0 0 -1-1h-13v-8a1 1 0 0 0 -1-1h-30a1 1 0 0 0 -1 1v40a1 1 0 0 0 1 1h13v8a1 1 0 0 0 1 1h13v8a1 1 0 0 0 1 1h30a1 1 0 0 0 1-1v-40a1 1 0 0 0 -1-1zm-45 8.7-3.8-5.7 3.8-5.7zm0-16.7v1.7l-5.832 8.748a1 1 0 0 0 0 1.11l5.832 8.742v9.7h-12v-38h28v7h-15a1 1 0 0 0 -1 1zm2 39v-38h28v38zm42 9h-28v-7h15a1 1 0 0 0 1-1v-30h12z"/><path d="m42.794 35.256a5.431 5.431 0 0 0 -1.087-5.963c-.069-.069-6.907-6.929-8.812-10.74a1.042 1.042 0 0 0 -1.79 0c-1.9 3.808-8.743 10.671-8.842 10.771a5.1 5.1 0 0 0 -1.035 5.417 6.811 6.811 0 0 0 5.52 4.236 1.066 1.066 0 0 0 .2.03.944.944 0 0 0 .188-.007 6.091 6.091 0 0 0 1.481-.184l-.6 2.989a1 1 0 0 0 .983 1.195h6a1 1 0 0 0 .98-1.2l-.6-2.989a5.317 5.317 0 0 0 1.685.189 6.346 6.346 0 0 0 5.729-3.744zm-5.836 1.744a3.4 3.4 0 0 1 -2.371-.81 1 1 0 0 0 -1.567 1.01l.76 3.8h-3.56l.76-3.8a1 1 0 0 0 -1.567-1.006 3.4 3.4 0 0 1 -2.36.81 4.859 4.859 0 0 1 -3.953-2.972 3.114 3.114 0 0 1 .608-3.325 78.183 78.183 0 0 0 8.292-9.728 78 78 0 0 0 8.263 9.7 3.424 3.424 0 0 1 .7 3.79 4.349 4.349 0 0 1 -3.978 2.531z"/><path d="m10.8 6.4a1.036 1.036 0 0 0 -1.6 0l-3 4a1 1 0 0 0 0 1.2l3 4a1 1 0 0 0 1.6 0l3-4a1 1 0 0 0 0-1.2zm-.8 6.933-1.75-2.333 1.75-2.333 1.75 2.333z"/><path d="m6.2 34.4a1 1 0 0 0 0 1.2l3 4a1 1 0 0 0 1.6 0l3-4a1 1 0 0 0 0-1.2l-3-4a1.036 1.036 0 0 0 -1.6 0zm5.55.6-1.75 2.333-1.75-2.333 1.75-2.333z"/><path d="m56 50.171v-.171a3 3 0 0 0 -6 0v.171a3 3 0 0 0 1 5.829h1v2h2v-2h1a3 3 0 0 0 1-5.829zm-1 3.829h-4a1 1 0 0 1 0-2 1 1 0 0 0 1-1v-1a1 1 0 0 1 2 0v1a1 1 0 0 0 1 1 1 1 0 0 1 0 2z"/><path d="m51 33h1v2h2v-2h1a3 3 0 0 0 1-5.829v-.171a3 3 0 0 0 -6 0v.171a3 3 0 0 0 1 5.829zm0-4a1 1 0 0 0 1-1v-1a1 1 0 0 1 2 0v1a1 1 0 0 0 1 1 1 1 0 0 1 0 2h-4a1 1 0 0 1 0-2z"/><path d="m20 47h2v2h-2z"/><path d="m23 43h2v2h-2z"/><path d="m22 17h2v-2h-3a1 1 0 0 0 -1 1v3h2z"/><path d="m42 47h-2v2h3a1 1 0 0 0 1-1v-3h-2z"/></g></svg>