<svg height="512" viewBox="0 0 64 64" width="512" xmlns="http://www.w3.org/2000/svg"><g id="Filled_outline" data-name="Filled outline"><rect fill="#f4f4e6" height="43" rx="4" width="28" x="22" y="3"/><g fill="#ffd782"><path d="m18 21-2 11 1 7-2 8-7 14h23l5-15h-10a4 4 0 0 1 -4-4v-21a2 2 0 0 0 -2-2 2.192 2.192 0 0 0 -2 2z"/><rect height="5.657" rx="2.828" transform="matrix(.707 -.707 .707 .707 -12.642 47.48)" width="11.314" x="45.335" y="36.172"/><rect height="5.657" rx="2.828" transform="matrix(.707 -.707 .707 .707 -6.985 45.137)" width="11.314" x="45.335" y="28.172"/><rect height="5.657" rx="2.828" transform="matrix(.707 -.707 .707 .707 -4.343 41.557)" width="11.314" x="42.335" y="23.192"/><path d="m50.032 12.971-.032.029v8l4.014-4.014a2.878 2.878 0 0 0 -1.134-4.735 2.748 2.748 0 0 0 -2.848.72z"/></g><path d="m40 20h-1a5.408 5.408 0 0 0 1-3 4 4 0 0 0 -8 0 5.408 5.408 0 0 0 1 3h-1a4 4 0 0 0 0 8c1.01 0 1.3-.387 2-1l-1 5h6l-1-5c.7.617.99 1 2 1a4 4 0 0 0 0-8z" fill="#394d5c"/><path d="m55.7 26.293a3.791 3.791 0 0 0 -2.092-1.06 3.82 3.82 0 0 0 -.908-3.92 3.753 3.753 0 0 0 -.932-.663l2.956-2.956a3.826 3.826 0 0 0 1.022-3.547 3.882 3.882 0 0 0 -2.517-2.834 3.508 3.508 0 0 0 -2.229-.041v-4.272a5.006 5.006 0 0 0 -5-5h-20a5.006 5.006 0 0 0 -5 5v11.184a2.962 2.962 0 0 0 -1-.184 3.152 3.152 0 0 0 -2.983 2.821l-2 11a.988.988 0 0 0 -.007.321l.972 6.805-1.925 7.7-6.952 13.9a1 1 0 0 0 .895 1.453h23a1 1 0 0 0 .948-.684l4.772-14.316h9.28a4.947 4.947 0 0 0 4.257-2.4 3.789 3.789 0 0 0 1.442-.892l4-4a3.832 3.832 0 0 0 0-5.414 3.77 3.77 0 0 0 -1.637-.949l1.638-1.638a3.832 3.832 0 0 0 0-5.414zm-4.7-12.816a1.7 1.7 0 0 1 1.537-.287 1.887 1.887 0 0 1 1.255 1.387 1.835 1.835 0 0 1 -.483 1.7l-2.309 2.312zm-1.008 8.716a1.828 1.828 0 0 1 1.293 3.12l-4.111 4.092a1.824 1.824 0 0 1 -2.474-2.677l4-4a1.822 1.822 0 0 1 1.292-.535zm-19.713 37.807h-20.661l6.282-12.553a1.047 1.047 0 0 0 .075-.205l2-8a.993.993 0 0 0 .02-.384l-.977-6.838 1.975-10.869c.086-.557.47-1.151 1.018-1.151a1 1 0 0 1 .994.994v21.006a5.006 5.006 0 0 0 5 5h8.613zm15.721-15h-20a3 3 0 0 1 -3-3v-35a3 3 0 0 1 3-3h20a3 3 0 0 1 3 3v13.341a3.786 3.786 0 0 0 -1.715.972l-2.319 2.32a5 5 0 0 0 -4.345-4.595 6.381 6.381 0 0 0 .379-2.038 5 5 0 0 0 -10 0 6.381 6.381 0 0 0 .379 2.038 5 5 0 0 0 .621 9.962 4.059 4.059 0 0 0 .588-.041l-.568 2.841a1 1 0 0 0 .98 1.2h6a1 1 0 0 0 .98-1.2l-.568-2.845a4.059 4.059 0 0 0 .588.045 4.933 4.933 0 0 0 2.208-.537 3.756 3.756 0 0 0 3.169 3.325 3.82 3.82 0 0 0 .908 3.919 3.781 3.781 0 0 0 1.637.949l-1.637 1.637a3.823 3.823 0 0 0 1.293 6.262 2.993 2.993 0 0 1 -1.578.445zm-8.98-17.808.76 3.808h-3.56l.76-3.808a1 1 0 0 0 -1.639-.948l-.255.228c-.496.447-.586.528-1.086.528a3 3 0 0 1 0-6h1a1 1 0 0 0 .771-1.638 4.428 4.428 0 0 1 -.771-2.362 3 3 0 0 1 6 0 4.428 4.428 0 0 1 -.771 2.362 1 1 0 0 0 .771 1.638h1a3 3 0 0 1 0 6c-.5 0-.59-.081-1.086-.528l-.255-.228a1 1 0 0 0 -1.639.948zm17.265 8.515a1.831 1.831 0 0 1 0 2.586l-4 4a1.829 1.829 0 0 1 -2.585-2.586l4-4a1.832 1.832 0 0 1 2.586 0zm0-5.414-4 4a1.829 1.829 0 0 1 -2.585-2.586l4.112-4.091a1.824 1.824 0 0 1 2.474 2.677z"/><path d="m45 12h2v-5a1 1 0 0 0 -1-1h-5v2h4z"/><path d="m37 6h2v2h-2z"/><path d="m25 41h2v2h-2z"/><path d="m29 41h4v2h-4z"/><path d="m41 41h2v2h-2z"/><path d="m38 38h2v2h-2z"/></g></svg>