<svg height="512" viewBox="0 0 64 64" width="512" xmlns="http://www.w3.org/2000/svg"><g id="Filled_outline" data-name="Filled outline"><path d="m34 61h-14a8 8 0 0 1 -8-8v-17h29v6h-7z" fill="#e5e4cf"/><path d="m16 44 3-4 3 4-3 4z" fill="#da1c4b"/><path d="m3 44h9v4h-9z" fill="#da1c4b"/><path d="m3 40h9v4h-9z" fill="#b11e48"/><path d="m3 36h9v4h-9z" fill="#da1c4b"/><path d="m3 32h12v4h-12z" fill="#b11e48"/><path d="m6 28h14v4h-14z" fill="#da1c4b"/><path d="m3 24h12v4h-12z" fill="#b11e48"/><path d="m3 20h12v4h-12z" fill="#da1c4b"/><path d="m24 32h14v4h-14z" fill="#2d75bb"/><path d="m24 28h14v4h-14z" fill="#4f97d5"/><path d="m28 24h14v4h-14z" fill="#2d75bb"/><path d="m28 20h14v4h-14z" fill="#4f97d5"/><path d="m24 16h14v4h-14z" fill="#2d75bb"/><circle cx="13" cy="52" fill="#b11e48" r="8"/><circle cx="53" cy="34" fill="#4f97d5" r="8"/><circle cx="13" cy="11" fill="#da1c4b" r="8"/><path d="m61 61h-26a8 8 0 0 1 -8-8v-11h29v10a5 5 0 0 0 5 5z" fill="#f4f4e6"/><path d="m50 49v-1a2 2 0 0 0 -4 0v1a2 2 0 0 0 0 4h4a2 2 0 0 0 0-4z" fill="#394d5c"/><path d="m37 49v-1a2 2 0 0 0 -4 0v1a2 2 0 0 0 0 4h4a2 2 0 0 0 0-4z" fill="#394d5c"/><circle cx="13" cy="52" fill="#da1c4b" r="4"/><circle cx="13" cy="11" fill="#b11e48" r="4"/><circle cx="53" cy="34" fill="#2d75bb" r="4"/><path d="m62 34a9 9 0 1 0 -14.644 7h-5.356v-5a1 1 0 0 0 -1-1h-2v-6h3a1 1 0 0 0 1-1v-8a1 1 0 0 0 -1-1h-3v-3a1 1 0 0 0 -1-1h-14a1 1 0 0 0 -1 1v4a1 1 0 0 0 1 1h3v6h-3a1 1 0 0 0 -1 1v7h-7v-2h4a1 1 0 0 0 1-1v-4a1 1 0 0 0 -1-1h-4v-7a.976.976 0 0 0 -.136-.475 9 9 0 1 0 -6.964-.525h-5.9a1 1 0 0 0 -1 1v8a1 1 0 0 0 1 1h2v2h-2a1 1 0 0 0 -1 1v16a1 1 0 0 0 1 1h1.525a8.97 8.97 0 0 0 10.832 11.676 8.9 8.9 0 0 0 4.643 1.324h41a1 1 0 0 0 1-1v-4a1 1 0 0 0 -1-1 4 4 0 0 1 -4-4v-9.95a9 9 0 0 0 5-8.05zm-3.4 4.184-1.431-1.431a4.961 4.961 0 0 0 .731-1.753h2.02a6.947 6.947 0 0 1 -1.32 3.184zm-.453-8.915a6.979 6.979 0 0 1 1.773 3.731h-2.02a4.967 4.967 0 0 0 -1.178-2.307zm-5.147-2.269a6.937 6.937 0 0 1 3.586 1l-1.481 1.481a4.94 4.94 0 0 0 -2.105-.481zm3 7a3 3 0 1 1 -3-3 3 3 0 0 1 3 3zm-4 4.9v2.02a6.947 6.947 0 0 1 -3.184-1.32l1.431-1.431a4.961 4.961 0 0 0 1.753.731zm-1-11.6v2.129a4.972 4.972 0 0 0 -.753.409l-1.431-1.438a6.958 6.958 0 0 1 2.184-1.1zm-3.6 2.521 1.431 1.431a4.961 4.961 0 0 0 -.731 1.748h-2.02a6.947 6.947 0 0 1 1.32-3.184zm-1.32 5.179h2.02a4.961 4.961 0 0 0 .732 1.753l-1.432 1.431a6.947 6.947 0 0 1 -1.32-3.184zm-5.08-8h-12v-2h12zm0-6v2h-12v-2zm-16-2v-2h12v2zm0 10h12v2h-12zm0 4h12v2h-12zm-6-4v2h-12v-2zm-5-11.08v-2.02a4.961 4.961 0 0 0 1.753-.732l1.431 1.432a6.947 6.947 0 0 1 -3.184 1.32zm4.6-2.736-1.431-1.431a4.961 4.961 0 0 0 .731-1.753h2.02a6.947 6.947 0 0 1 -1.32 3.184zm-.453-8.915a6.979 6.979 0 0 1 1.773 3.731h-2.02a4.967 4.967 0 0 0 -1.178-2.307zm-5.147-2.269a6.937 6.937 0 0 1 3.586 1l-1.481 1.481a4.94 4.94 0 0 0 -2.105-.481zm3 7a3 3 0 1 1 -3-3 3 3 0 0 1 3 3zm-5-6.7v2.124a4.972 4.972 0 0 0 -.753.409l-1.431-1.433a6.958 6.958 0 0 1 2.184-1.1zm-3.6 2.516 1.433 1.431a4.961 4.961 0 0 0 -.733 1.753h-2.02a6.947 6.947 0 0 1 1.32-3.184zm-1.32 5.184h2.02a4.961 4.961 0 0 0 .732 1.753l-1.432 1.431a6.947 6.947 0 0 1 -1.32-3.184zm2.736 4.6 1.431-1.431a4.961 4.961 0 0 0 1.753.731v2.02a6.947 6.947 0 0 1 -3.184-1.32zm-4.816 4.4h10v2h-10zm0 6v-2h10v2zm0 6h10v2h-10zm9 12a6.937 6.937 0 0 1 3.586 1l-1.481 1.481a4.94 4.94 0 0 0 -2.105-.481zm-9-8h7v2h-7zm0 4h7v2h-7zm4.816 5.4a6.958 6.958 0 0 1 2.184-1.1v2.129a4.972 4.972 0 0 0 -.753.409zm.017 2.845a4.961 4.961 0 0 0 -.733 1.755h-2.02a6.947 6.947 0 0 1 1.32-3.184zm-4.833-2.245v-2h3.356a9.06 9.06 0 0 0 -1.834 2zm2.08 6h2.02a4.961 4.961 0 0 0 .732 1.753l-1.432 1.431a6.947 6.947 0 0 1 -1.32-3.184zm5.92 5.92a6.947 6.947 0 0 1 -3.184-1.32l1.431-1.431a4.961 4.961 0 0 0 1.753.731zm-2-6.92a3 3 0 1 1 3 3 3 3 0 0 1 -3-3zm4 6.92v-2.02a4.961 4.961 0 0 0 1.753-.732l1.431 1.432a6.947 6.947 0 0 1 -3.184 1.32zm4.145-11.651a6.979 6.979 0 0 1 1.775 3.731h-2.02a4.967 4.967 0 0 0 -1.178-2.307zm-.896-3.269 1.751-2.333 1.75 2.333-1.3 1.737a9.048 9.048 0 0 0 -2.116-1.62zm2.671 9a6.947 6.947 0 0 1 -1.32 3.184l-1.431-1.431a4.961 4.961 0 0 0 .731-1.753zm.08 7a6.937 6.937 0 0 1 -2.235-.379 8.955 8.955 0 0 0 2.949-12.234l2.086-2.787a1 1 0 0 0 0-1.2l-3-4a1.036 1.036 0 0 0 -1.6 0l-2.927 3.9a8.966 8.966 0 0 0 -2.273-.3v-6h27v4h-13a1 1 0 0 0 -1 1v11a8.983 8.983 0 0 0 3.356 7zm40-2.083v2.083h-25a7.008 7.008 0 0 1 -7-7v-10h27v9a6.01 6.01 0 0 0 5 5.917zm-6-17v-2.017a4.961 4.961 0 0 0 1.753-.732l1.431 1.432a6.947 6.947 0 0 1 -3.184 1.32z"/><path d="m51 48.171v-.171a3 3 0 0 0 -6 0v.171a3 3 0 0 0 1 5.829h1v2h2v-2h1a3 3 0 0 0 1-5.829zm-1 3.829h-4a1 1 0 0 1 0-2 1 1 0 0 0 1-1v-1a1 1 0 0 1 2 0v1a1 1 0 0 0 1 1 1 1 0 0 1 0 2z"/><path d="m38 48.171v-.171a3 3 0 0 0 -6 0v.171a3 3 0 0 0 1 5.829h1v2h2v-2h1a3 3 0 0 0 1-5.829zm-1 3.829h-4a1 1 0 0 1 0-2 1 1 0 0 0 1-1v-1a1 1 0 0 1 2 0v1a1 1 0 0 0 1 1 1 1 0 0 1 0 2z"/></g></svg>