<svg height="512" viewBox="0 0 64 64" width="512" xmlns="http://www.w3.org/2000/svg"><g id="Filled_outline" data-name="Filled outline"><path d="m3 35h26v6h-26z" fill="#b11e48"/><path d="m3 29h26v6h-26z" fill="#e33e5c"/><path d="m3 23h13v6h-13z" fill="#b11e48"/><path d="m9 17h26v6h-26z" fill="#e33e5c"/><path d="m3 41h26v6h-26z" fill="#e33e5c"/><path d="m9 11h26v6h-26z" fill="#b11e48"/><path d="m3 5h26v6h-26z" fill="#e33e5c"/><path d="m7 41h4v6h-4z" fill="#e5e4cf"/><path d="m19 41h4v6h-4z" fill="#e5e4cf"/><path d="m13 35h4v6h-4z" fill="#f4f4e6"/><path d="m3 35h4v6h-4z" fill="#f4f4e6"/><path d="m23 35h6v6h-6z" fill="#f4f4e6"/><path d="m7 29h4v6h-4z" fill="#e5e4cf"/><path d="m19 29h4v6h-4z" fill="#e5e4cf"/><path d="m7 23h4v6h-4z" fill="#f4f4e6"/><path d="m13 11h4v6h-4z" fill="#e5e4cf"/><path d="m25 11h4v6h-4z" fill="#e5e4cf"/><path d="m9 17h26v6h-26z" fill="#e33e5c"/><g fill="#f4f4e6"><path d="m20 17h4v6h-4z"/><path d="m9 17h4v6h-4z"/><path d="m31 17h4v6h-4z"/><path d="m14 5h4v6h-4z"/><path d="m3 5h4v6h-4z"/><path d="m25 5h4v6h-4z"/></g><circle cx="44" cy="42" fill="#b11e48" r="17"/><circle cx="44" cy="42" fill="#e33e5c" r="13"/><path d="m3 48h24.05a18 18 0 1 0 2.95-17.289v-1.711a1 1 0 0 0 -1-1h-12v-4h18a1 1 0 0 0 1-1v-12a1 1 0 0 0 -1-1h-5v-5a1 1 0 0 0 -1-1h-26a1 1 0 0 0 -1 1v6a1 1 0 0 0 1 1h5v10h-5a1 1 0 0 0 -1 1v24a1 1 0 0 0 1 1zm3-38h-2v-4h2zm12 36h-6v-4h6zm-4-6v-4h2v4zm8 6h-2v-4h2zm0-6h-4v-4h4zm21 17.949a15.878 15.878 0 0 1 -8.46-3.075l1.426-1.426a13.9 13.9 0 0 0 7.034 2.501zm2 0v-2a13.919 13.919 0 0 0 8.154-3.381l1.414 1.414a15.915 15.915 0 0 1 -9.568 3.967zm10.982-5.381-1.414-1.414a13.933 13.933 0 0 0 3.272-7.154h2.021a15.93 15.93 0 0 1 -3.879 8.568zm4.018-10.568h-2a13.921 13.921 0 0 0 -2.98-8.606l1.426-1.426a15.919 15.919 0 0 1 3.554 10.032zm-15-15.949a15.925 15.925 0 0 1 10.091 4.449l-1.413 1.413a13.94 13.94 0 0 0 -8.678-3.862zm0 6.949v-2.949a12.009 12.009 0 0 1 11 11.949h-3v2h2.819a12.007 12.007 0 0 1 -10.819 9.949v-2.949h-2v2.949a12.006 12.006 0 0 1 -10.949-10.949h2.949v-2h-2.949a12.006 12.006 0 0 1 10.949-10.949v2.949zm-2-6.949v2a13.919 13.919 0 0 0 -8.154 3.381l-1.414-1.414a15.915 15.915 0 0 1 9.568-3.967zm-10.982 5.381 1.414 1.414a13.919 13.919 0 0 0 -3.381 8.154h-2a15.915 15.915 0 0 1 3.967-9.568zm-1.967 11.568a13.946 13.946 0 0 0 4.361 9.174l-1.412 1.413a15.937 15.937 0 0 1 -4.949-10.587zm-6.051-13h4v3.791c-.035.069-.066.14-.1.209h-3.9zm0 6h3.05a17.8 17.8 0 0 0 -.932 4h-2.118zm0 6h2a17.949 17.949 0 0 0 .464 4h-2.464zm-4-12h2v4h-2zm-2 0v4h-6v-4zm-6-14h-2v-4h2zm3 8v4h-3v-4zm-3-6v4h-2v-4zm11 4h-2v-4h2zm11 0h-2v-4h2zm-4-10h4v4h-4zm-4-6h2v4h-2zm0 6h2v4h-2zm-1 6h5v4h-5zm-6-12h5v4h-5zm-1 6h6v4h-6zm-3-6h2v4h-2zm-1 6h2v4h-2zm0 6h5v4h-5zm-6-12h5v4h-5zm0 18h2v4h-2zm0 6h2v4h-2zm0 6h4v4h-4zm0 6h2v4h-2zm-4-18h2v4h-2zm0 6h2v4h-2zm0 6h2v4h-2zm0 6h2v4h-2z"/><path d="m49 47h2v2h-2z"/><path d="m43 37h-1a3 3 0 0 0 0 6h4a1 1 0 0 1 0 2h-6v2h3v2h2v-2h1a3 3 0 0 0 0-6h-4a1 1 0 0 1 0-2h6v-2h-3v-2h-2z"/><path d="m37 35h2v2h-2z"/><path d="m50.224 36.631a9.382 9.382 0 0 1 1.806 3.612l1.94-.486a11.307 11.307 0 0 0 -6.58-7.678l-.78 1.842a9.381 9.381 0 0 1 3.614 2.71z"/></g></svg>