<svg height="512" viewBox="0 0 64 64" width="512" xmlns="http://www.w3.org/2000/svg"><g id="Filled_outline" data-name="Filled outline"><path d="m61 29h-13a13.658 13.658 0 0 1 -9.657 4h-4.343l-5.757 5.757a4.242 4.242 0 0 1 -6 0 4.242 4.242 0 0 1 0-6l6.757-6.757v-6l-4-4-10 9v6a3 3 0 0 1 -3 3 3 3 0 0 1 -3-3v-10l14-13a4.859 4.859 0 0 1 5-.957l13 4.957h20z" fill="#ffd782"/><path d="m9 21-6 8v9a3 3 0 0 0 3 3 3 3 0 0 0 3-3z" fill="#ffd782"/><path d="m9 34h13v4h-13z" fill="#b11e48"/><path d="m22 34h-7v-4h10z" fill="#dd3e46"/><path d="m9 38h12v4h-12z" fill="#dd3e46"/><path d="m9 42h12v4h-12z" fill="#b11e48"/><path d="m25 30h-10v-4h14z" fill="#b11e48"/><path d="m18 22h11v4h-14v-1z" fill="#dd3e46"/><path d="m29 53h12v4h-12z" fill="#8ec13f"/><path d="m33 49h12v4h-12z" fill="#55b56a"/><path d="m29 45h12v4h-12z" fill="#8ec13f"/><path d="m29 41h12v4h-12z" fill="#55b56a"/><path d="m49 53h12v4h-12z" fill="#2d75bb"/><path d="m49 49h12v4h-12z" fill="#4f97d5"/><path d="m49 45h12v4h-12z" fill="#2d75bb"/><path d="m45 41h12v4h-12z" fill="#4f97d5"/><path d="m49 37h12v4h-12z" fill="#2d75bb"/><path d="m61 11h-19.816l-12.833-4.893a5.862 5.862 0 0 0 -6.032 1.16l-14 13c-.044.041-.119.133-.119.133l-6 8a1 1 0 0 0 -.2.6v9a4 4 0 0 0 4 4 3.959 3.959 0 0 0 2-.556v4.556a1 1 0 0 0 1 1h12a1 1 0 0 0 1-1v-6.157a5.193 5.193 0 0 0 6.95-.379l5.464-5.464h3.929a14.553 14.553 0 0 0 10.063-4h12.594a1 1 0 0 0 1-1v-17a1 1 0 0 0 -1-1zm-53 27a2 2 0 0 1 -4 0v-8.667l4-5.333zm2-3h2v2h-2zm0 4h4v2h-4zm2 6h-2v-2h2zm4 0h-2v-2h2zm-2-8v-2h2v2zm6 8h-2v-2h2zm0-4h-4v-2h4zm4-14h2.586l-2 2h-.586zm-2-2v-2h2v2zm4 0v-2h2v2zm-5.061-4 4.025-3.622 3.036 3.036v.586zm1.061 6v2h-2v-2zm-2-2h-3.5l2.222-2h1.278zm-2 2v2h-2v-2zm0 4v2h-2v-2zm0 6v-2h2.075a5.244 5.244 0 0 0 .1 2zm3.536-4.95a5.186 5.186 0 0 0 -.736.95h-.8v-2h2.586zm38.464-4.05h-12a1 1 0 0 0 -.707.293 12.573 12.573 0 0 1 -8.95 3.707h-4.343a1 1 0 0 0 -.707.293l-5.757 5.757a3.243 3.243 0 0 1 -4.586-4.586l11.757-11.757-1.414-1.414-3.293 3.293v-3.586a1 1 0 0 0 -.293-.707l-3.707-3.707v-3.586h-2v3.555l-8.964 8.067-1.329-1.329-1.414 1.414 1.707 1.707v5.586a2 2 0 0 1 -4 0v-9.564l13.684-12.707a3.847 3.847 0 0 1 3.96-.751l13 4.957a1 1 0 0 0 .356.065h19z"/><path d="m29 52a1 1 0 0 0 -1 1v4a1 1 0 0 0 1 1h12a1 1 0 0 0 1-1v-3h3a1 1 0 0 0 1-1v-4a1 1 0 0 0 -1-1h-3v-7a1 1 0 0 0 -1-1h-12a1 1 0 0 0 -1 1v8a1 1 0 0 0 1 1h3v2zm13-2h2v2h-2zm-2 6h-4v-2h4zm-6-4v-2h2v2zm6 0h-2v-2h2zm0-4h-4v-2h4zm-2-6h2v2h-2zm-4 0h2v2h-2zm-4 0h2v2h-2zm0 6v-2h4v2zm4 6v2h-4v-2z"/><path d="m61 36h-12a1 1 0 0 0 -1 1v3h-3a1 1 0 0 0 -1 1v4a1 1 0 0 0 1 1h3v11a1 1 0 0 0 1 1h12a1 1 0 0 0 1-1v-12a1 1 0 0 0 -1-1h-3v-2h3a1 1 0 0 0 1-1v-4a1 1 0 0 0 -1-1zm-13 8h-2v-2h2zm6 0v-2h2v2zm2 2v2h-2v-2zm-6-8h4v2h-4zm0 4h2v2h-2zm0 4h2v2h-2zm0 4h4v2h-4zm2 6h-2v-2h2zm4 0h-2v-2h2zm4 0h-2v-2h2zm0-4h-4v-2h4zm0-6v2h-2v-2zm0-6h-4v-2h4z"/><path d="m56 24h2v2h-2z"/><path d="m53 20h2v2h-2z"/></g></svg>