<svg height="512" viewBox="0 0 64 64" width="512" xmlns="http://www.w3.org/2000/svg"><g id="Filled_outline" data-name="Filled outline"><path d="m3 24h28a0 0 0 0 1 0 0v24a6 6 0 0 1 -6 6h-16a6 6 0 0 1 -6-6v-24a0 0 0 0 1 0 0z" fill="#cdeef6"/><path d="m31 33.128c-1.883-1.177-3.086-3.128-6-3.128-4.166 0-3.837 4-8 4s-3.83-4-8-4c-3.049 0-4.051 2.139-6 3.287v14.713a6 6 0 0 0 6 6h16a6 6 0 0 0 6-6z" fill="#f9bb4b"/><path d="m3 48h28a0 0 0 0 1 0 0 6 6 0 0 1 -6 6h-16a6 6 0 0 1 -6-6 0 0 0 0 1 0 0z" fill="#ffd782"/><path d="m9 36h8v8h-8z" fill="#e5e4cf"/><path d="m17 28h8v8h-8z" fill="#f4f4e6"/><path d="m17 40h8v8h-8z" fill="#f4f4e6"/><circle cx="23" cy="20" fill="#b11e48" r="4"/><path d="m27.379 9.257h4.243v8.485h-4.243z" fill="#50b4f8" transform="matrix(.707 -.707 .707 .707 -.906 24.814)"/><path d="m37 46h12v4h-12z" fill="#dd3e46" transform="matrix(-1 0 0 -1 86 96)"/><path d="m37 50h12v4h-12z" fill="#b11e48" transform="matrix(-1 0 0 -1 86 104)"/><path d="m37 42h12v4h-12z" fill="#b11e48"/><path d="m37 38h12v4h-12z" fill="#dd3e46"/><path d="m39 34h12v4h-12z" fill="#b11e48"/><path d="m39 30h12v4h-12z" fill="#dd3e46"/><circle cx="55" cy="48" fill="#b11e48" r="6"/><circle cx="41" cy="24" fill="#b11e48" r="6"/><circle cx="41" cy="24" fill="#dd3e46" r="2"/><circle cx="55" cy="48" fill="#dd3e46" r="2"/><path d="m9 55h16a7.008 7.008 0 0 0 7-7v-24a1 1 0 0 0 -1-1h-4.026a4.93 4.93 0 0 0 .193-5.753l.833-.833 2.293 2.293a1 1 0 0 0 1.414 0l3-3a1 1 0 0 0 0-1.414l-6-6a1 1 0 0 0 -1.414 0l-3 3a1 1 0 0 0 0 1.414l2.293 2.293-.833.833a4.992 4.992 0 0 0 -6.92 6.92l-.247.247h-15.586a1 1 0 0 0 -1 1v24a7.008 7.008 0 0 0 7 7zm16-2h-16a5.009 5.009 0 0 1 -4.9-4h25.8a5.009 5.009 0 0 1 -4.9 4zm-9-10h-6v-6h6zm2 4v-6h6v6zm12 0h-4v-7a1 1 0 0 0 -1-1h-7v-2h7a1 1 0 0 0 1-1v-4.889a6.733 6.733 0 0 1 2.874 1.665c.356.294.731.588 1.126.871zm-12-12v-6h6v6zm8.414-23 1.586-1.586 4.586 4.586-1.586 1.586zm-3.414 5a3 3 0 1 1 -3 3 3 3 0 0 1 3-3zm-3.586 8h10.586v6.113a7.877 7.877 0 0 0 -4-2.036v-1.077a1 1 0 0 0 -1-1h-7.586zm-15.414 0h12.586l-1.293 1.293 1 1a1 1 0 0 0 -.293.707v4.885a4.622 4.622 0 0 1 -2.278-1.576 5.983 5.983 0 0 0 -4.722-2.309 6.965 6.965 0 0 0 -5 2.25zm0 8.808a15.3 15.3 0 0 0 1.325-1.06 5.111 5.111 0 0 1 3.675-1.748 4.044 4.044 0 0 1 3.278 1.691 6.243 6.243 0 0 0 3.722 2.228v.081h-7a1 1 0 0 0 -1 1v8a1 1 0 0 0 1 1h7v2h-12z"/><path d="m55 41a6.977 6.977 0 0 0 -5 2.11v-4.11h1a1 1 0 0 0 1-1v-8a1 1 0 0 0 -1-1h-5.11a7 7 0 1 0 -7.89 1.315v6.685h-1a1 1 0 0 0 -1 1v16a1 1 0 0 0 1 1h12a1 1 0 0 0 1-1v-1.11a7 7 0 1 0 5-11.89zm-9-10h4v2h-4zm0 4v2h-2v-2zm-2 8v2h-2v-2zm-2-6h-2v-2h2zm-2-4v-2h4v2zm2-4.1v-2.084a3 3 0 0 0 1.816-1.816h2.084a5.016 5.016 0 0 1 -3.9 3.9zm0-9.8a5.016 5.016 0 0 1 3.9 3.9h-2.084a3 3 0 0 0 -1.816-1.816zm-1 3.9a1 1 0 1 1 -1 1 1 1 0 0 1 1-1zm-1-3.9v2.083a3 3 0 0 0 -1.816 1.817h-2.084a5.016 5.016 0 0 1 3.9-3.9zm-3.9 5.9h2.083a3 3 0 0 0 1.817 1.816v2.084a5.016 5.016 0 0 1 -3.9-3.9zm1.9 14h4v2h-4zm0 4h2v2h-2zm0 4h2v2h-2zm4 6h-4v-2h4zm0-6h2v2h-2zm6 6h-4v-2h4zm0-4h-2v-2h2zm0-4h-2v-2h2zm0-4h-4v-2h4zm0-4v-2h2v2zm6 6.1v2.083a3 3 0 0 0 -1.816 1.817h-2.084a5.016 5.016 0 0 1 3.9-3.9zm0 9.8a5.016 5.016 0 0 1 -3.9-3.9h2.083a3 3 0 0 0 1.817 1.816zm1-3.9a1 1 0 1 1 1-1 1 1 0 0 1 -1 1zm1 3.9v-2.084a3 3 0 0 0 1.816-1.816h2.084a5.016 5.016 0 0 1 -3.9 3.9zm1.816-5.9a3 3 0 0 0 -1.816-1.816v-2.084a5.016 5.016 0 0 1 3.9 3.9z"/></g></svg>