<svg height="512" viewBox="0 0 64 64" width="512" xmlns="http://www.w3.org/2000/svg"><g id="Filled_outline" data-name="Filled outline"><path d="m22 33h20v24h-20z" fill="#e6f1fd"/><path d="m20 33h2a0 0 0 0 1 0 0v12a0 0 0 0 1 0 0h-6a0 0 0 0 1 0 0v-8a4 4 0 0 1 4-4z" fill="#e6f1fd"/><path d="m46 33v-11a2 2 0 0 1 2-2h8a2 2 0 0 1 2 2 2 2 0 0 1 -2 2h-4v13a2 2 0 0 1 -2 2h-8v-6z" fill="#e6f1fd"/><path d="m42 29h-20v-22a4 4 0 0 1 4-4h12a4 4 0 0 1 4 4z" fill="#ffd782"/><path d="m32 26a6.006 6.006 0 0 1 -6-6h2a4 4 0 0 0 8 0h2a6.006 6.006 0 0 1 -6 6z" fill="#394d5c"/><path d="m42 14a4 4 0 0 1 0 8z" fill="#f9bb4b"/><g fill="#394d5c"><path d="m31 18h2v4h-2z"/><path d="m28 8s1 4 4 6l1-6s2 3 4 4l1-3 4 4v-6a4 4 0 0 0 -4-4h-12a4 4 0 0 0 -4 4v6a16.654 16.654 0 0 1 6-5z"/><path d="m26 15h2v2h-2z"/><path d="m36 15h2v2h-2z"/></g><path d="m30 38-1 5 3 3 3-3-1-5z" fill="#143441"/><path d="m34 38h-4l-2-5h8z" fill="#394d5c"/><path d="m3 57h58v4h-58z" fill="#ad6327"/><path d="m26 33v7l6 6 6-6v-7h4v24h-20v-24z" fill="#394d5c"/><path d="m46 27h6v4h-6z" fill="#96c3f0" transform="matrix(-1 0 0 -1 98 58)"/><path d="m22 14a4 4 0 0 0 0 8z" fill="#f9bb4b"/><rect fill="#e33e5c" height="4" rx="2" width="8" x="48" y="16"/><rect fill="#b11e48" height="4" rx="2" width="8" x="48" y="12"/><rect fill="#e33e5c" height="4" rx="2" width="8" x="48" y="8"/><path d="m18 43a4 4 0 0 1 4 4 2 2 0 0 1 -2 2h-4a2 2 0 0 1 -2-2 4 4 0 0 1 4-4z" fill="#ffd782"/><rect fill="#e33e5c" height="4" rx="2" width="8" x="14" y="49"/><rect fill="#b11e48" height="4" rx="2" width="8" x="14" y="53"/><rect fill="#f9bb4b" height="4" rx="2" width="8" x="22" y="53"/><rect fill="#fcf05a" height="4" rx="2" width="8" x="22" y="49"/><rect fill="#f9bb4b" height="4" rx="2" width="8" x="22" y="45"/><rect fill="#55b56a" height="4" rx="2" width="8" x="42" y="53"/><rect fill="#8ec13f" height="4" rx="2" width="8" x="42" y="49"/><rect fill="#55b56a" height="4" rx="2" width="8" x="42" y="45"/><rect fill="#4f97d5" height="4" rx="2" width="8" x="50" y="53"/><rect fill="#2d75bb" height="4" rx="2" width="8" x="50" y="49"/><circle cx="34" cy="53" fill="#2d75bb" r="4"/><path d="m32 24a4 4 0 0 1 -4-4h-2a6 6 0 0 0 12 0h-2a4 4 0 0 1 -4 4z"/><path d="m31 18h2v4h-2z"/><path d="m26 15h2v2h-2z"/><path d="m36 15h2v2h-2z"/><path d="m61 56h-2.184a2.908 2.908 0 0 0 -.6-3 2.987 2.987 0 0 0 -2.216-5h-4a2.961 2.961 0 0 0 -1.319.319 2.961 2.961 0 0 0 .319-1.319 3 3 0 0 0 -3-3h-4a2.966 2.966 0 0 0 -1 .184v-4.184h7a3 3 0 0 0 3-3v-12h3a2.993 2.993 0 0 0 .78-5.884 2.95 2.95 0 0 0 -.56-3.116 2.954 2.954 0 0 0 0-4 2.987 2.987 0 0 0 -2.22-5h-4a2.987 2.987 0 0 0 -2.22 5 2.954 2.954 0 0 0 0 4 2.95 2.95 0 0 0 -.56 3.116 3.073 3.073 0 0 0 -.395.124 4.93 4.93 0 0 0 .175-1.24 5.009 5.009 0 0 0 -4-4.9v-6.1a5.006 5.006 0 0 0 -5-5h-12a5.006 5.006 0 0 0 -5 5v6.1a5 5 0 0 0 0 9.8v6.1a1 1 0 0 0 1 1h20a1 1 0 0 0 1-1v-6.1a4.95 4.95 0 0 0 2-.927v.028 9.999h-25a5.006 5.006 0 0 0 -5 5v6.026a4.977 4.977 0 0 0 -2 3.974 2.981 2.981 0 0 0 .78 2 2.954 2.954 0 0 0 0 4 2.908 2.908 0 0 0 -.6 3h-10.18a1 1 0 0 0 -1 1v4a1 1 0 0 0 1 1h58a1 1 0 0 0 1-1v-4a1 1 0 0 0 -1-1zm-40-35.171a3 3 0 0 1 0-5.658zm20 7.171h-18v-14.671a15.959 15.959 0 0 1 4.429-3.877 11.483 11.483 0 0 0 4.016 5.38 1 1 0 0 0 .555.168.978.978 0 0 0 .4-.083 1 1 0 0 0 .589-.752l.625-3.751a10.657 10.657 0 0 0 2.939 2.486 1 1 0 0 0 1.4-.579l.489-1.465 2.558 2.558zm0-17.414-2.293-2.293a1 1 0 0 0 -1.655.391l-.586 1.755a16.039 16.039 0 0 1 -2.634-2.994 1 1 0 0 0 -1.818.39l-.708 4.249a11.478 11.478 0 0 1 -2.336-4.328 1 1 0 0 0 -1.417-.651 18.4 18.4 0 0 0 -4.553 3.235v-3.34a3 3 0 0 1 3-3h12a3 3 0 0 1 3 3zm2 10.243v-5.658a3 3 0 0 1 0 5.658zm10-11.829h1a1 1 0 0 1 0 2h-1zm0 4h1a1 1 0 0 1 0 2h-1zm-3-4h1v2h-1a1 1 0 0 1 0-2zm0 4h1v2h-1a1 1 0 0 1 0-2zm0 4h4a1 1 0 0 1 0 2h-4a1 1 0 0 1 0-2zm-3 5a1 1 0 0 1 1-1h8a1 1 0 0 1 0 2h-4a1 1 0 0 0 -1 1v2h-4zm0 6h4v2h-4zm-4 6h3a1 1 0 0 0 1-1v-1h4v5a1 1 0 0 1 -1 1h-7zm12 16h1a1 1 0 0 1 0 2h-1zm0 4h1a1 1 0 0 1 0 2h-1zm-3-4h1v2h-1a1 1 0 0 1 0-2zm0 4h1v2h-1a1 1 0 0 1 0-2zm-5-8h1a1 1 0 0 1 0 2h-1zm-3 0h1v2h-1a1 1 0 0 1 0-2zm0 4h4a1 1 0 0 1 0 2h-4a1 1 0 0 1 0-2zm5 5a1 1 0 0 1 -1 1h-1v-2h1a1 1 0 0 1 1 1zm-5-1h1v2h-1a1 1 0 0 1 0-2zm-5-14v-6h2v22h-3.026a4.948 4.948 0 0 0 1.026-3 4.99 4.99 0 0 0 -8.466-3.59 2.987 2.987 0 0 0 -.314-.41 2.981 2.981 0 0 0 .78-2 2.926 2.926 0 0 0 -.081-.666l.374.373a1 1 0 0 0 1.414 0l6-6a1 1 0 0 0 .293-.707zm-2 13a3 3 0 1 1 -3-3 3 3 0 0 1 3 3zm-6.914-10.329.733-3.671h2.362l.733 3.671-1.914 1.915zm6.591-8.671h.323v5.586l-1.386 1.386-.575-2.872zm-2.154 0-1.2 3h-2.646l-1.2-3zm-7.523 0h.323l1.638 4.1-.575 2.876-1.386-1.39zm-4 0h2v6a1 1 0 0 0 .293.707l3.373 3.374a2.926 2.926 0 0 0 -.666-.081h-4a2.966 2.966 0 0 0 -1 .184zm1 12h4a1 1 0 0 1 0 2h-4a1 1 0 0 1 0-2zm4 6h-1v-2h1a1 1 0 0 1 0 2zm1 3a1 1 0 0 1 -1 1h-1v-2h1a1 1 0 0 1 1 1zm-5-5h1v2h-1a1 1 0 0 1 0-2zm0 4h1v2h-1a1 1 0 0 1 0-2zm-7-17a3 3 0 0 1 3-3h1v9.026a4.922 4.922 0 0 0 -4-.925zm1 7a3 3 0 0 1 3 3 1 1 0 0 1 -1 1h-4a1 1 0 0 1 -1-1 3 3 0 0 1 3-3zm3 7a1 1 0 0 1 -1 1h-1v-2h1a1 1 0 0 1 1 1zm-5-1h1v2h-1a1 1 0 0 1 0-2zm0 4h4a1 1 0 0 1 0 2h-4a1 1 0 0 1 0-2zm44 6h-56v-2h56z"/></g></svg>