<svg height="512" viewBox="0 0 64 64" width="512" xmlns="http://www.w3.org/2000/svg"><g id="Filled_outline" data-name="Filled outline"><path d="m27 37h20v24h-20z" fill="#e6f1fd"/><path d="m46 13h-6-12v20h18z" fill="#ffd782"/><path d="m28 26a4 4 0 0 1 0-8z" fill="#f9bb4b"/><path d="m46 18a4 4 0 0 1 0 8z" fill="#f9bb4b"/><path d="m46 13s4.5-3.5-2-10c0 0 0 4-9 4-6 0-7 2-7 6z" fill="#394d5c"/><path d="m34 24h6a0 0 0 0 1 0 0v2a3 3 0 0 1 -3 3 3 3 0 0 1 -3-3v-2a0 0 0 0 1 0 0z" fill="#dd3e46"/><path d="m35 37h4v4h-4z" fill="#b11e48"/><path d="m35 41-4 3v-7h4z" fill="#e33e5c"/><path d="m39 41 4 3v-7h-4z" fill="#e33e5c"/><path d="m47 37h2a4 4 0 0 1 4 4v20a0 0 0 0 1 0 0h-6a0 0 0 0 1 0 0v-24a0 0 0 0 1 0 0z" fill="#e6f1fd"/><rect fill="#55b56a" height="4" rx="2" width="10" x="47" y="57"/><rect fill="#8ec13f" height="4" rx="2" width="10" x="51" y="53"/><rect fill="#55b56a" height="4" rx="2" width="10" x="47" y="49"/><rect fill="#8ec13f" height="4" rx="2" width="10" x="47" y="45"/><path d="m25 37a4 4 0 0 0 -4 4v1l-4-5-5 4 7 9a4.056 4.056 0 0 0 4 2 4 4 0 0 0 4-4v-11z" fill="#e6f1fd"/><path d="m31 37v7.304l6 4.696 6-4.696v-7.304h4v24h-20v-24z" fill="#394d5c"/><circle cx="26" cy="56" fill="#e33e5c" r="5"/><circle cx="32" cy="56" fill="#8ec13f" r="5"/><rect fill="#e33e5c" height="4" rx="2" width="10" x="7" y="57"/><rect fill="#b11e48" height="4" rx="2" width="10" x="7" y="53"/><rect fill="#e33e5c" height="4" rx="2" width="10" x="3" y="49"/><rect fill="#b11e48" height="4" rx="2" width="10" x="3" y="45"/><rect fill="#e33e5c" height="4" rx="2" width="10" x="7" y="41"/><path d="m12 33a5 5 0 0 1 5 5 3 3 0 0 1 -3 3h-4a3 3 0 0 1 -3-3 5 5 0 0 1 5-5z" fill="#ffd782"/><path d="m31 16h2v2h-2z"/><path d="m41 16h2v2h-2z"/><path d="m36 17h2v4h-2z"/><path d="m48.506 9.929c.149-2.4-1.129-4.966-3.8-7.636a1 1 0 0 0 -1.06-.211 1.022 1.022 0 0 0 -.646.888c0 .03-.288 3.03-8 3.03-6.691 0-8 2.566-8 7v4.1a5 5 0 0 0 0 9.8v6.1a1 1 0 0 0 1 1h18a1 1 0 0 0 1-1v-6.1a5 5 0 0 0 0-9.8v-3.678a5.576 5.576 0 0 0 1.506-3.493zm-21.506 14.9a3 3 0 0 1 0-5.658zm18 7.171h-16v-18h16zm.6-20h-1.6a4.806 4.806 0 0 0 1-3h-2a3.365 3.365 0 0 1 -2.186 3h-11.792c.144-2.771 1.1-4 5.978-4 5.948 0 8.358-1.736 9.335-3.163 1.5 1.782 2.253 3.467 2.177 4.927a3.6 3.6 0 0 1 -.912 2.236zm3.4 10a3.006 3.006 0 0 1 -2 2.829v-5.658a3.006 3.006 0 0 1 2 2.829z"/><path d="m33 26a4 4 0 0 0 8 0v-2a1 1 0 0 0 -1-1h-6a1 1 0 0 0 -1 1zm2-1h4v1a2 2 0 0 1 -4 0z"/><path d="m59 52h-1.184a2.908 2.908 0 0 0 -.6-3 2.987 2.987 0 0 0 -2.216-5h-1v-3a5.006 5.006 0 0 0 -5-5h-24a5.009 5.009 0 0 0 -4.756 3.455l-2.463-3.08s-.01-.006-.014-.011a6 6 0 0 0 -11.767 1.636 3.971 3.971 0 0 0 1.08 2.714 2.917 2.917 0 0 0 -.896 3.286h-1.184a2.987 2.987 0 0 0 -2.22 5 2.987 2.987 0 0 0 2.22 5h1.184a2.908 2.908 0 0 0 .6 3 2.987 2.987 0 0 0 2.216 5h6a2.987 2.987 0 0 0 2.22-5 2.987 2.987 0 0 0 -2.22-5h-1.184a2.908 2.908 0 0 0 -.6-3 2.908 2.908 0 0 0 .6-3h.812l3.562 4.587a5.078 5.078 0 0 0 2.77 2.169 5.991 5.991 0 0 0 5.04 9.244 6.114 6.114 0 0 0 .718-.057.982.982 0 0 0 .282.057h28a3 3 0 0 0 3-3 2.966 2.966 0 0 0 -.184-1h1.184a3 3 0 0 0 0-6zm-53 0h-1a1 1 0 0 1 0-2h1zm1-4h-2a1 1 0 0 1 0-2h2zm4-4h-2a1 1 0 0 1 0-2h2zm1 3a1 1 0 0 1 -1 1h-2v-2h2a1 1 0 0 1 1 1zm-2 13h-1a1 1 0 0 1 0-2h1zm1-4h-2a1 1 0 0 1 0-2h2zm0-4h-3v-2h3a1 1 0 0 1 0 2zm4 8h-3v-2h3a1 1 0 0 1 0 2zm0-6a1 1 0 0 1 0 2h-2v-2zm0-10h-2v-2h2a1 1 0 0 1 0 2zm-1-4h-4a2 2 0 0 1 -2-2 4 4 0 0 1 8 0 2 2 0 0 1 -2 2zm34-2h1a3.04 3.04 0 0 1 3 3v3h-3a2.966 2.966 0 0 0 -1 .184zm1 8h1v2h-1a1 1 0 0 1 0-2zm-1 7.816a2.966 2.966 0 0 0 1 .184h1.184a2.809 2.809 0 0 0 0 2h-1.184a2.966 2.966 0 0 0 -1 .184zm-8-15.816h2v4l-2-1.5zm1.552 6.164-3.552 2.782v-4.946h.667zm-5.552-6.164h2v2h-2zm0 4v4.946l-3.552-2.782 2.885-2.164zm-4-4h2v2.5l-2 1.5zm-12.21 11.387-3.061-3.943a2.973 2.973 0 0 0 .191-4.73 3.992 3.992 0 0 0 .787-1.229l2.446 3.057 1.952 3.905 1.79-.894-1.895-3.789v-.764a3 3 0 0 1 3-3h1v10a3.008 3.008 0 0 1 -.829 2.064 5.968 5.968 0 0 0 -2.469.929 3.011 3.011 0 0 1 -2.912-1.606zm7.547 10.382a3.981 3.981 0 0 1 -5.195-2.769h1.858v-2h-1.858a3.981 3.981 0 0 1 5.2-2.769 5.981 5.981 0 0 0 0 7.538zm8.521-2.769a4 4 0 0 1 -2.858 2.858v-1.858h-2v1.858a4 4 0 0 1 -2.858-2.858h1.858v-2h-1.858a4 4 0 0 1 2.858-2.858v1.858h2v-1.858a4 4 0 0 1 2.858 2.858h-1.858v2zm10.142 3h-9.54a5.989 5.989 0 0 0 -7.46-9.185 5.824 5.824 0 0 0 -1-.469v-12.346h2v6.3a1 1 0 0 0 .384.787l6 4.7a1 1 0 0 0 1.232 0l6-4.7a1 1 0 0 0 .384-.787v-6.3h2zm6 0h-3a1 1 0 0 1 0-2h3zm0-5a1 1 0 0 1 1-1h2v2h-2a1 1 0 0 1 -1-1zm3 5h-1v-2h1a1 1 0 0 1 0 2zm0-8h-6a1 1 0 0 1 0-2h6a1 1 0 0 1 0 2zm0-4h-3v-2h3a1 1 0 0 1 0 2zm4 8h-2v-2h2a1 1 0 0 1 0 2z"/></g></svg>