<svg height="512" viewBox="0 0 64 64" width="512" xmlns="http://www.w3.org/2000/svg"><g id="Filled_outline" data-name="Filled outline"><path d="m19 57h-4a4 4 0 0 1 -4-4v-1l3-13a4.188 4.188 0 0 1 4-3h1z" fill="#e6f1fd"/><path d="m45 57h4a4 4 0 0 0 4-4v-1l-3-13a4.188 4.188 0 0 0 -4-3h-1z" fill="#e6f1fd"/><path d="m42 32h-20v-23a6 6 0 0 1 6-6h8a6 6 0 0 1 6 6z" fill="#ffd782"/><path d="m22 26a4 4 0 0 1 0-8z" fill="#f9bb4b"/><path d="m42 18a4 4 0 0 1 0 8z" fill="#f9bb4b"/><path d="m22 9v5h2a10.8 10.8 0 0 0 8-4 10.8 10.8 0 0 0 8 4h2v-5a6 6 0 0 0 -6-6h-8a6 6 0 0 0 -6 6z" fill="#394d5c"/><path d="m19 36h26v21h-26z" fill="#394d5c"/><path d="m25 57h14v4h-14z" fill="#d3843d"/><path d="m39 46-7 3-7-3v-10h14z" fill="#e6f1fd"/><path d="m32 45a7 7 0 0 1 7 7v5a0 0 0 0 1 0 0h-14a0 0 0 0 1 0 0v-5a7 7 0 0 1 7-7z" fill="#87cee9"/><path d="m30 36h4v4h-4z" fill="#b11e48"/><path d="m30 40-5 3v-7h5z" fill="#da1c4b"/><path d="m34 40v-4h5v7z" fill="#da1c4b"/><path d="m29 53h4v4h-4z" fill="#f4f4e6"/><path d="m31 49h4v4h-4z" fill="#fff"/><path d="m19 51h4a2 2 0 0 1 2 2v4a0 0 0 0 1 0 0h-6a0 0 0 0 1 0 0v-6a0 0 0 0 1 0 0z" fill="#ffd782"/><path d="m39 51h6a0 0 0 0 1 0 0v4a2 2 0 0 1 -2 2h-4a0 0 0 0 1 0 0v-6a0 0 0 0 1 0 0z" fill="#ffd782" transform="matrix(-1 0 0 -1 84 108)"/><path d="m25 62h14a1 1 0 0 0 1-1v-3h9a5.006 5.006 0 0 0 5-5v-1a1.063 1.063 0 0 0 -.025-.225l-3.009-13.033a5.175 5.175 0 0 0 -4.966-3.742h-28a5.184 5.184 0 0 0 -4.975 3.775l-3 13a1.063 1.063 0 0 0 -.025.225v1a5.006 5.006 0 0 0 5 5h9v3a1 1 0 0 0 1 1zm-7-11.677-4.371 1.748.742 1.858 3.629-1.452v3.523h-3a3 3 0 0 1 -3-3v-.886l2.966-12.856a3.191 3.191 0 0 1 3.034-2.258zm26 5.677h-4v-3a1 1 0 0 1 1-1h3zm2-3.523 3.629 1.452.742-1.858-4.371-1.748v-13.323a3.183 3.183 0 0 1 3.025 2.225l2.975 12.889v.886a3 3 0 0 1 -3 3h-3zm-6.607-5.557a1 1 0 0 0 .607-.92v-9h4v13h-3a2.979 2.979 0 0 0 -1.2.253 7.963 7.963 0 0 0 -1.332-2.939zm-4.393-9.92h3v4.234l-3-1.8zm3 6.566v1.773l-1 .427a7.958 7.958 0 0 0 -4-1.7v-3.066h.723zm-7-6.566h2v2h-2zm-5 0h3v2.434l-3 1.8zm0 6.566 4.277-2.566h.723v3.069a7.958 7.958 0 0 0 -4 1.7l-1-.427zm0 8.434a6 6 0 0 1 12 0v4h-4v-2h1a1 1 0 0 0 1-1v-4a1 1 0 0 0 -1-1h-4a1 1 0 0 0 -1 1v3h-1a1 1 0 0 0 -1 1v3h-2zm6 0v-2h2v2zm0 2v2h-2v-2zm-6 4h12v2h-12zm-6-21h4v9a1 1 0 0 0 .607.92l.923.394a7.963 7.963 0 0 0 -1.33 2.939 2.976 2.976 0 0 0 -1.2-.253h-3zm0 19v-4h3a1 1 0 0 1 1 1v3z"/><path d="m36 2h-8a7.008 7.008 0 0 0 -7 7v8.1a5 5 0 0 0 0 9.8v5.1a1 1 0 0 0 1 1h20a1 1 0 0 0 1-1v-5.1a5 5 0 0 0 0-9.8v-8.1a7.008 7.008 0 0 0 -7-7zm-15 22.829a3 3 0 0 1 0-5.658zm20 6.171h-18v-16h1a11.465 11.465 0 0 0 8-3.5 11.465 11.465 0 0 0 8 3.5h1zm0-18h-1a9.871 9.871 0 0 1 -7.2-3.6 1 1 0 0 0 -.8-.4 1.036 1.036 0 0 0 -.8.4 9.868 9.868 0 0 1 -7.2 3.6h-1v-4a5.006 5.006 0 0 1 5-5h8a5.006 5.006 0 0 1 5 5zm4 9a3.006 3.006 0 0 1 -2 2.829v-5.658a3.006 3.006 0 0 1 2 2.829z"/><path d="m32 27a3 3 0 0 1 -3-3h-2a5 5 0 0 0 10 0h-2a3 3 0 0 1 -3 3z"/><path d="m26 17h2v2h-2z"/><path d="m36 17h2v2h-2z"/><path d="m31 18h2v4h-2z"/></g></svg>