<svg height="512" viewBox="0 0 64 64" width="512" xmlns="http://www.w3.org/2000/svg"><g id="Filled_outline" data-name="Filled outline"><circle cx="16" cy="16" fill="#2d75bb" r="4"/><path d="m27 35h20v22h-20z" fill="#e6f1fd"/><path d="m31 35v7l6 5 6-5v-7h4v22h-20v-22z" fill="#394d5c"/><path d="m35 35h4v4h-4z" fill="#b11e48"/><path d="m35 39-4 3v-7h4z" fill="#dd3e46"/><path d="m39 39 4 3v-7h-4z" fill="#dd3e46"/><path d="m3 57h58v4h-58z" fill="#55b56a"/><path d="m25 53a3 3 0 0 1 3 3v1a0 0 0 0 1 0 0h-6a0 0 0 0 1 0 0v-1a3 3 0 0 1 3-3z" fill="#da1c4b"/><path d="m31 53a3 3 0 0 1 3 3v1a0 0 0 0 1 0 0h-6a0 0 0 0 1 0 0v-1a3 3 0 0 1 3-3z" fill="#8ec13f"/><path d="m13 53a3 3 0 0 1 3 3v1a0 0 0 0 1 0 0h-6a0 0 0 0 1 0 0v-1a3 3 0 0 1 3-3z" fill="#f9bb4b"/><path d="m19 53a3 3 0 0 1 3 3v1a0 0 0 0 1 0 0h-6a0 0 0 0 1 0 0v-1a3 3 0 0 1 3-3z" fill="#4f97d5"/><path d="m28 12h18v19h-18z" fill="#ffd782"/><path d="m28 26a4 4 0 0 1 0-8z" fill="#f9bb4b"/><path d="m46 18a4 4 0 0 1 0 8z" fill="#f9bb4b"/><path d="m32 3h14a0 0 0 0 1 0 0v9a0 0 0 0 1 0 0h-18a0 0 0 0 1 0 0v-5a4 4 0 0 1 4-4z" fill="#394d5c"/><path d="m46 3h4v6h-4z" fill="#e33e5c"/><path d="m50 3a8 8 0 0 1 8 8v10a0 0 0 0 1 0 0h-2a6 6 0 0 1 -6-6v-12a0 0 0 0 1 0 0z" fill="#394d5c"/><path d="m47 35h3a5 5 0 0 1 5 5v2a0 0 0 0 1 0 0h-8a0 0 0 0 1 0 0v-7a0 0 0 0 1 0 0z" fill="#e6f1fd"/><path d="m24 28h-7v10a3 3 0 0 0 3 3h7v-6h-3z" fill="#e6f1fd"/><path d="m18 28v-2l-2-3v-2a4 4 0 0 1 4-4 4 4 0 0 1 4 4v7z" fill="#ffd782"/><rect fill="#4f97d5" height="4" rx="2" width="8" x="39" y="53"/><rect fill="#2d75bb" height="4" rx="2" width="8" x="39" y="49"/><rect fill="#b11e48" height="4" rx="2" width="8" x="47" y="53"/><rect fill="#da1c4b" height="4" rx="2" width="8" x="47" y="49"/><rect fill="#b11e48" height="4" rx="2" width="8" x="47" y="45"/><rect fill="#da1c4b" height="4" rx="2" width="8" x="47" y="41"/><path d="m36 42h2v2h-2z"/><path d="m61 56h-5.184a2.908 2.908 0 0 0 -.6-3 2.954 2.954 0 0 0 0-4 2.954 2.954 0 0 0 0-4 2.981 2.981 0 0 0 .784-2 3.012 3.012 0 0 0 -.072-.641 1 1 0 0 0 .072-.359v-2a5.937 5.937 0 0 0 -6-6h-25v-8.026a4.954 4.954 0 0 0 2 .925v4.101a1 1 0 0 0 1 1h18a1 1 0 0 0 1-1v-4.1a5 5 0 0 0 0-9.8v-7.1h2v5a7.008 7.008 0 0 0 7 7h2a1 1 0 0 0 1-1v-10a9.01 9.01 0 0 0 -9-9h-18a5.006 5.006 0 0 0 -5 5v10.1a4.98 4.98 0 0 0 -2.642 1.5 5 5 0 0 0 -3.365-2.5c0-.033.007-.067.007-.1a5 5 0 1 0 -5.99 4.9c0 .034-.01.066-.01.1v2a1.006 1.006 0 0 0 .168.555l1.832 2.745v.7a1 1 0 0 0 -1 1v10a4 4 0 0 0 4 4h6v10.142a3.864 3.864 0 0 0 -4 1.24 3.947 3.947 0 0 0 -6 0 3.983 3.983 0 0 0 -7 2.618h-6a1 1 0 0 0 -1 1v4a1 1 0 0 0 1 1h58a1 1 0 0 0 1-1v-4a1 1 0 0 0 -1-1zm-10-51.929a7.011 7.011 0 0 1 6 6.929v8.063a5.531 5.531 0 0 1 -2-4.063v-4h-2v4a7.171 7.171 0 0 0 2 4.9 5.008 5.008 0 0 1 -4-4.9zm-4-.071h2v4h-2zm0 15.171a3 3 0 0 1 0 5.658zm-18-12.171a3 3 0 0 1 3-3h13v7h-3v-3h-2v3h-2v-3h-2v3h-2v-3h-2v3h-3zm0 6h16v17h-16zm-2 6.171v5.658a3 3 0 0 1 0-5.658zm21 16.829h2a3.913 3.913 0 0 1 4 4v.184a2.966 2.966 0 0 0 -1-.184h-4a2.966 2.966 0 0 0 -1 .184zm1 6h4a1 1 0 0 1 0 2h-4a1 1 0 0 1 0-2zm0 4h4a1 1 0 0 1 0 2h-4a1 1 0 0 1 0-2zm0 4h4a1 1 0 0 1 0 2h-4a1 1 0 0 1 0-2zm0 4h4a1 1 0 0 1 0 2h-4a1 1 0 0 1 0-2zm-9-18h2v4l-2-1.5zm-4 0h2v2h-2zm2.667 4 2.722 2.041-4.389 3.659-4.389-3.657 2.722-2.043zm-6.667-4h2v2.5l-2 1.5zm-4 0h2v6a1 1 0 0 0 .359.768l6 5a1 1 0 0 0 1.282 0l6-5a1 1 0 0 0 .359-.768v-6h2v12.184a2.966 2.966 0 0 0 -1-.184h-4a2.987 2.987 0 0 0 -2.22 5 2.908 2.908 0 0 0 -.6 3h-3.18a3.983 3.983 0 0 0 -7-2.618zm17 16h-4a1 1 0 0 1 0-2h4a1 1 0 0 1 0 2zm1 3a1 1 0 0 1 -1 1h-4a1 1 0 0 1 0-2h4a1 1 0 0 1 1 1zm-13 1h-4a2 2 0 0 1 4 0zm-17.546-37.055a3 3 0 1 1 3.546-2.945c0 .033-.012.07-.013.1a5.008 5.008 0 0 0 -3.533 2.845zm1.546 3.755v-1.7a3 3 0 0 1 6 0v6h-4v-1a1.006 1.006 0 0 0 -.168-.555zm3 17.3a2 2 0 0 1 -2-2v-9h5v6a1 1 0 0 0 1 1h2v4zm5 14a2 2 0 0 1 2 2h-4a2 2 0 0 1 2-2zm-6 0a2 2 0 0 1 2 2h-4a2 2 0 0 1 2-2zm-6 0a2 2 0 0 1 2 2h-4a2 2 0 0 1 2-2zm47 6h-56v-2h56z"/><path d="m31 15h2v2h-2z"/><path d="m41 15h2v2h-2z"/><path d="m36 17h2v4h-2z"/><path d="m37 26a4 4 0 0 1 -4-4h-2a6 6 0 0 0 12 0h-2a4 4 0 0 1 -4 4z"/></g></svg>