<svg height="512" viewBox="0 0 64 64" width="512" xmlns="http://www.w3.org/2000/svg"><g id="Filled_outline" data-name="Filled outline"><path d="m22 49v-14c-2.877 0-4.563 1.157-5 4l-2 9a7.969 7.969 0 0 0 -1 3 4 4 0 0 0 4 4h8v-6z" fill="#e6f1fd"/><path d="m42 35a6 6 0 0 1 6 6v20a0 0 0 0 1 0 0h-6a0 0 0 0 1 0 0v-26a0 0 0 0 1 0 0z" fill="#e6f1fd"/><path d="m22 35h20v26h-20z" fill="#394d5c"/><path d="m23 13h18v18h-18z" fill="#ffd782"/><path d="m23 25a4 4 0 0 1 0-8z" fill="#f9bb4b"/><path d="m41 17a4 4 0 0 1 0 8z" fill="#f9bb4b"/><path d="m37 5a2 2 0 0 1 -2 2h-10a2 2 0 0 0 -2 2v4h18v-10h-2a2 2 0 0 0 -2 2z" fill="#394d5c"/><path d="m26 35v7l6-2z" fill="#e6f1fd"/><path d="m38 35v7l-6-2z" fill="#e6f1fd"/><path d="m26 35 6 5 6-5z" fill="#ffd782"/><path d="m35 50-5-4 4-4h1z" fill="#fff"/><path d="m35 50v-8h7v2z" fill="#f4f4e6"/><path d="m35 50 7-6 5 6-7 6z" fill="#fff"/><path d="m22 49h4v6h-4z" fill="#fff"/><path d="m26 49 4-3 5 4v5h-9z" fill="#ffd782"/><path d="m26 18h2v2h-2z"/><path d="m36 18h2v2h-2z"/><path d="m22 25.9v5.1a1 1 0 0 0 1 1h18a1 1 0 0 0 1-1v-5.1a5 5 0 0 0 0-9.8v-13.1a1 1 0 0 0 -1-1h-2a3 3 0 0 0 -3 3 1 1 0 0 1 -1 1h-10a3 3 0 0 0 -3 3v7.1a5 5 0 0 0 0 9.8zm20-7.728a3 3 0 0 1 0 5.658zm-18-9.172a1 1 0 0 1 1-1h10a3 3 0 0 0 3-3 1 1 0 0 1 1-1h1v8h-16zm0 5h16v16h-16zm-2 4.171v5.658a3 3 0 0 1 0-5.658z"/><path d="m31 20h2v4h-2z"/><path d="m29 26h6v2h-6z"/><path d="m18 56h3v5a1 1 0 0 0 1 1h26a1 1 0 0 0 1-1v-20a7.009 7.009 0 0 0 -7-7h-20c-3.479 0-5.493 1.631-5.977 4.783l-1.968 8.86a8.781 8.781 0 0 0 -1.055 3.357 5.006 5.006 0 0 0 5 5zm29 4h-4v-5.255l4-3.428zm-4-23.9a5.018 5.018 0 0 1 4 4.9v7.438l-4-4.8zm2.6 13.783-5.482 4.7-3.718-4.465 5.482-4.7zm-9.6-2.057v-4.826h5v.54zm3-11.826h2v5h-2zm-2 4.613-2.98-.994 2.98-2.484zm-1.762-4.613-3.238 2.7-3.238-2.7zm-3.738 9.917 2.5-2.5v4.5zm2.5 4.564v3.519h-7v-4.5l2.98-2.235zm-7-13.346 2.98 2.484-2.98.994zm-4-1.135h2v6a1 1 0 0 0 1 1 1.01 1.01 0 0 0 .316-.051l5.684-1.895 1.149.383-3.807 3.807-3.675 2.756h-2.667zm0 14h2v4h-2zm0 6h12a1 1 0 0 0 1-1v-2.238l3.231 3.878a1 1 0 0 0 .685.357h.084a1 1 0 0 0 .65-.241l.35-.3v3.544h-18zm-7.132-7.5a1.031 1.031 0 0 0 .109-.279l2.011-9.065c.3-1.917 1.19-2.861 3.012-3.094v11.938h-3v2h3v4h-3a3 3 0 0 1 -3-3 7.243 7.243 0 0 1 .868-2.5z"/><path d="m40 49h2v2h-2z"/></g></svg>