<svg height="512" viewBox="0 0 64 64" width="512" xmlns="http://www.w3.org/2000/svg"><g id="Filled_outline" data-name="Filled outline"><path d="m51 33h-18v-24a6 6 0 0 1 6-6h6a6 6 0 0 1 6 6z" fill="#ffd782"/><path d="m29 37h26v24h-26z" fill="#195c85"/><path d="m33 19a0 0 0 0 1 0 0v8a0 0 0 0 1 0 0 4 4 0 0 1 -4-4 4 4 0 0 1 4-4z" fill="#f9bb4b"/><path d="m55 19a0 0 0 0 1 0 0v8a0 0 0 0 1 0 0 4 4 0 0 1 -4-4 4 4 0 0 1 4-4z" fill="#f9bb4b" transform="matrix(-1 0 0 -1 106 46)"/><path d="m33 9v5h2a7.943 7.943 0 0 0 7-4 7.943 7.943 0 0 0 7 4h2v-5a6 6 0 0 0 -6-6h-6a6 6 0 0 0 -6 6z" fill="#394d5c"/><path d="m55 37v18h-8v6h11a2.858 2.858 0 0 0 3-3v-15a6 6 0 0 0 -6-6z" fill="#4f97d5"/><path d="m47 55h4v6h-4z" fill="#87cee9"/><path d="m47 55-3-3-3 3v3l6 3z" fill="#ffd782"/><path d="m44 52 4-7 7 4-4 6h-4z" fill="#fff"/><path d="m44 52v-7h-8v6l5 4z" fill="#fff"/><path d="m41 55-5-4h-3v7h8z" fill="#f4f4e6"/><circle cx="8" cy="51" fill="#e33e5c" r="5"/><path d="m23 43v12h-13v6h19v-24a6 6 0 0 0 -6 6z" fill="#4f97d5"/><path d="m10 55-2-2-4 2v3l6 3z" fill="#ffd782"/><path d="m10 55h4v6h-4z" fill="#87cee9"/><path d="m39 37h6a0 0 0 0 1 0 0v1a3 3 0 0 1 -3 3 3 3 0 0 1 -3-3v-1a0 0 0 0 1 0 0z" fill="#ffd782"/><path d="m44 52 6-2 1 5h-4z" fill="#f4f4e6"/><path d="m36 18h2v2h-2z"/><path d="m46 18h2v2h-2z"/><path d="m41 20h2v4h-2z"/><path d="m45 2h-6a7.008 7.008 0 0 0 -7 7v9.1a5 5 0 0 0 0 9.8v5.1a1 1 0 0 0 1 1h18a1 1 0 0 0 1-1v-5.1a5 5 0 0 0 0-9.8v-9.1a7.008 7.008 0 0 0 -7-7zm-13 23.829a3 3 0 0 1 0-5.658zm18 6.171h-16v-17h1a8.869 8.869 0 0 0 7-3.241 8.869 8.869 0 0 0 7 3.241h1zm0-19h-1a6.9 6.9 0 0 1 -6.1-3.447 1.042 1.042 0 0 0 -1.79 0 6.943 6.943 0 0 1 -6.11 3.447h-1v-4a5.006 5.006 0 0 1 5-5h6a5.006 5.006 0 0 1 5 5zm4 10a3.006 3.006 0 0 1 -2 2.829v-5.658a3.006 3.006 0 0 1 2 2.829z"/><path d="m42 26a4 4 0 0 0 -4 4h2a2 2 0 0 1 4 0h2a4 4 0 0 0 -4-4z"/><path d="m55 36h-26a7.008 7.008 0 0 0 -7 7v11h-8.812a5.942 5.942 0 0 0 .812-3 6 6 0 1 0 -10.865 3.507.988.988 0 0 0 -.135.493v3a1 1 0 0 0 .553.9l6 3c.009 0 .019 0 .027.006a.99.99 0 0 0 .42.094h48a3.869 3.869 0 0 0 4-4v-15a7.008 7.008 0 0 0 -7-7zm-46 23.382-4-2v-1.764l2.8-1.4 1.2 1.2zm1.414-5.382-1.707-1.707a1 1 0 0 0 -1.154-.188l-2.694 1.347a3.972 3.972 0 0 1 -.716-1.452h1.857v-2h-1.858a4 4 0 0 1 2.858-2.858v1.858h2v-1.858a4 4 0 0 1 2.858 2.858h-1.858v2h1.866a3.93 3.93 0 0 1 -1.266 2zm2.586 6h-2v-4h2zm15 0h-13v-4h8a1 1 0 0 0 1-1v-12a5.008 5.008 0 0 1 4-4.9zm16-22a2 2 0 0 1 -4 0zm-14 22v-22h8a4 4 0 0 0 8 0h8v9.277l-5.5-3.145a1 1 0 0 0 -1.364.372l-2.136 3.731v-3.235a1 1 0 0 0 -1-1h-8a1 1 0 0 0 -1 1v5h-2a1 1 0 0 0 -1 1v7a1 1 0 0 0 1 1h7.764l2 1zm8-5v-1.119l2 1.6v1.519h-6v-5h1.649l1.25 1h-.899v2zm-1-4.481v-4.519h6v5.586l-2.074 2.074zm9 8.863-4-2v-1.968l2-2 2 2zm-.148-6.945 3.389-1.13.539 2.693h-2.366zm4.148 7.563h-2v-4h2zm.98-10.2a1 1 0 0 0 -1.3-.753l-3.517 1.173 2.2-3.86 5.2 2.973-2.066 3.1zm3.02 2.5v1.7h-1.132zm6 5.7a1.856 1.856 0 0 1 -2 2h-6v-4h3a1 1 0 0 0 1-1v-16.9a5.008 5.008 0 0 1 4 4.9z"/><path d="m39 48h2v2h-2z"/></g></svg>