<svg height="512" viewBox="0 0 64 64" width="512" xmlns="http://www.w3.org/2000/svg"><g id="Filled_outline" data-name="Filled outline"><path d="m27 3a13 13 0 0 1 13 13v21a0 0 0 0 1 0 0h-26a0 0 0 0 1 0 0v-21a13 13 0 0 1 13-13z" fill="#394d5c"/><path d="m50 29v8h-10v6h12a4 4 0 0 0 4-4v-10z" fill="#db527d"/><path d="m40 61h-26l4-9-4-9v-6h26v6l-4 9z" fill="#f98c96"/><path d="m31 33h-8a4.782 4.782 0 0 1 -5-5v-15h12l3-2 3 2v15a4.782 4.782 0 0 1 -5 5z" fill="#ffd782"/><path d="m18 25a4 4 0 0 1 0-8z" fill="#f9bb4b"/><path d="m36 17a4 4 0 0 1 0 8z" fill="#f9bb4b"/><path d="m23 25h8a0 0 0 0 1 0 0v2a4 4 0 0 1 -4 4 4 4 0 0 1 -4-4v-2a0 0 0 0 1 0 0z" fill="#dd3e46"/><path d="m44 17-6 6 9 9 3-3-1-7z" fill="#f4f4e6"/><path d="m49 22-3-3v-5h10v8z" fill="#e5e4cf"/><path d="m54 22-3-4-3 3 1 1z" fill="#e33e5c"/><path d="m21 37 6 6 6-6z" fill="#ffd782"/><path d="m14 37a0 0 0 0 1 0 0v24a0 0 0 0 1 0 0h-6a0 0 0 0 1 0 0v-18a6 6 0 0 1 6-6z" fill="#db527d"/><path d="m56 29v-7h-6a2.006 2.006 0 0 0 -2 2v3a2.006 2.006 0 0 0 2 2z" fill="#ffd782"/><path d="m21 16h2v2h-2z"/><path d="m31 16h2v2h-2z"/><path d="m26 18h2v4h-2z"/><path d="m32 27v-2a1 1 0 0 0 -1-1h-8a1 1 0 0 0 -1 1v2a5 5 0 0 0 10 0zm-2 0a3 3 0 0 1 -6 0v-1h6z"/><path d="m36.9 6.1a14 14 0 0 0 -23.9 9.9v20.08a7 7 0 0 0 -6 6.92v18a1 1 0 0 0 1 1h32a1 1 0 0 0 .914-1.406l-3.82-8.594 3.556-8h11.35a5.006 5.006 0 0 0 5-5v-25a1 1 0 0 0 -1-1h-10a1 1 0 0 0 -1 1v2.586l-.293-.293a1 1 0 0 0 -1.414 0l-2.293 2.293v-2.586a13.907 13.907 0 0 0 -4.1-9.9zm-23.9 53.9h-4v-17a5.008 5.008 0 0 1 4-4.9zm2-12.288 1.906 4.288-1.906 4.288zm23.461 12.288h-22.922l3.216-7.238a19.634 19.634 0 0 1 2.245-.835v5.073h2v-5.571a20.709 20.709 0 0 1 3-.367v5.938h2v-5.938a20.709 20.709 0 0 1 3 .367v5.571h2v-5.073a19.634 19.634 0 0 1 2.245.835zm.539-17.212-3.512 7.9a22.705 22.705 0 0 0 -16.976 0l-3.512-7.9v-4.788h5.586l5.707 5.707a1 1 0 0 0 1.414 0l5.707-5.707h5.586zm-15.586-4.788h7.172l-3.586 3.586zm15.586-2h-24v-11.026a4.954 4.954 0 0 0 2 .925v2.101a5.8 5.8 0 0 0 6 6h8a5.8 5.8 0 0 0 6-6v-2.1a4.98 4.98 0 0 0 1.757-.726l.243.243zm-24-15a3.006 3.006 0 0 1 2-2.829v5.658a3.006 3.006 0 0 1 -2-2.829zm4 7v-14h11a1.006 1.006 0 0 0 .555-.168l2.445-1.632 2 1.333v14.467a3.786 3.786 0 0 1 -4 4h-8a3.786 3.786 0 0 1 -4-4zm18.283-4.309c-.095.045-.185.1-.283.137v-5.657a3 3 0 0 1 1.969 2.446l-1.676 1.676a.992.992 0 0 0 -.01 1.4zm1.717-6.665a4.954 4.954 0 0 0 -2-.925v-3.101a1 1 0 0 0 -.445-.832l-3-2a1 1 0 0 0 -1.11 0l-2.745 1.832h-11.7a1 1 0 0 0 -1 1v3.1a4.954 4.954 0 0 0 -2 .925v-1.025a12 12 0 0 1 24 0zm16 21.974a3 3 0 0 1 -3 3h-11v-4h9a1 1 0 0 0 1-1v-7h4zm-14-3v-8.586l5.293 5.293a1 1 0 0 0 1.414 0l1.293-1.293v4.586zm14-8h-5a1 1 0 0 1 -1-1v-3a1 1 0 0 1 1-1h5zm-5.586-7 1.478-1.478 1.108 1.478zm-2.414-6h8v6h-.5l-2.7-3.6a1 1 0 0 0 -.729-.4 1.014 1.014 0 0 0 -.778.291l-2.293 2.295-1-1zm-3 3.414 3.692 3.692a2.972 2.972 0 0 0 -.692 1.894v3a2.985 2.985 0 0 0 1.2 2.385l-1.2 1.2-7.586-7.585z"/><path d="m43 22h2v2h-2z"/></g></svg>