<svg height="512" viewBox="0 0 64 64" width="512" xmlns="http://www.w3.org/2000/svg"><g id="Filled_outline" data-name="Filled outline"><path d="m26 30h-10a4.116 4.116 0 0 1 -4-4v-14h18v14a4.116 4.116 0 0 1 -4 4z" fill="#ffd782"/><path d="m12 22a4 4 0 0 1 0-8z" fill="#f9bb4b"/><path d="m30 14a4 4 0 0 1 0 8z" fill="#f9bb4b"/><path d="m9 34h24v27h-24z" fill="#f98c96"/><path d="m12 3h18a0 0 0 0 1 0 0v9a0 0 0 0 1 0 0h-14a4 4 0 0 1 -4-4v-5a0 0 0 0 1 0 0z" fill="#394d5c" transform="matrix(-1 0 0 -1 42 15)"/><path d="m8 3h4v6h-4z" fill="#db527d" transform="matrix(-1 0 0 -1 20 12)"/><path d="m8 3a0 0 0 0 1 0 0v15a5 5 0 0 1 -5 5 0 0 0 0 1 0 0v-15a5 5 0 0 1 5-5z" fill="#394d5c"/><path d="m50 47-5 2-6-2v-7a6 6 0 0 0 -6-6v16a3 3 0 0 0 3 3h17z" fill="#ffd782"/><path d="m53 57v-4h-4v4a4 4 0 0 0 4 4h8v-4z" fill="#f4f4e6"/><path d="m16 41h8v10h-8z" fill="#fff"/><path d="m22.05 46.464h9.899v7.071h-9.899z" fill="#e5e4cf" transform="matrix(.707 -.707 .707 .707 -27.447 33.737)"/><path d="m16 51 4-7 4 7z" fill="#f4f4e6"/><path d="m33 34h6a0 0 0 0 1 0 0v10a0 0 0 0 1 0 0 6 6 0 0 1 -6-6v-4a0 0 0 0 1 0 0z" fill="#db527d" transform="matrix(-1 0 0 -1 72 78)"/><path d="m15 34h12a0 0 0 0 1 0 0v1a6 6 0 0 1 -6 6 6 6 0 0 1 -6-6v-1a0 0 0 0 1 0 0z" fill="#ffd782"/><path d="m21 51h-12v-17a6 6 0 0 0 -6 6v14a3 3 0 0 0 3 3h15a3 3 0 0 0 0-6z" fill="#ffd782"/><path d="m9 34a0 0 0 0 1 0 0v10a0 0 0 0 1 0 0h-6a0 0 0 0 1 0 0v-4a6 6 0 0 1 6-6z" fill="#db527d"/><path d="m15 15h2v2h-2z"/><path d="m25 15h2v2h-2z"/><path d="m20 19h2v4h-2z"/><path d="m18 25h6v2h-6z"/><path d="m3 24a5.993 5.993 0 0 0 5.119-2.887 4.984 4.984 0 0 0 2.881 1.787v3.1a5.131 5.131 0 0 0 5 5h10a5.131 5.131 0 0 0 5-5v-3.1a5 5 0 0 0 0-9.8v-6.1a5.006 5.006 0 0 0 -5-5h-18a6.006 6.006 0 0 0 -6 6v15a1 1 0 0 0 1 1zm28-8.829a3 3 0 0 1 0 5.658zm-18-11.171h13a3 3 0 0 1 3 3v4h-3v-3h-2v3h-2v-3h-2v3h-2v-3h-2v3h-3zm0 9h16v13a3.119 3.119 0 0 1 -3 3h-10a3.119 3.119 0 0 1 -3-3zm-4-9h2v4h-2zm0 6h2v3.1a4.954 4.954 0 0 0 -2 .925zm2 5.171v5.658a3 3 0 0 1 0-5.658zm-7-7.171a4.006 4.006 0 0 1 3-3.873v13.873a4.006 4.006 0 0 1 -3 3.873z"/><path d="m61 56h-7v-3a1.842 1.842 0 0 0 -.1-.447l-3-6a1 1 0 0 0 -1.267-.482l-4.659 1.865-4.974-1.657v-6.279a7.008 7.008 0 0 0 -7-7h-24a7.008 7.008 0 0 0 -7 7v14a4 4 0 0 0 4 4h2v3a1 1 0 0 0 1 1h24a1 1 0 0 0 1-1v-7.556a3.959 3.959 0 0 0 2 .556h12v3a5.006 5.006 0 0 0 5 5h8a1 1 0 0 0 1-1v-4a1 1 0 0 0 -1-1zm-35-21a5 5 0 0 1 -10 0zm-5.132 8.5a1.04 1.04 0 0 0 -1.736 0l-2.132 3.735v-5.235h6v5.232zm.8 5.419-1.082 1.081h-2.863l2.277-3.985zm6.332-3.505 3.586 3.586-5.586 5.586-1.047-1.047a3.98 3.98 0 0 0 -2.045-3.033zm-18-10.414h4a6.973 6.973 0 0 0 2.111 5h-.111a1 1 0 0 0 -1 1v9h-5zm-6 5a5.008 5.008 0 0 1 4-4.9v7.9h-4zm2 16a2 2 0 0 1 -2-2v-9h4v6a1 1 0 0 0 1 1h12a2 2 0 0 1 0 4zm26 4h-22v-2h11a3.987 3.987 0 0 0 3.494-2.092l.8.8a1 1 0 0 0 1.414 0l5.292-5.294zm0-13.414-3.293-3.293a1 1 0 0 0 -1.414 0l-2.293 2.293v-4.586a.969.969 0 0 0 -.046-.229 7 7 0 0 0 3.046-5.771h4zm2-11.486a5.008 5.008 0 0 1 4 4.9v3h-4zm2 16.9a2 2 0 0 1 -2-2v-5h4v2a1 1 0 0 0 .684.948l6 2a.993.993 0 0 0 .688-.019l4.145-1.658 1.865 3.729zm24 8h-7a3 3 0 0 1 -3-3v-3h2v3a1 1 0 0 0 1 1h7z"/><path d="m27 48h2v2h-2z"/></g></svg>