<svg height="512" viewBox="0 0 64 64" width="512" xmlns="http://www.w3.org/2000/svg"><g id="Filled_outline" data-name="Filled outline"><path d="m9 36h24v25h-24z" fill="#394d5c"/><path d="m6 36h3a0 0 0 0 1 0 0v25a0 0 0 0 1 0 0h-6a0 0 0 0 1 0 0v-22a3 3 0 0 1 3-3z" fill="#143441"/><path d="m15 36 6 18 6-18z" fill="#f4f4e6"/><path d="m19 36-1 9 3 9 3-9-1-9z" fill="#2d75bb"/><path d="m21 54 7-4v-14h-1z" fill="#143441"/><path d="m21 54-7-4v-14h1z" fill="#143441"/><path d="m30 32h-20v-23a6 6 0 0 1 6-6h8a6 6 0 0 1 6 6z" fill="#ffd782"/><path d="m10 26a4 4 0 0 1 0-8z" fill="#f9bb4b"/><path d="m30 18a4 4 0 0 1 0 8z" fill="#f9bb4b"/><path d="m10 9v5h2a10.8 10.8 0 0 0 8-4 10.8 10.8 0 0 0 8 4h2v-5a6 6 0 0 0 -6-6h-8a6 6 0 0 0 -6 6z" fill="#394d5c"/><path d="m33 57h28v4h-28z" fill="#55b56a"/><path d="m33 36 6 7 6-6 4 4-8 8a2.884 2.884 0 0 1 -4 0l-4-5z" fill="#143441"/><path d="m45 37v-3a4 4 0 0 1 4-4v3l4 4-4 4z" fill="#ffd782"/><circle cx="55" cy="32" fill="#da1c4b" r="6"/><rect fill="#da1c4b" height="4" rx="2" width="10" x="51" y="53"/><rect fill="#b11e48" height="4" rx="2" width="10" x="49" y="49"/><rect fill="#da1c4b" height="4" rx="2" width="10" x="51" y="45"/><path d="m24 2h-8a7.008 7.008 0 0 0 -7 7v8.1a5 5 0 0 0 0 9.8v5.1a1 1 0 0 0 1 1h20a1 1 0 0 0 1-1v-3h4v-2h-4v-.1a5 5 0 0 0 0-9.8v-8.1a7.008 7.008 0 0 0 -7-7zm-15 22.829a3 3 0 0 1 0-5.658zm20 2.171h-10v2h10v2h-18v-16h1a11.465 11.465 0 0 0 8-3.5 11.465 11.465 0 0 0 8 3.5h1zm0-14h-1a9.876 9.876 0 0 1 -7.2-3.6 1.128 1.128 0 0 0 -.8-.4 1 1 0 0 0 -.8.4 9.875 9.875 0 0 1 -7.2 3.6h-1v-4a5.006 5.006 0 0 1 5-5h8a5.006 5.006 0 0 1 5 5zm4 9a3.006 3.006 0 0 1 -2 2.829v-5.658a3.006 3.006 0 0 1 2 2.829z"/><path d="m14 17h2v2h-2z"/><path d="m24 17h2v2h-2z"/><path d="m19 18h2v4h-2z"/><path d="m37 27h2v2h-2z"/><path d="m39 23.126a2 2 0 0 0 2-2v-2.126h-2v2.126a2 2 0 0 0 -2 2v1.874h2z"/><path d="m36.241 49.65a3.442 3.442 0 0 0 2.53 1.153h.158a3.968 3.968 0 0 0 2.778-1.1l11.073-11.07a7 7 0 1 0 -4.111-9.6 4.993 4.993 0 0 0 -4.669 4.967v2.586l-4.943 4.943-5.307-6.172a.984.984 0 0 0 -.75-.357h-27a4 4 0 0 0 -4 4v22a1 1 0 0 0 1 1h58a1 1 0 0 0 1-1v-4a.994.994 0 0 0 -.3-.713 2.964 2.964 0 0 0 -1.919-4.171 2.941 2.941 0 0 0 0-2.232 2.993 2.993 0 0 0 -.781-5.884h-6a2.99 2.99 0 0 0 -2.78 4.116 2.983 2.983 0 0 0 0 5.768 2.877 2.877 0 0 0 -.036 2.116h-16.184v-9.15zm13.859-18.65a5.016 5.016 0 0 1 3.9-3.9v1.9h2v-1.9a5.016 5.016 0 0 1 3.9 3.9h-1.9v2h1.9a5.016 5.016 0 0 1 -3.9 3.9v-1.9h-2v1.9a5.016 5.016 0 0 1 -3.9-3.9h1.9v-2zm-4.1 3a3.006 3.006 0 0 1 2-2.829v.829a6.991 6.991 0 0 0 2.914 5.672l-1.914 1.914-3-3zm-12 4.7 4.241 4.947a1 1 0 0 0 .72.349.985.985 0 0 0 .746-.292l5.293-5.29 2.586 2.586-7.293 7.293a2.009 2.009 0 0 1 -1.445.512 1.5 1.5 0 0 1 -1.067-.43l-3.781-4.726zm-8.388-1.7-1.121 3.365-.374-3.365zm1.388 2.163v10.257l-4.223 2.413zm-9.117-2.163-.374 3.365-1.121-3.365zm-2.883 2.163 4.223 12.67-4.223-2.413zm-7 20.837h-4v-21a2 2 0 0 1 2-2h2zm12 0h-10v-23h3v13a1 1 0 0 0 .5.868l6.5 3.712zm-.982-15.108.882-7.892h2.21l.877 7.892-1.987 5.945zm12.982 15.108h-10v-5.42l6.5-3.712a1 1 0 0 0 .5-.868v-13h3zm28-5a1 1 0 0 1 -1 1h-6a1 1 0 0 1 0-2h6a1 1 0 0 1 1 1zm-3-9h2a1 1 0 0 1 0 2h-2zm1 5a1 1 0 0 1 -1 1h-3v-2h3a1 1 0 0 1 1 1zm-5-5h2v2h-2a1 1 0 0 1 0-2zm-3 5a1 1 0 0 1 1-1h1v2h-1a1 1 0 0 1 -1-1zm10 7v2h-26v-2z"/><path d="m54 31h2v2h-2z"/></g></svg>