<svg height="512" viewBox="0 0 64 64" width="512" xmlns="http://www.w3.org/2000/svg"><g id="Filled_outline" data-name="Filled outline"><path d="m23 15h18v18h-18z" fill="#ffd782"/><path d="m19 37h26v24h-26z" fill="#195c85"/><path d="m23 19a0 0 0 0 1 0 0v8a0 0 0 0 1 0 0 4 4 0 0 1 -4-4 4 4 0 0 1 4-4z" fill="#f9bb4b"/><path d="m45 19a0 0 0 0 1 0 0v8a0 0 0 0 1 0 0 4 4 0 0 1 -4-4 4 4 0 0 1 4-4z" fill="#f9bb4b" transform="matrix(-1 0 0 -1 86 46)"/><path d="m23 11h22a2 2 0 0 1 2 2 2 2 0 0 1 -2 2h-22a0 0 0 0 1 0 0v-4a0 0 0 0 1 0 0z" fill="#195c85"/><path d="m27 3h10a4 4 0 0 1 4 4v4a0 0 0 0 1 0 0h-18a0 0 0 0 1 0 0v-4a4 4 0 0 1 4-4z" fill="#4f97d5"/><path d="m55 16-4-4a2.121 2.121 0 0 1 3-3l1 1v-2.83a3.114 3.114 0 0 1 2.839-3.17 3 3 0 0 1 3.161 3v11h-6z" fill="#ffd782"/><path d="m61 18v14l-16 14v-9l10-8v-11z" fill="#4f97d5"/><path d="m9 16 4-4a2.121 2.121 0 0 0 -3-3l-1 1v-2.83a3.114 3.114 0 0 0 -2.839-3.17 3 3 0 0 0 -3.161 3v11h6z" fill="#ffd782"/><path d="m3 18v14l16 14v-9l-10-8v-11z" fill="#4f97d5"/><rect fill="#dd3e46" height="4" rx="2" width="10" x="14" y="57"/><rect fill="#b11e48" height="4" rx="2" width="10" x="9" y="53"/><rect fill="#dd3e46" height="4" rx="2" width="10" x="14" y="49"/><path d="m3 57h5a2 2 0 0 1 2 2 2 2 0 0 1 -2 2h-5a0 0 0 0 1 0 0v-4a0 0 0 0 1 0 0z" fill="#2d75bb"/><path d="m3 53h6v4h-6z" fill="#4f97d5"/><path d="m3 49h5a2 2 0 0 1 2 2 2 2 0 0 1 -2 2h-5a0 0 0 0 1 0 0v-4a0 0 0 0 1 0 0z" fill="#2d75bb"/><rect fill="#8ec13f" height="4" rx="2" width="8" x="24" y="57"/><rect fill="#55b56a" height="4" rx="2" width="8" x="24" y="53"/><rect fill="#8ec13f" height="4" rx="2" width="8" x="24" y="49"/><rect fill="#55b56a" height="4" rx="2" width="8" x="23" y="45"/><circle cx="37" cy="51" fill="#f9bb4b" r="5"/><circle cx="45" cy="56" fill="#ffd782" r="5"/><rect fill="#ffd782" height="4" rx="2" width="8" x="53" y="57"/><rect fill="#f9bb4b" height="4" rx="2" width="8" x="50" y="53"/><rect fill="#ffd782" height="4" rx="2" width="8" x="53" y="49"/><rect fill="#f9bb4b" height="4" rx="2" width="8" x="50" y="45"/><path d="m28 37h8a0 0 0 0 1 0 0v1a4 4 0 0 1 -4 4 4 4 0 0 1 -4-4v-1a0 0 0 0 1 0 0z" fill="#ffd782"/><path d="m26 18h2v2h-2z"/><path d="m36 18h2v2h-2z"/><path d="m31 21h2v4h-2z"/><path d="m37 2h-10a5.006 5.006 0 0 0 -5 5v11.1a5 5 0 0 0 0 9.8v5.1a1 1 0 0 0 1 1h18a1 1 0 0 0 1-1v-5.1a5 5 0 0 0 0-9.8v-2.1h3a3 3 0 0 0 0-6h-3v-3a5.006 5.006 0 0 0 -5-5zm-15 23.829a3 3 0 0 1 0-5.658zm2-18.829a3 3 0 0 1 3-3h10a3 3 0 0 1 3 3v3h-16zm16 25h-16v-16h16zm4-9a3.006 3.006 0 0 1 -2 2.829v-5.658a3.006 3.006 0 0 1 2 2.829zm1-11a1 1 0 0 1 0 2h-21v-2z"/><path d="m32 30a6.006 6.006 0 0 0 6-6h-2a4 4 0 0 1 -8 0h-2a6.006 6.006 0 0 0 6 6z"/><path d="m29 6h6v2h-6z"/><path d="m57.786 3.005a4.089 4.089 0 0 0 -3.786 4.165v.591a3.189 3.189 0 0 0 -3.707.532 3.122 3.122 0 0 0 0 4.414l3.707 3.707v12.106l-9.352 7.48h-25.3l-9.348-7.48v-12.106l3.707-3.707a3.122 3.122 0 0 0 0-4.414 3.193 3.193 0 0 0 -3.707-.532v-.591a4.09 4.09 0 0 0 -3.787-4.165 4 4 0 0 0 -4.213 3.995v25a1 1 0 0 0 .342.753l15.658 13.701v1.546h-2a3 3 0 0 0 -3 3 2.966 2.966 0 0 0 .184 1h-2.184c-.065 0-.126.015-.19.019a2.973 2.973 0 0 0 .19-1.019 3 3 0 0 0 -3-3h-5a1 1 0 0 0 -1 1v12a1 1 0 0 0 1 1h5a3 3 0 0 0 3-3 2.973 2.973 0 0 0 -.19-1.019c.064 0 .125.019.19.019h2.184a2.966 2.966 0 0 0 -.184 1 3 3 0 0 0 3 3h29a6.009 6.009 0 0 0 5.747-4.283 2.969 2.969 0 0 0 1.253.283h.184a2.966 2.966 0 0 0 -.184 1 3 3 0 0 0 3 3h4a3 3 0 0 0 0-6h-.184a2.809 2.809 0 0 0 0-2h.184a3 3 0 0 0 0-6h-.184a2.966 2.966 0 0 0 .184-1 3 3 0 0 0 -3-3h-4a3 3 0 0 0 0 6h.184a2.809 2.809 0 0 0 0 2h-.184a2.977 2.977 0 0 0 -1.964.75 6.005 6.005 0 0 0 -4.036-2.66v-3.636l15.658-13.7a1 1 0 0 0 .342-.754v-25a4 4 0 0 0 -4.214-3.995zm-53.786 50.995h4v2h-4zm4 6h-4v-2h4a1 1 0 0 1 0 2zm0-8h-4v-2h4a1 1 0 0 1 0 2zm5 4h-2a1 1 0 0 1 0-2h2zm43 0h-1v-2h1a1 1 0 0 1 0 2zm3 2a1 1 0 0 1 0 2h-1v-2zm-4-12h1a1 1 0 0 1 0 2h-1zm0 4h4a1 1 0 0 1 0 2h-4a1 1 0 0 1 0-2zm0 8h1v2h-1a1 1 0 0 1 0-2zm-3-10a1 1 0 0 1 0-2h1v2zm0 6h1v2h-1a1 1 0 0 1 0-2zm-17-16a3 3 0 0 1 -6 0zm-31-31a2 2 0 0 1 2.108-2 2.119 2.119 0 0 1 1.892 2.17v2.83a1 1 0 0 0 1.707.707l1-1a1.148 1.148 0 0 1 1.586 0 1.123 1.123 0 0 1 0 1.586l-4 4a1 1 0 0 0 -.293.707v1h-4zm0 24.546v-12.546h4v10a1 1 0 0 0 .375.781l9.625 7.699v6.32zm12 18.454h1v2h-1a1 1 0 0 1 0-2zm-1 4h2a1 1 0 0 1 0 2h-2zm4 6h-3a1 1 0 0 1 0-2h3zm0-10h3a1 1 0 0 1 0 2h-3zm3 10h-1v-2h1a1 1 0 0 1 0 2zm1.319-3.681a2.961 2.961 0 0 0 -1.319-.319h-2.184a2.809 2.809 0 0 0 0-2h2.184a2.961 2.961 0 0 0 1.319-.319 2.886 2.886 0 0 0 0 2.638zm.681-9.319a1 1 0 0 1 1-1h1v2h-1a1 1 0 0 1 -1-1zm3 13h-1a1 1 0 0 1 0-2h1zm0-4h-1a1 1 0 0 1 0-2h1zm3 4h-1v-2h1a1 1 0 0 1 0 2zm0-4h-1v-2h1a1 1 0 0 1 0 2zm0-4h-4a1 1 0 0 1 0-2h4a1 1 0 0 1 0 2zm-2-4v-2h1a1 1 0 0 1 0 2zm4.816 12a2.908 2.908 0 0 0 -.6-3 2.968 2.968 0 0 0 .737-1.579 5.95 5.95 0 0 0 6.078 1.218 5.971 5.971 0 0 0 1.509 3.361zm7.724-8a6 6 0 0 0 -1.287 2.284 3.94 3.94 0 0 1 -1.253.574v-1.858h-2v1.858a3.991 3.991 0 0 1 -2.858-2.858h1.858v-2h-1.858a3.991 3.991 0 0 1 2.858-2.858v1.858h2v-1.858a3.991 3.991 0 0 1 2.858 2.858h-1.858v2zm-3.54-7a6 6 0 0 0 -5.18 2.987 2.972 2.972 0 0 0 .18-.987 3 3 0 0 0 -3-3h-4a3 3 0 0 0 -3 3 2.973 2.973 0 0 0 .19 1.019c-.064 0-.125-.019-.19-.019h-2v-10h7a5 5 0 0 0 10 0h7v12.09a5.967 5.967 0 0 0 -1.035.273 6.007 6.007 0 0 0 -5.965-5.363zm11.858 10h-1.858v2h1.858a3.991 3.991 0 0 1 -2.858 2.858v-1.858h-2v1.858a3.991 3.991 0 0 1 -2.858-2.858h1.858v-2h-1.858a3.991 3.991 0 0 1 2.858-2.858v1.858h2v-1.858a3.991 3.991 0 0 1 2.858 2.858zm11.142-23.454-14 12.254v-6.32l9.625-7.7a1 1 0 0 0 .375-.78v-10h4zm0-14.546h-4v-1a1 1 0 0 0 -.293-.707l-4-4a1.123 1.123 0 0 1 0-1.586 1.148 1.148 0 0 1 1.586 0l1 1a1 1 0 0 0 1.707-.707v-2.83a2.119 2.119 0 0 1 1.891-2.17 2 2 0 0 1 2.109 2z"/></g></svg>