<svg height="512" viewBox="0 0 64 64" width="512" xmlns="http://www.w3.org/2000/svg"><g id="Filled_outline" data-name="Filled outline"><path d="m30 17a9 9 0 0 0 -9 9 8.721 8.721 0 0 0 1 4l-3 7 7-2h4a9 9 0 0 0 0-18z" fill="#fcf05a"/><path d="m43 13h18v20h-18z" fill="#ffd782"/><path d="m46 18h2v2h-2z" fill="#394d5c"/><path d="m49 3h6a6 6 0 0 1 6 6v4a0 0 0 0 1 0 0h-18a0 0 0 0 1 0 0v-4a6 6 0 0 1 6-6z" fill="#195c85"/><path d="m37 9h6a0 0 0 0 1 0 0v4a0 0 0 0 1 0 0h-10a0 0 0 0 1 0 0 4 4 0 0 1 4-4z" fill="#4f97d5"/><path d="m43 40v21h18v-24h-15a3 3 0 0 0 -3 3z" fill="#195c85"/><path d="m49 38a4.242 4.242 0 0 1 0 6l-8 7-6-6 8-7a4.242 4.242 0 0 1 6 0z" fill="#4f97d5"/><path d="m15 55v-32l8-8v-12h-8-12v58h26v-6z" fill="#4f97d5"/><path d="m7 33h4v8h-4z" fill="#ffd782"/><path d="m11 41 4 12-4 1-4-13z" fill="#f9bb4b"/><circle cx="9" cy="30" fill="#da1c4b" r="4"/><path d="m40 50-5 5h-16v-4l4-3 4 3h4l5-5z" fill="#ffd782"/><path d="m3 3h20v12h-20z" fill="#2d75bb"/><circle cx="27" cy="28" fill="#da1c4b" r="2"/><circle cx="33" cy="28" fill="#da1c4b" r="2"/><path d="m57 9h4a0 0 0 0 1 0 0v4a0 0 0 0 1 0 0h-4a2 2 0 0 1 -2-2 2 2 0 0 1 2-2z" fill="#4f97d5"/><path d="m43 52h4v9h-4z" fill="#4f97d5"/><path d="m53 13v6a3 3 0 0 1 3 3h5v-9z" fill="#143441"/><circle cx="11" cy="53" fill="#87cee9" r="4"/><path d="m46 18h2v2h-2z"/><path d="m55 2h-6a6.727 6.727 0 0 0 -6.931 6h-5.069a5.006 5.006 0 0 0 -5 5 1 1 0 0 0 1 1h9v19a1 1 0 0 0 1 1h18a1 1 0 0 0 1-1v-24a6.77 6.77 0 0 0 -7-7zm-13 10h-7.829a3.006 3.006 0 0 1 2.829-2h5zm2-3a4.734 4.734 0 0 1 5-5h6a4.675 4.675 0 0 1 4.914 4h-2.914a3 3 0 0 0 -3 3 2.966 2.966 0 0 0 .184 1h-10.184zm16 23h-16v-3.28l5.316-1.772-.632-1.9-4.684 1.565v-12.613h8v5a1 1 0 0 0 1 1 2 2 0 0 1 0 4v2a4.008 4.008 0 0 0 3.874-3h3.126zm0-11h-3.126a4.015 4.015 0 0 0 -2.874-2.873v-4.127h6zm0-9h-3a1 1 0 0 1 0-2h3z"/><path d="m61 36h-13.5a5.1 5.1 0 0 0 -5.16 1.247l-8 7a1 1 0 0 0 -.048 1.46l.293.293-4 4h-3.252l-3.733-2.8a1 1 0 0 0 -1.2 0l-4 3a1 1 0 0 0 -.4.8v3h-2v-30.586l7.707-7.707a1 1 0 0 0 .293-.707v-12a1 1 0 0 0 -1-1h-20a1 1 0 0 0 -1 1v58a1 1 0 0 0 1 1h26a1 1 0 0 0 1-1v-5h5a1 1 0 0 0 .707-.293l4.293-4.293.293.293a1 1 0 0 0 1.366.046l.341-.3v9.547a1 1 0 0 0 1 1h18a1 1 0 0 0 1-1v-24a1 1 0 0 0 -1-1zm-57-32h18v10h-18zm24 56h-24v-44h16.586l-6.293 6.293a1 1 0 0 0 -.293.707v23.831l-2-5.994v-6.863a5 5 0 1 0 -6 0v7.026a1.808 1.808 0 0 0 .044.294l2.305 7.484a4.987 4.987 0 1 0 6.629 7.222h.022 13zm-20-25.1a5 5 0 0 0 2 0v5.1h-2zm-2-4.9a3 3 0 1 1 3 3 3 3 0 0 1 -3-3zm4.279 12 2.072 6.209a4.947 4.947 0 0 0 -1.351-.209 4.939 4.939 0 0 0 -.774.078l-1.872-6.078zm.721 8a3 3 0 1 1 -3 3 3 3 0 0 1 3-3zm23.586 4h-14.586v-2.5l3-2.25 3.4 2.55a1 1 0 0 0 .6.2h4a1 1 0 0 0 .707-.293l4.293-4.293 2.586 2.586zm6.459-4.368-4.582-4.583 7.244-6.342a3.321 3.321 0 0 1 4.586 0 3.236 3.236 0 0 1 .048 4.54zm4.955 10.368h-2v-7h2zm14 0h-12v-8a1 1 0 0 0 -1-1h-3v-1.3l5.707-5a5.242 5.242 0 0 0 .577-6.7h9.716z"/><path d="m30 28a2.986 2.986 0 0 0 -.844-2.077l.844-1.687.844 1.687a2.994 2.994 0 1 0 2.156-.923 2.9 2.9 0 0 0 -.363.037l-1.019-2.037h2.382v-2h-8v2h2.382l-1.019 2.037a2.9 2.9 0 0 0 -.363-.037 3 3 0 1 0 3 3zm3-1a1 1 0 1 1 -1 1 1 1 0 0 1 1-1zm-7 1a1 1 0 1 1 1 1 1 1 0 0 1 -1-1z"/><path d="m18.25 37.661a1 1 0 0 0 .75.339 1.036 1.036 0 0 0 .275-.038l6.865-1.962h3.86a10 10 0 1 0 -10-10 9.508 9.508 0 0 0 .9 4.024l-2.821 6.582a1 1 0 0 0 .171 1.055zm4.669-7.267a1 1 0 0 0 -.027-.846 7.714 7.714 0 0 1 -.892-3.548 8 8 0 1 1 8 8h-4a1.02 1.02 0 0 0 -.275.038l-4.977 1.423z"/><path d="m46 8h2v2h-2z"/><path d="m50 6h2v2h-2z"/></g></svg>