<svg height="512" viewBox="0 0 64 64" width="512" xmlns="http://www.w3.org/2000/svg"><g id="Filled_outline" data-name="Filled outline"><path d="m38 15a11.528 11.528 0 0 0 1-4 8 8 0 1 0 -8 8h10z" fill="#8ec13f"/><path d="m45 9h12v10h-12z" fill="#ffd782" transform="matrix(-1 0 0 -1 102 28)"/><path d="m45 23h12v16h-12z" fill="#195c85" transform="matrix(-1 0 0 -1 102 62)"/><path d="m41 39h16v6h-16z" fill="#4f97d5" transform="matrix(-1 0 0 -1 98 84)"/><path d="m57 29v16h-16v4h16a4 4 0 0 0 4-4v-16a2 2 0 0 0 -2-2 2 2 0 0 0 -2 2z" fill="#143441"/><path d="m37 39h4a0 0 0 0 1 0 0v14a4 4 0 0 1 -4 4 0 0 0 0 1 0 0v-18a0 0 0 0 1 0 0z" fill="#ffd782" transform="matrix(-1 0 0 -1 78 96)"/><path d="m33 57h8v4h-8z" fill="#394d5c" transform="matrix(-1 0 0 -1 74 118)"/><circle cx="47" cy="59" fill="#143441" r="2"/><circle cx="56" cy="59" fill="#143441" r="2"/><path d="m53 53v-4h-4v4a4 4 0 0 0 -4 4h12a4 4 0 0 0 -4-4z" fill="#394d5c"/><path d="m62 9a2.047 2.047 0 0 0 -1-2v-.915a3.058 3.058 0 0 0 -2.852-3.085 2.667 2.667 0 0 0 -2.148 1 2.5 2.5 0 0 0 -4 0 2.5 2.5 0 0 0 -4 0 3.211 3.211 0 0 0 -2-1 3 3 0 0 0 -3 3.161 3.114 3.114 0 0 0 3.17 2.839h6.83v6h7a2 2 0 0 0 2-2z" fill="#394d5c"/><path d="m13 31v-12l10-10v-6h-20v58h19v-26h2a4 4 0 0 0 4-4z" fill="#4f97d5"/><path d="m22 52h11v9h-11z" fill="#87cee9"/><path d="m22 48a4 4 0 0 1 4 4 0 0 0 0 1 0 0h-4a0 0 0 0 1 0 0v-4a0 0 0 0 1 0 0z" fill="#da1c4b"/><path d="m28 49a2 2 0 0 1 2 2v1a0 0 0 0 1 0 0h-4a0 0 0 0 1 0 0v-1a2 2 0 0 1 2-2z" fill="#b11e48"/><circle cx="31" cy="48" fill="#da1c4b" r="2"/><path d="m9 19h4v12h-4z" fill="#ffd782"/><circle cx="11" cy="17" fill="#da1c4b" r="3"/><rect fill="#ffd782" height="4" rx="2" width="23" x="27" y="23"/><path d="m26 27a2 2 0 0 1 2 2v2a0 0 0 0 1 0 0h-4a0 0 0 0 1 0 0v-2a2 2 0 0 1 2-2z" fill="#da1c4b"/><path d="m13 27h2a4 4 0 0 1 4 4 0 0 0 0 1 0 0h-6a0 0 0 0 1 0 0v-4a0 0 0 0 1 0 0z" fill="#f9bb4b"/><path d="m3 3h20v6h-20z" fill="#2d75bb"/><path d="m41 23h7a2 2 0 0 1 2 2 2 2 0 0 1 -2 2h-7a0 0 0 0 1 0 0v-4a0 0 0 0 1 0 0z" fill="#4f97d5"/><path d="m3 55h19v6h-19z" fill="#2d75bb"/><circle cx="10" cy="31" fill="#87cee9" r="3"/><path d="m48 12h2v2h-2z"/><path d="m59 26a2.966 2.966 0 0 0 -1 .184v-3.184a1 1 0 0 0 -1-1h-28a3 3 0 0 0 -3 3 2.973 2.973 0 0 0 .19 1.019c-.064 0-.125-.019-.19-.019a3 3 0 0 0 -3 3v1h-3.1a5.009 5.009 0 0 0 -4.9-4h-1v-6.382a4.027 4.027 0 0 0 .479-.683l7.541-7.541a9 9 0 0 0 8.98 8.606h10a1 1 0 0 0 .8-1.6l-2.656-3.542a12.109 12.109 0 0 0 .856-3.858 8.994 8.994 0 0 0 -16-5.645v-2.355a1 1 0 0 0 -1-1h-20a1 1 0 0 0 -1 1v58a1 1 0 0 0 1 1h38a1 1 0 0 0 1-1v-11h6v2.1a5.008 5.008 0 0 0 -4 4.9.994.994 0 0 0 .3.713 3 3 0 1 0 5.516.287h3.368a2.966 2.966 0 0 0 -.184 1 3 3 0 1 0 4.979-2.237 5 5 0 0 0 -3.979-4.663v-2.1h3a5.006 5.006 0 0 0 5-5v-16a3 3 0 0 0 -3-3zm-27-20v-1.92a7.006 7.006 0 0 1 6 6.92 10.6 10.6 0 0 1 -.908 3.582 1 1 0 0 0 .108 1.018l1.8 2.4h-7v-2a3 3 0 0 0 0-6h-2a1 1 0 0 1 0-2h4v-2zm-2-1.92v1.92a3 3 0 0 0 0 6h2a1 1 0 0 1 0 2h-4v2h2v1.92a6.991 6.991 0 0 1 0-13.84zm20.816 19.92h5.184v14h-10v-10h2a3 3 0 0 0 3-3 2.966 2.966 0 0 0 -.184-1zm5.184 16v4h-14v-4zm-14-16h6a1 1 0 0 1 0 2h-6zm-13 0h11v2h-11a1 1 0 0 1 0-2zm-4 5a1 1 0 0 1 2 0v1h-2zm-10-1a3.006 3.006 0 0 1 2.829 2h-3.829v-2zm-11-24h18v4h-18zm17 56h-17v-4h17zm0-25v19h-17v-44h16.586l-5.793 5.792a3.987 3.987 0 1 0 -6.793 3.826v7.938a3.989 3.989 0 1 0 5.858 4.444h12.971a3.006 3.006 0 0 1 -2.829 2h-2a1 1 0 0 0 -1 1zm-11-8v-6.142a3.592 3.592 0 0 0 2 0v6.7a3.959 3.959 0 0 0 -2-.558zm2 4a2 2 0 1 1 -2-2 2 2 0 0 1 2 2zm-1-12a2 2 0 1 1 2-2 2 2 0 0 1 -2 2zm12 30.171a3.013 3.013 0 0 1 1.829 1.829h-1.829zm9 10.829h-9v-7h9zm-5-9a1 1 0 0 1 2 0zm3-3a1 1 0 1 1 1 1 1 1 0 0 1 -1-1zm10 12h-6v-2h6zm0-4h-2v-13a3.006 3.006 0 0 1 2-2.829zm1-18a5.006 5.006 0 0 0 -5 5v13h-2v-4a1 1 0 0 0 -1-1h-2a3 3 0 1 0 -3-3 3 3 0 0 0 -2.123.882 4.985 4.985 0 0 0 -2.877-1.782v-11.1h1a5.006 5.006 0 0 0 5-5v-2a2.973 2.973 0 0 0 -.19-1.019c.064 0 .125.019.19.019h15v10zm6 22a1 1 0 1 1 1-1 1 1 0 0 1 -1 1zm10-1a1 1 0 1 1 -1-1 1 1 0 0 1 1 1zm-1.171-3h-9.658a3.006 3.006 0 0 1 2.829-2 1 1 0 0 0 1-1v-3h2v3a1 1 0 0 0 1 1 3.006 3.006 0 0 1 2.829 2zm4.171-11a3 3 0 0 1 -3 3h-15v-2h15a1 1 0 0 0 1-1v-16a1 1 0 0 1 2 0z"/><path d="m62 6.085a4.04 4.04 0 0 0 -3.8-4.08 3.246 3.246 0 0 0 -2.2.671 3.3 3.3 0 0 0 -4 0 3.3 3.3 0 0 0 -4.027.021 3.478 3.478 0 0 0 -1.973-.697 4.017 4.017 0 0 0 -2.9 1.246 3.942 3.942 0 0 0 .9 6.164v9.59a1 1 0 0 0 1 1h12a1 1 0 0 0 1-1v-3h2a3 3 0 0 0 3-3v-4a3.274 3.274 0 0 0 -1-2.543zm-6 11.915h-10v-8h6v5a1 1 0 0 0 1 1h3zm5-5a1 1 0 0 1 -1 1h-6v-5a1 1 0 0 0 -1-1h-6.83a2.119 2.119 0 0 1 -2.17-1.891 2 2 0 0 1 2-2.109 2.563 2.563 0 0 1 1.331.743 1 1 0 0 0 1.338 0l.15-.137c.458-.42.681-.606 1.181-.606s.723.186 1.181.606l.15.137a1 1 0 0 0 1.338 0l.15-.137c.458-.42.681-.606 1.181-.606s.723.186 1.181.606l.15.137a1 1 0 0 0 1.338 0l.151-.138c.458-.42.685-.636 1.28-.6a2.068 2.068 0 0 1 1.9 2.08v.915a1 1 0 0 0 .614.923c.228.1.386.538.386 1.077z"/><path d="m25.5 40.379h2v4.243h-2z" transform="matrix(.707 -.707 .707 .707 -22.29 31.186)"/><path d="m28.5 36.964h2v7.071h-2z" transform="matrix(.707 -.707 .707 .707 -19.997 32.722)"/></g></svg>