<svg height="512" viewBox="0 0 64 64" width="512" xmlns="http://www.w3.org/2000/svg"><g id="Filled_outline" data-name="Filled outline"><path d="m45 61 4-14v-10h-22v10l4 14z" fill="#f98c96"/><path d="m47 33h-18v-17l10-4 8 4z" fill="#ffd782"/><path d="m29 28a4 4 0 0 1 0-8z" fill="#f9bb4b"/><path d="m47 20a4 4 0 0 1 0 8z" fill="#f9bb4b"/><path d="m47 16-8-4-10 4v-9a4 4 0 0 1 4-4h14z" fill="#394d5c"/><path d="m47 3h4v6h-4z" fill="#db527d"/><path d="m51 3a8 8 0 0 1 8 8v10a0 0 0 0 1 0 0h-2a6 6 0 0 1 -6-6v-12a0 0 0 0 1 0 0z" fill="#394d5c"/><path d="m19 37v-12a2 2 0 0 0 -2-2h-8a2 2 0 0 0 -2 2 2 2 0 0 0 2 2h4v14a2 2 0 0 0 2 2h12v-6z" fill="#db527d"/><path d="m5 19h16v4h-16z" fill="#d3843d"/><path d="m13 3a8 8 0 0 1 8 8v8a0 0 0 0 1 0 0h-16a0 0 0 0 1 0 0v-8a8 8 0 0 1 8-8z" fill="#87cee9"/><path d="m9 15h4v4h-4z" fill="#f4f4e6"/><path d="m10.879 9.879h4.243v4.243h-4.243z" fill="#f4f4e6" transform="matrix(.707 -.707 .707 .707 -4.678 12.707)"/><path d="m13 15h4v4h-4z" fill="#fff"/><path d="m33 37 5 5 5-5z" fill="#ffd782"/><path d="m32 37v3c0 3.131 3.786 4.214 6 2l-5-5z" fill="#f4f4e6"/><path d="m44 37v3c0 3.131-3.786 4.214-6 2l5-5z" fill="#f4f4e6"/><path d="m49 37a6 6 0 0 1 6 6v18a0 0 0 0 1 0 0h-6a0 0 0 0 1 0 0v-24a0 0 0 0 1 0 0z" fill="#db527d"/><path d="m32 19h2v2h-2z"/><path d="m42 19h2v2h-2z"/><path d="m37 21h2v4h-2z"/><path d="m34 28h8v2h-8z"/><path d="m60 11a9.01 9.01 0 0 0 -9-9h-18a5.006 5.006 0 0 0 -5 5v12.1a5 5 0 0 0 0 9.8v4.1a1 1 0 0 0 1 1h18a1 1 0 0 0 1-1v-4.1a5 5 0 0 0 0-9.8v-9.1h2v5a7.009 7.009 0 0 0 7 7h2a1 1 0 0 0 1-1zm-32 15.829a3 3 0 0 1 0-5.658zm18 5.171h-16v-15.323l8.954-3.577 7.046 3.518zm0-17.618-6.553-3.277a1.01 1.01 0 0 0 -.818-.034l-8.629 3.452v-7.523a3 3 0 0 1 3-3h5v5h2v-5h6zm4 9.618a3.006 3.006 0 0 1 -2 2.829v-5.658a3.006 3.006 0 0 1 2 2.829zm0-16h-2v-4h2zm8 11.063a5.531 5.531 0 0 1 -2-4.063v-4h-2v4a7.171 7.171 0 0 0 2 4.9 5.008 5.008 0 0 1 -4-4.9v-10.929a7.011 7.011 0 0 1 6 6.929z"/><path d="m37 46h2v2h-2z"/><path d="m37 50h2v2h-2z"/><path d="m22 23v-12a9 9 0 0 0 -18 0v12a1 1 0 0 0 1 1h1.184a2.966 2.966 0 0 0 -.184 1 3 3 0 0 0 3 3h3v13a3 3 0 0 0 3 3h11v3a1.007 1.007 0 0 0 .038.274l4 14a1 1 0 0 0 .962.726h14a1 1 0 0 0 .962-.726l2.038-7.133v6.859a1 1 0 0 0 1 1h6a1 1 0 0 0 1-1v-18a7.009 7.009 0 0 0 -7-7h-29v-11a2.966 2.966 0 0 0 -.184-1h1.184a1 1 0 0 0 1-1zm28 15.1a5.008 5.008 0 0 1 4 4.9v17h-4zm-9.414-.1-2.586 2.586-2.586-2.586zm2.414.414v1.586a2.035 2.035 0 0 1 -1.275 1.979 2.662 2.662 0 0 1 -2.2-.095zm-10 0 3.47 3.47a2.674 2.674 0 0 1 -2.2.095 2.035 2.035 0 0 1 -1.27-1.979zm-5-.414h3v2a4 4 0 0 0 2.51 3.827 4.519 4.519 0 0 0 1.74.345 4.831 4.831 0 0 0 2.75-.883 4.831 4.831 0 0 0 2.75.883 4.519 4.519 0 0 0 1.74-.345 4 4 0 0 0 2.51-3.827v-2h3v8.86l-3.754 13.14h-2.066l.806-4.836-1.972-.328-.861 5.164h-4.306l-.861-5.164-1.972.328.806 4.836h-2.066l-3.754-13.14zm-2 0v4h-11a1 1 0 0 1 -1-1v-14a1 1 0 0 0 -1-1h-4a1 1 0 0 1 0-2h8a1 1 0 0 1 1 1v12a1 1 0 0 0 1 1zm-6-16h-14v-2h14zm-7-8.414-1.586-1.586 1.586-1.586 1.586 1.586zm3 2.414v2h-2v-2zm-4 0v2h-2v-2zm8 2h-2v-3a1 1 0 0 0 -1-1h-1.586l1.293-1.293a1 1 0 0 0 0-1.414l-3-3a1 1 0 0 0 -1.414 0l-3 3a1 1 0 0 0 0 1.414l1.293 1.293h-1.586a1 1 0 0 0 -1 1v3h-2v-7a7 7 0 0 1 14 0z"/></g></svg>