<svg height="512" viewBox="0 0 64 64" width="512" xmlns="http://www.w3.org/2000/svg"><g id="Filled_outline" data-name="Filled outline"><path d="m3 57h58v4h-58z" fill="#55b56a"/><path d="m46 37a3.811 3.811 0 0 0 -4-3h-22a3.811 3.811 0 0 0 -4 3v9h-9v6h15l3 5h23v-6z" fill="#ffd782"/><path d="m37 38c-2.761 0-5 1.239-5 4 0-2.761-2.239-4-5-4a5 5 0 0 0 -5 5v9l3 5h17v-14a5 5 0 0 0 -5-5z" fill="#f98c96"/><path d="m44 34h-26l-1-12v-5a14 14 0 0 1 14-14 14 14 0 0 1 14 14v5z" fill="#394d5c"/><circle cx="36" cy="51" fill="#b11e48" r="6"/><path d="m3 32h8a0 0 0 0 1 0 0v5a4 4 0 0 1 -4 4 4 4 0 0 1 -4-4v-5a0 0 0 0 1 0 0z" fill="#96c3f0"/><path d="m3 36h8a0 0 0 0 1 0 0v1a4 4 0 0 1 -4 4 4 4 0 0 1 -4-4v-1a0 0 0 0 1 0 0z" fill="#fcf05a"/><rect fill="#ffd782" height="6" rx="2" width="6" x="3" y="46"/><path d="m36 30h-10a5 5 0 0 1 -5-5v-10a3.915 3.915 0 0 1 4-4h7a6.608 6.608 0 0 0 3.664-1.109l1.336-.891 4 5v11a5 5 0 0 1 -5 5z" fill="#ffd782"/><path d="m21 23a4 4 0 0 1 0-8z" fill="#f9bb4b"/><path d="m41 15a4 4 0 0 1 0 8z" fill="#f9bb4b"/><path d="m27 23h8a0 0 0 0 1 0 0v1a4 4 0 0 1 -4 4 4 4 0 0 1 -4-4v-1a0 0 0 0 1 0 0z" fill="#dd3e46"/><rect fill="#e33e5c" height="4" rx="2" width="8" x="53" y="53"/><rect fill="#e33e5c" height="4" rx="2" width="8" x="51" y="45"/><rect fill="#b11e48" height="4" rx="2" width="8" x="53" y="49"/><path d="m40 51h4a0 0 0 0 1 0 0v6a0 0 0 0 1 0 0h-6a0 0 0 0 1 0 0v-4a2 2 0 0 1 2-2z" fill="#ffd782"/><path d="m35 50h2v2h-2z"/><path d="m25 14h2v2h-2z"/><path d="m30 16h2v4h-2z"/><path d="m35 14h2v2h-2z"/><path d="m36 24v-1a1 1 0 0 0 -1-1h-8a1 1 0 0 0 -1 1v1a5 5 0 0 0 10 0zm-5 3a3 3 0 0 1 -3-3h6a3 3 0 0 1 -3 3z"/><path d="m59.78 48.116a2.99 2.99 0 0 0 -2.78-4.116h-4a2.993 2.993 0 0 0 -.78 5.884 2.95 2.95 0 0 0 .56 3.116 2.908 2.908 0 0 0 -.6 3h-3.18v-5a.969.969 0 0 0 -.01-.142l-2.006-14.033a4.422 4.422 0 0 0 -1.97-2.955l.986-11.87v-5a15 15 0 0 0 -30 0v5.083l.983 11.787a4.422 4.422 0 0 0 -1.97 2.955.934.934 0 0 0 -.013.175v8h-7v-3.1a5.009 5.009 0 0 0 4-4.9v-5a1 1 0 0 0 -1-1h-8a1 1 0 0 0 -1 1v5a5.009 5.009 0 0 0 4 4.9v3.1h-1a3 3 0 0 0 -3 3v2a3 3 0 0 0 3 3h16.434l1.8 3h-20.234a1 1 0 0 0 -1 1v4a1 1 0 0 0 1 1h58a1 1 0 0 0 1-1v-4a.994.994 0 0 0 -.3-.713 2.935 2.935 0 0 0 -.48-3.287 2.973 2.973 0 0 0 -1.44-4.884zm-55.78-15.116h6v2h-6zm0 4h6a3 3 0 0 1 -6 0zm4 13a1 1 0 0 1 -1 1h-2a1 1 0 0 1 -1-1v-2a1 1 0 0 1 1-1h2a1 1 0 0 1 1 1zm44-3a1 1 0 0 1 1-1h4a1 1 0 0 1 0 2h-4a1 1 0 0 1 -1-1zm4 3v2h-1a1 1 0 0 1 0-2zm-30-19h10a6.006 6.006 0 0 0 6-6v-1.1a4.953 4.953 0 0 0 1.909-.85l-.829 9.95h-24.16l-.832-9.953a4.956 4.956 0 0 0 1.912.853v1.1a6.006 6.006 0 0 0 6 6zm-4-6v-10a2.9 2.9 0 0 1 3-3h7a7.577 7.577 0 0 0 4.219-1.277l.573-.382 3.208 4.01v10.649a4 4 0 0 1 -4 4h-10a4 4 0 0 1 -4-4zm20-3.171v-5.658a3 3 0 0 1 0 5.658zm-11-17.829a13.01 13.01 0 0 1 12.81 10.868 4.98 4.98 0 0 0 -1.81-.768v-.1a1 1 0 0 0 -.219-.625l-4-5a1 1 0 0 0 -1.336-.207l-1.336.891a5.582 5.582 0 0 1 -3.109.941h-7a4.862 4.862 0 0 0 -4.914 4.092 4.983 4.983 0 0 0 -1.9.776 13.01 13.01 0 0 1 12.814-10.868zm-11 12.171v5.658a3 3 0 0 1 0-5.658zm1 26.829v8h-11.184a2.966 2.966 0 0 0 .184-1v-2a2.966 2.966 0 0 0 -.184-1h6.184a1 1 0 0 0 1-1v-8.9a2.858 2.858 0 0 1 3-2.1h22a2.837 2.837 0 0 1 3.01 2.142l1.99 13.929v4.929h-2v-5a1 1 0 0 0 -1-1h-1v-7a6.006 6.006 0 0 0 -6-6 6.2 6.2 0 0 0 -5 2 6.2 6.2 0 0 0 -5-2 6.006 6.006 0 0 0 -6 6zm10.1 7a5.016 5.016 0 0 1 3.9-3.9v1.9h2v-1.9a5.016 5.016 0 0 1 3.9 3.9h-.9a3 3 0 0 0 -3 3v2.886a4.827 4.827 0 0 1 -1 .114 5.009 5.009 0 0 1 -4.9-4h1.9v-2zm7.9 3a1 1 0 0 1 1-1h3v4h-4zm-16-1.277v-8.723a4 4 0 0 1 4-4c1.2 0 4 .292 4 3a1 1 0 0 0 2 0c0-2.708 2.8-3 4-3a4 4 0 0 1 4 4v3.111a6.993 6.993 0 1 0 -9.889 9.889h-5.545zm37 8.277h-56v-2h56zm-1-4h-4a1 1 0 0 1 0-2h4a1 1 0 0 1 0 2zm0-4h-1v-2h1a1 1 0 0 1 0 2z"/></g></svg>