<svg height="512" viewBox="0 0 64 64" width="512" xmlns="http://www.w3.org/2000/svg"><g id="Filled_outline" data-name="Filled outline"><path d="m3 12h58a0 0 0 0 1 0 0v11a29 29 0 0 1 -29 29 29 29 0 0 1 -29-29v-11a0 0 0 0 1 0 0z" fill="#ad6327"/><path d="m7 12h50a0 0 0 0 1 0 0v11a25 25 0 0 1 -25 25 25 25 0 0 1 -25-25v-11a0 0 0 0 1 0 0z" fill="#ffd782"/><path d="m15 12h34a0 0 0 0 1 0 0v11a17 17 0 0 1 -17 17 17 17 0 0 1 -17-17v-11a0 0 0 0 1 0 0z" fill="#55b56a"/><path d="m24 12h16v9h-16z" fill="#ffd782"/><path d="m29 25h6v7h-6z" fill="#f4f4e6"/><path d="m39 25h6v7h-6z" fill="#f4f4e6"/><path d="m19 25h6v7h-6z" fill="#f4f4e6"/><g fill="#e33e5c"><circle cx="32" cy="46" r="2"/><circle cx="13" cy="35" r="2"/><circle cx="51" cy="35" r="2"/><circle cx="55" cy="18" r="2"/><circle cx="9" cy="18" r="2"/></g><path d="m24 12h16v4h-16z" fill="#8ec13f"/><path d="m36 12h4v4h-4z" fill="#c8d952"/><path d="m32 12h4v4h-4z" fill="#8ec13f"/><path d="m28 12h4v4h-4z" fill="#c8d952"/><path d="m24 12h4v4h-4z" fill="#8ec13f"/><path d="m61 11h-58a1 1 0 0 0 -1 1v11a30 30 0 0 0 60 0v-11a1 1 0 0 0 -1-1zm-11 2h6v2.184a2.966 2.966 0 0 0 -1-.184 3 3 0 0 0 0 6 2.966 2.966 0 0 0 1-.184v2.184h-6zm6 5a1 1 0 1 1 -1-1 1 1 0 0 1 1 1zm-.09 7a23.809 23.809 0 0 1 -2.331 8.494 2.991 2.991 0 1 0 -2.843 4.479 24.162 24.162 0 0 1 -6 5.352l-4.392-4.392a18.027 18.027 0 0 0 9.538-13.933zm-3.91 10a1 1 0 1 1 -1-1 1 1 0 0 1 1 1zm-20 8a3 3 0 0 0 -3 3 2.943 2.943 0 0 0 .129.822 23.815 23.815 0 0 1 -8.067-2.47l4.546-4.546a17.707 17.707 0 0 0 12.784 0l4.546 4.546a23.815 23.815 0 0 1 -8.067 2.47 2.943 2.943 0 0 0 .129-.822 3 3 0 0 0 -3-3zm1 3a1 1 0 1 1 -1-1 1 1 0 0 1 1 1zm4-33h2v2h-2zm-4 0h2v2h-2zm-4 0h2v2h-2zm-4 0h2v2h-2zm0 4h14v3h-14zm-9-4h7v8a1 1 0 0 0 1 1h16a1 1 0 0 0 1-1v-8h7v10a15.9 15.9 0 0 1 -2 7.729v-5.729a1 1 0 0 0 -1-1h-6a1 1 0 0 0 -1 1v7a1 1 0 0 0 1 1h5.47a15.958 15.958 0 0 1 -24.94 0h5.47a1 1 0 0 0 1-1v-7a1 1 0 0 0 -1-1h-6a1 1 0 0 0 -1 1v5.729a15.9 15.9 0 0 1 -2-7.729zm25.414 13h2.586v5h-4v-3.586l1.293 1.293 1.414-1.414zm-18.587 5h-2.827v-3.3zm-1.654-5h2.827v3.3zm2.48 12.933-4.392 4.392a24.162 24.162 0 0 1 -6-5.352 2.992 2.992 0 1 0 -2.843-4.479 23.792 23.792 0 0 1 -2.224-7.494h6.077a18.03 18.03 0 0 0 9.382 12.933zm-10.653-2.933a1 1 0 1 1 1-1 1 1 0 0 1 -1 1zm-5-15.184a2.966 2.966 0 0 0 1 .184 3 3 0 0 0 0-6 2.966 2.966 0 0 0 -1 .184v-2.184h6v10c0 .338.032.667.051 1h-6.026c-.013-.332-.025-.665-.025-1zm0-2.816a1 1 0 1 1 1 1 1 1 0 0 1 -1-1zm52 5a28 28 0 0 1 -56 0v-10h2v10a26 26 0 0 0 52 0v-10h2z"/><path d="m29 33h6a1 1 0 0 0 1-1v-7a1 1 0 0 0 -1-1h-6a1 1 0 0 0 -1 1v7a1 1 0 0 0 1 1zm1-7h4v3.586l-1.293-1.293-1.414 1.414 1.293 1.293h-2.586z"/></g></svg>