<svg height="512" viewBox="0 0 64 64" width="512" xmlns="http://www.w3.org/2000/svg"><g id="Filled_outline" data-name="Filled outline"><path d="m31 17a14 14 0 0 0 -28 0 13.507 13.507 0 0 0 10 13v8l6-7a14.479 14.479 0 0 0 12-14z" fill="#8ec13f"/><path d="m9 57-2-21h-4l2 25h25v-4z" fill="#394d5c"/><path d="m10 10h14v14h-14z" fill="#f4f4e6"/><path d="m55 61h-20v-15l6-8h14z" fill="#195c85"/><path d="m46 42a3 3 0 0 1 3 3v6a0 0 0 0 1 0 0h-6a0 0 0 0 1 0 0v-6a3 3 0 0 1 3-3z" fill="#7fcac9"/><path d="m58 38a3 3 0 0 1 3 3v20a0 0 0 0 1 0 0h-6a0 0 0 0 1 0 0v-20a3 3 0 0 1 3-3z" fill="#d3843d"/><path d="m55 32h-13a4.662 4.662 0 0 1 -5-5v-15h18z" fill="#ffd782"/><path d="m50 3h-4a9 9 0 0 0 -9 9h22a9 9 0 0 0 -9-9z" fill="#195c85"/><path d="m47 12v6a3 3 0 0 1 0 6l8 3 4-5v-10z" fill="#143441"/><path d="m43 57h-22l3-5 5 1 14-2h6a6 6 0 0 1 -6 6z" fill="#ffd782"/><path d="m10 25h14a1 1 0 0 0 1-1v-14a1 1 0 0 0 -1-1h-14a1 1 0 0 0 -1 1v14a1 1 0 0 0 1 1zm1-14h12v12h-12z"/><path d="m13 13h2v2h-2z"/><path d="m19 13h2v2h-2z"/><path d="m13 19h2v2h-2z"/><path d="m19 19h2v2h-2z"/><path d="m16 16h2v2h-2z"/><path d="m12 30.729v7.271a1 1 0 0 0 .653.938 1.025 1.025 0 0 0 .347.062 1 1 0 0 0 .759-.35l5.768-6.728a15.4 15.4 0 0 0 12.473-14.922 15 15 0 0 0 -30 0 14.392 14.392 0 0 0 10 13.729zm5-26.729a13.015 13.015 0 0 1 13 13 13.553 13.553 0 0 1 -11.164 13.014.993.993 0 0 0 -.595.336l-4.241 4.95v-5.3a1 1 0 0 0 -.715-.958 12.489 12.489 0 0 1 -9.285-12.042 13.015 13.015 0 0 1 13-13z"/><path d="m58 37a3.959 3.959 0 0 0 -2.084.6 1 1 0 0 0 -.916-.6h-14a1 1 0 0 0 -.8.4l-6 8a1 1 0 0 0 -.2.6v5.275l-4.972.71-4.828-.965a.991.991 0 0 0 -1.053.465l-2.713 4.515h-10.525l-1.909-20.095a1 1 0 0 0 -1-.905h-4a1 1 0 0 0 -1 1.08l2 25a1 1 0 0 0 1 .92h25a1 1 0 0 0 1-1v-3h3v3a1 1 0 0 0 1 1h26a1 1 0 0 0 1-1v-20a4 4 0 0 0 -4-4zm-29 23h-23.077l-1.84-23h2.008l1.914 20.1a1 1 0 0 0 .995.9h20zm-6.233-4 1.733-2.881 4.309.861a.983.983 0 0 0 .338.01l13.924-1.99h4.829a5.008 5.008 0 0 1 -4.9 4zm21.233-6v-5a2 2 0 0 1 4 0v5zm10 10h-18v-2h7a7.009 7.009 0 0 0 7-7v-6a4 4 0 0 0 -8 0v5.132l-6 .857v-4.656l5.5-7.333h12.5zm6 0h-4v-19a2 2 0 0 1 4 0z"/><path d="m50 2h-4a10.011 10.011 0 0 0 -10 10v15a5.68 5.68 0 0 0 6 6h13a1 1 0 0 0 1-1v-4.648l3.781-4.727a1 1 0 0 0 .219-.625v-10a10.011 10.011 0 0 0 -10-10zm4 29h-12a3.609 3.609 0 0 1 -3.951-3.366l5.058-1.686-.632-1.9-4.475 1.495v-12.543h8v5a1 1 0 0 0 1 1 2 2 0 0 1 0 4 1 1 0 0 0 -.352 1.937l7.352 2.756zm4-9.351-3.328 4.16-4.972-1.864a4 4 0 0 0 -1.7-6.818v-4.127h10zm-19.938-10.649a8.014 8.014 0 0 1 7.938-7h4a8.012 8.012 0 0 1 7.937 7z"/><path d="m40 17h2v2h-2z"/></g></svg>