<svg height="512" viewBox="0 0 64 64" width="512" xmlns="http://www.w3.org/2000/svg"><g id="Filled_outline" data-name="Filled outline"><rect fill="#394d5c" height="48" rx="2" width="58" x="3" y="8"/><path d="m7 12h50v40h-50z" fill="#55b56a"/><path d="m20 38h24v14h-24z" fill="#c8d952"/><path d="m16 16h8v8h-8z" fill="#f4f4e6"/><path d="m28 16h8v8h-8z" fill="#f4f4e6"/><path d="m40 16h8v8h-8z" fill="#f4f4e6"/><g fill="#f9bb4b"><path d="m47 29h6v4h-6z"/><path d="m37 29h6v4h-6z"/><path d="m27 29h6v4h-6z"/><path d="m17 29h6v4h-6z"/><path d="m7 29h6v4h-6z"/></g><path d="m54 44h3a0 0 0 0 1 0 0v8a0 0 0 0 1 0 0h-11a0 0 0 0 1 0 0 8 8 0 0 1 8-8z" fill="#ffd782"/><path d="m7 38h9v6h-9z" fill="#ffd782"/><path d="m59 7h-54a3 3 0 0 0 -3 3v44a3 3 0 0 0 3 3h54a3 3 0 0 0 3-3v-44a3 3 0 0 0 -3-3zm1 47a1 1 0 0 1 -1 1h-54a1 1 0 0 1 -1-1v-44a1 1 0 0 1 1-1h54a1 1 0 0 1 1 1z"/><path d="m57 11h-50a1 1 0 0 0 -1 1v40a1 1 0 0 0 1 1h50a1 1 0 0 0 1-1v-40a1 1 0 0 0 -1-1zm-49 19h4v2h-4zm0 9h7v4h-7zm23 12h-10v-12h10v1h-1a3 3 0 0 0 0 6h4a1 1 0 0 1 0 2h-6v2h3zm12 0h-10v-1h1a3 3 0 0 0 0-6h-4a1 1 0 0 1 0-2h6v-2h-3v-1h10zm13 0h-8.929a7.011 7.011 0 0 1 6.929-6h2zm0-8h-2a9.01 9.01 0 0 0 -8.941 8h-.059v-13a1 1 0 0 0 -1-1h-24a1 1 0 0 0 -1 1v13h-11v-6h8a1 1 0 0 0 1-1v-6a1 1 0 0 0 -1-1h-8v-3h5a1 1 0 0 0 1-1v-4a1 1 0 0 0 -1-1h-5v-15h48z"/><path d="m16 25h8a1 1 0 0 0 1-1v-8a1 1 0 0 0 -1-1h-8a1 1 0 0 0 -1 1v8a1 1 0 0 0 1 1zm1-8h6v6h-6z"/><path d="m28 25h8a1 1 0 0 0 1-1v-8a1 1 0 0 0 -1-1h-8a1 1 0 0 0 -1 1v8a1 1 0 0 0 1 1zm1-4h2v-2h-2v-2h6v2h-2v2h2v2h-6z"/><path d="m40 25h8a1 1 0 0 0 1-1v-8a1 1 0 0 0 -1-1h-8a1 1 0 0 0 -1 1v8a1 1 0 0 0 1 1zm1-4h2v-2h-2v-2h2v2h2v-2h2v2h-2v2h2v2h-2v-2h-2v2h-2z"/><path d="m19 19h2v2h-2z"/><path d="m46 29v4a1 1 0 0 0 1 1h6a1 1 0 0 0 1-1v-4a1 1 0 0 0 -1-1h-6a1 1 0 0 0 -1 1zm2 1h4v2h-4z"/><path d="m43 28h-6a1 1 0 0 0 -1 1v4a1 1 0 0 0 1 1h6a1 1 0 0 0 1-1v-4a1 1 0 0 0 -1-1zm-1 4h-4v-2h4z"/><path d="m27 34h6a1 1 0 0 0 1-1v-4a1 1 0 0 0 -1-1h-6a1 1 0 0 0 -1 1v4a1 1 0 0 0 1 1zm1-4h4v2h-4z"/><path d="m23 28h-6a1 1 0 0 0 -1 1v4a1 1 0 0 0 1 1h6a1 1 0 0 0 1-1v-4a1 1 0 0 0 -1-1zm-1 4h-4v-2h4z"/><path d="m51 47h3v2h-3z"/></g></svg>