<svg height="512" viewBox="0 0 64 64" width="512" xmlns="http://www.w3.org/2000/svg"><g id="Filled_outline" data-name="Filled outline"><path d="m51 28a4 4 0 0 0 0-8z" fill="#f9bb4b"/><path d="m33 20a4 4 0 0 0 0 8z" fill="#f9bb4b"/><path d="m33 15h6 12v20h-18z" fill="#ffd782"/><path d="m31 61h22v-22h-21-1z" fill="#195c85"/><path d="m53 39h6a0 0 0 0 1 0 0v22a0 0 0 0 1 0 0h-2a4 4 0 0 1 -4-4v-18a0 0 0 0 1 0 0z" fill="#4f97d5" transform="matrix(-1 0 0 -1 112 100)"/><path d="m24 44h-5v-3a4 4 0 0 0 -4-4v3l-4 4 4 4 9 3 7-4v-8z" fill="#4f97d5"/><path d="m33 15s-4.5-3.5 2-10c0 0 0 4 9 4 6 0 7 2 7 6z" fill="#394d5c"/><path d="m22 3a4 4 0 0 1 4 4v13a3 3 0 0 1 -3 3v5l-6-5h-5a4.012 4.012 0 0 1 -4-4v-12a4 4 0 0 1 4-4z" fill="#ffd782"/><path d="m42 26a3 3 0 0 1 3 3v2a0 0 0 0 1 0 0h-6a0 0 0 0 1 0 0v-2a3 3 0 0 1 3-3z" fill="#dd3e46" transform="matrix(-1 0 0 -1 84 57)"/><path d="m38 39h8a0 0 0 0 1 0 0v2a4 4 0 0 1 -4 4 4 4 0 0 1 -4-4v-2a0 0 0 0 1 0 0z" fill="#ffd782"/><path d="m15 40v-13h-10v17h6z" fill="#394d5c"/><path d="m17 8-3 4a4.265 4.265 0 0 0 -1 3 2.157 2.157 0 0 0 2 2 1.994 1.994 0 0 0 2-2 1.977 1.977 0 0 0 2 2 2.176 2.176 0 0 0 2-2 4.265 4.265 0 0 0 -1-3z" fill="#394d5c"/><path d="m5 27h10v13h-10z" fill="#96c3f0"/><path d="m55 38h-24a.978.978 0 0 0 -.571.2l-6.749 4.8h-3.68v-2a5.009 5.009 0 0 0 -4-4.9v-9.1a1 1 0 0 0 -1-1h-10a1 1 0 0 0 -1 1v17a1 1 0 0 0 1 1h5.586l3.707 3.707a1.011 1.011 0 0 0 .391.241l9 3a.983.983 0 0 0 .316.052 1 1 0 0 0 .5-.132l5.5-3.145v12.277a1 1 0 0 0 1 1h28a1 1 0 0 0 1-1v-18a5.006 5.006 0 0 0 -5-5zm-49-10h8v11h-8zm0 15v-2h6.586l-2 2zm24 3.42-6.108 3.49-8.352-2.784-3.126-3.126 3.293-3.293a1 1 0 0 0 .293-.707v-1.816a3 3 0 0 1 2 2.816v3a1 1 0 0 0 1 1h5a.994.994 0 0 0 .581-.187l5.419-3.87zm9-6.42h6v1a3 3 0 0 1 -6 0zm13 20h-20v-20h5v1a5 5 0 0 0 10 0v-1h5zm6 0h-4v-20h1a3 3 0 0 1 3 3z"/><path d="m46 18h2v2h-2z"/><path d="m36 18h2v2h-2z"/><path d="m41 19h2v4h-2z"/><path d="m33 36h18a1 1 0 0 0 1-1v-6.1a5 5 0 0 0 0-9.8v-4.1c0-4.434-1.309-7-8-7-7.712 0-8-3-8-3a1 1 0 0 0 -1.707-.707c-2.67 2.67-3.948 5.238-3.8 7.636a5.578 5.578 0 0 0 1.507 3.492v3.679a5 5 0 0 0 0 9.8v6.1a1 1 0 0 0 1 1zm19-14.829a3 3 0 0 1 0 5.658zm-2 12.829h-16v-18h16zm-15.335-27.163c.977 1.428 3.387 3.163 9.335 3.163 4.88 0 5.834 1.229 5.978 4h-11.791a3.366 3.366 0 0 1 -2.187-3h-2a4.806 4.806 0 0 0 1 3h-1.6a3.617 3.617 0 0 1 -.91-2.2c-.09-1.465.656-3.164 2.175-4.963zm-4.665 17.163a3.006 3.006 0 0 1 2-2.829v5.658a3.006 3.006 0 0 1 -2-2.829z"/><path d="m12 2a5.006 5.006 0 0 0 -5 5v12a5.006 5.006 0 0 0 5 5h4.638l5.722 4.769a1 1 0 0 0 .64.231.989.989 0 0 0 .424-.095 1 1 0 0 0 .576-.905v-4.127a4.006 4.006 0 0 0 3-3.873v-13a5.006 5.006 0 0 0 -5-5zm13 5v13a2 2 0 0 1 -2 2 1 1 0 0 0 -1 1v2.865l-4.36-3.634a1 1 0 0 0 -.64-.231h-5a3 3 0 0 1 -3-3v-12a3 3 0 0 1 3-3h10a3 3 0 0 1 3 3z"/><path d="m38 28a4 4 0 0 0 8 0v-2a1 1 0 0 0 -1-1h-6a1 1 0 0 0 -1 1zm2-1h4v1a2 2 0 0 1 -4 0z"/><path d="m17.8 7.4a1.036 1.036 0 0 0 -1.6 0l-2.981 3.975a5.238 5.238 0 0 0 -1.219 3.625 3.16 3.16 0 0 0 3 3 2.953 2.953 0 0 0 1-.183v2.183h2v-2.17a2.889 2.889 0 0 0 .951.171h.076a3.169 3.169 0 0 0 2.973-3.001 5.211 5.211 0 0 0 -1.2-3.6zm1.173 8.6a.869.869 0 0 1 -.678-.276.986.986 0 0 1 -.295-.724 1 1 0 0 0 -2 0 .994.994 0 0 1 -1 1 1.19 1.19 0 0 1 -1-1 3.3 3.3 0 0 1 .8-2.4l2.2-2.933 2.219 2.958a3.268 3.268 0 0 1 .781 2.375 1.194 1.194 0 0 1 -1.027 1z"/></g></svg>