<svg height="512" viewBox="0 0 64 64" width="512" xmlns="http://www.w3.org/2000/svg"><g id="Filled_outline" data-name="Filled outline"><circle cx="32" cy="32" fill="#ffd782" r="29"/><circle cx="32" cy="32" fill="#da1c4b" r="25"/><circle cx="32" cy="32" fill="#8ec13f" r="19"/><circle cx="32" cy="32" fill="#ffd782" r="12"/><path d="m38 30h-.349a6 6 0 0 0 -3.651-3.651v-.349a2 2 0 0 0 -2-2 2 2 0 0 0 -2 2v.349a6 6 0 0 0 -3.651 3.651h-.349a2 2 0 0 0 -2 2 2 2 0 0 0 2 2h.349a6 6 0 0 0 3.651 3.651v.349a2 2 0 0 0 2 2 2 2 0 0 0 2-2v-.349a6 6 0 0 0 3.651-3.651h.349a2 2 0 0 0 2-2 2 2 0 0 0 -2-2z" fill="#f9bb4b"/><circle cx="32" cy="32" fill="#fff69a" r="2"/><g fill="#e5e4cf"><path d="m32 44a12.017 12.017 0 0 1 -3-.393v7.134a17.5 17.5 0 0 0 6 0v-7.134a12.017 12.017 0 0 1 -3 .393z"/><path d="m42.237 38.237a12.028 12.028 0 0 1 -4 4l5.034 5.034a19.1 19.1 0 0 0 4-4z"/><path d="m50.741 29h-7.134a11.647 11.647 0 0 1 0 6h7.134a17.5 17.5 0 0 0 0-6z"/><path d="m42.237 25.763 5.034-5.034a19.1 19.1 0 0 0 -4-4l-5.034 5.034a12.028 12.028 0 0 1 4 4z"/><path d="m32 20a12.017 12.017 0 0 1 3 .393v-7.134a17.5 17.5 0 0 0 -6 0v7.134a12.017 12.017 0 0 1 3-.393z"/><path d="m25.763 21.763-5.034-5.034a19.1 19.1 0 0 0 -4 4l5.034 5.034a12.028 12.028 0 0 1 4-4z"/><path d="m20 32a12.017 12.017 0 0 1 .393-3h-7.134a17.5 17.5 0 0 0 0 6h7.134a12.017 12.017 0 0 1 -.393-3z"/><path d="m21.763 38.237-5.034 5.034a19.1 19.1 0 0 0 4 4l5.034-5.034a12.028 12.028 0 0 1 -4-4z"/></g><path d="m13 32a19.142 19.142 0 0 1 .259-3h-6.074a24.417 24.417 0 0 0 0 6h6.074a19.142 19.142 0 0 1 -.259-3z" fill="#143441"/><path d="m20.729 16.729-4.289-4.289a25.055 25.055 0 0 0 -4 4l4.289 4.289a19.1 19.1 0 0 1 4-4z" fill="#143441"/><path d="m32 13a19.142 19.142 0 0 1 3 .259v-6.074a24.417 24.417 0 0 0 -6 0v6.074a19.142 19.142 0 0 1 3-.259z" fill="#143441"/><path d="m47.271 20.729 4.289-4.289a25.055 25.055 0 0 0 -4-4l-4.289 4.289a19.1 19.1 0 0 1 4 4z" fill="#143441"/><path d="m56.815 29h-6.074a17.5 17.5 0 0 1 0 6h6.074a24.417 24.417 0 0 0 0-6z" fill="#143441"/><path d="m47.271 43.271a19.1 19.1 0 0 1 -4 4l4.289 4.289a25.055 25.055 0 0 0 4-4z" fill="#143441"/><path d="m32 51a19.142 19.142 0 0 1 -3-.259v6.074a24.417 24.417 0 0 0 6 0v-6.074a19.142 19.142 0 0 1 -3 .259z" fill="#143441"/><path d="m16.729 43.271-4.289 4.289a25.055 25.055 0 0 0 4 4l4.289-4.289a19.1 19.1 0 0 1 -4-4z" fill="#143441"/><circle cx="41" cy="53" fill="#f4f4e6" r="2"/><path d="m32 2a30 30 0 1 0 30 30 30.034 30.034 0 0 0 -30-30zm0 58a28 28 0 1 1 28-28 28.032 28.032 0 0 1 -28 28z"/><path d="m35 32a3 3 0 1 0 -3 3 3 3 0 0 0 3-3zm-4 0a1 1 0 1 1 1 1 1 1 0 0 1 -1-1z"/><path d="m32 6a26 26 0 1 0 26 26 26.03 26.03 0 0 0 -26-26zm18.2 10.384-2.835 2.835a20.249 20.249 0 0 0 -2.586-2.586l2.837-2.833a24.284 24.284 0 0 1 2.584 2.584zm-19.866 20.324a4.971 4.971 0 0 1 -3.042-3.042 1 1 0 0 0 -.943-.666h-.349a1 1 0 0 1 0-2h.349a1 1 0 0 0 .943-.666 4.971 4.971 0 0 1 3.042-3.042 1 1 0 0 0 .666-.943v-.349a1 1 0 0 1 2 0v.349a1 1 0 0 0 .666.943 4.971 4.971 0 0 1 3.042 3.042 1 1 0 0 0 .943.666h.349a1 1 0 0 1 0 2h-.349a1 1 0 0 0 -.943.666 4.971 4.971 0 0 1 -3.042 3.042 1 1 0 0 0 -.666.943v.349a1 1 0 0 1 -2 0v-.349a1 1 0 0 0 -.666-.943zm-2.334-17.072a12.949 12.949 0 0 0 -2.072.878l-3.643-3.643a17.873 17.873 0 0 1 5.715-2.407zm3 1.415v2.128a3 3 0 0 0 -1.982 2.493 6.956 6.956 0 0 0 -3.346 3.346 3 3 0 0 0 -2.493 1.982h-2.128a11.01 11.01 0 0 1 9.949-9.949zm-6.794.569a13.091 13.091 0 0 0 -2.586 2.586l-3.566-3.566a18.061 18.061 0 0 1 2.586-2.586zm-3.692 4.308a12.949 12.949 0 0 0 -.878 2.072h-5.172a17.873 17.873 0 0 1 2.407-5.715zm-1.344 4.072a11.85 11.85 0 0 0 0 4h-5.052a17.008 17.008 0 0 1 0-4zm.466 6a12.949 12.949 0 0 0 .878 2.072l-3.643 3.643a17.873 17.873 0 0 1 -2.407-5.715zm1.984 3.794a13.091 13.091 0 0 0 2.586 2.586l-3.566 3.566a18.061 18.061 0 0 1 -2.586-2.586zm-.569-6.794h2.128a3 3 0 0 0 2.493 1.982 6.956 6.956 0 0 0 3.346 3.346 3 3 0 0 0 1.982 2.493v2.128a11.01 11.01 0 0 1 -9.949-9.949zm21.9-2h-2.13a3 3 0 0 0 -2.493-1.982 6.956 6.956 0 0 0 -3.346-3.346 3 3 0 0 0 -1.982-2.493v-2.128a11.01 11.01 0 0 1 9.949 9.949zm-3.155-9.38 3.566-3.566a18.061 18.061 0 0 1 2.586 2.586l-3.568 3.566a13.091 13.091 0 0 0 -2.586-2.586zm-6.796 19.201a3 3 0 0 0 1.982-2.493 6.956 6.956 0 0 0 3.346-3.346 3 3 0 0 0 2.493-1.982h2.128a11.01 11.01 0 0 1 -9.949 9.949zm3 3.543a12.949 12.949 0 0 0 2.072-.878l3.643 3.643a17.873 17.873 0 0 1 -5.715 2.407zm3.794-1.984a13.091 13.091 0 0 0 2.586-2.586l3.566 3.566a18.061 18.061 0 0 1 -2.586 2.586zm3.692-4.308a12.949 12.949 0 0 0 .878-2.072h5.172a17.873 17.873 0 0 1 -2.407 5.715zm1.344-4.072a11.85 11.85 0 0 0 0-4h5.052a17.008 17.008 0 0 1 0 4zm-.466-6a12.949 12.949 0 0 0 -.878-2.072l3.643-3.643a17.873 17.873 0 0 1 2.407 5.715zm-8.364-19.66a23.871 23.871 0 0 1 10.036 4.21l-2.867 2.867a19.9 19.9 0 0 0 -7.169-3.017zm0 6.124a17.873 17.873 0 0 1 5.715 2.407l-3.643 3.643a12.949 12.949 0 0 0 -2.072-.878zm-6-6.374c.66-.055 1.326-.09 2-.09s1.34.035 2 .09v4.01c-.658-.065-1.325-.1-2-.1s-1.342.036-2 .1zm0 6.028a17.008 17.008 0 0 1 4 0v5.052a11.85 11.85 0 0 0 -4 0zm-2-5.778v4.06a19.9 19.9 0 0 0 -7.169 3.014l-2.867-2.864a23.871 23.871 0 0 1 10.036-4.21zm-11.616 5.46 2.835 2.835a20.249 20.249 0 0 0 -2.586 2.586l-2.833-2.837a24.284 24.284 0 0 1 2.584-2.584zm-3.834 4.164 2.867 2.867a19.9 19.9 0 0 0 -3.017 7.169h-4.06a23.871 23.871 0 0 1 4.21-10.036zm-4.55 14.036c0-.674.035-1.34.09-2h4.01c-.065.658-.1 1.325-.1 2s.036 1.342.1 2h-4.01c-.055-.66-.09-1.326-.09-2zm4.55 14.036a23.871 23.871 0 0 1 -4.21-10.036h4.06a19.9 19.9 0 0 0 3.014 7.169zm1.248 1.58 2.835-2.835a20.249 20.249 0 0 0 2.586 2.586l-2.835 2.833a24.284 24.284 0 0 1 -2.584-2.584zm14.202 8.044a23.871 23.871 0 0 1 -10.036-4.21l2.867-2.867a19.9 19.9 0 0 0 7.169 3.017zm0-6.124a17.873 17.873 0 0 1 -5.715-2.407l3.643-3.643a12.949 12.949 0 0 0 2.072.878zm6 6.374c-.66.055-1.326.09-2 .09s-1.34-.035-2-.09v-4.01c.658.065 1.325.1 2 .1s1.342-.036 2-.1zm0-6.028a17.008 17.008 0 0 1 -4 0v-5.052a11.85 11.85 0 0 0 4 0zm4.793 5.133a23.749 23.749 0 0 1 -2.793.645v-4.06a19.785 19.785 0 0 0 3.151-.942 2.961 2.961 0 0 0 -.358 4.36zm2.207-1.015a1 1 0 1 1 1-1 1 1 0 0 1 -1 1zm2.978-1.216a2.994 2.994 0 0 0 -2.978-2.784 3.041 3.041 0 0 0 -.43.043 20.086 20.086 0 0 0 2.6-1.46l2.867 2.867a24.368 24.368 0 0 1 -2.059 1.334zm3.638-2.584-2.835-2.835a20.249 20.249 0 0 0 2.586-2.586l2.833 2.837a24.284 24.284 0 0 1 -2.584 2.584zm3.834-4.166-2.867-2.867a19.9 19.9 0 0 0 3.017-7.167h4.06a23.871 23.871 0 0 1 -4.21 10.036zm4.55-14.034c0 .674-.035 1.34-.09 2h-4.01c.065-.658.1-1.325.1-2s-.036-1.342-.1-2h4.01c.055.66.09 1.326.09 2zm-.34-4h-4.06a19.9 19.9 0 0 0 -3.014-7.169l2.867-2.867a23.871 23.871 0 0 1 4.207 10.036z"/></g></svg>