<svg height="512" viewBox="0 0 64 64" width="512" xmlns="http://www.w3.org/2000/svg"><g id="Filled_outline" data-name="Filled outline"><path d="m32 3a22 22 0 0 1 22 22v28a0 0 0 0 1 0 0h-44a0 0 0 0 1 0 0v-28a22 22 0 0 1 22-22z" fill="#50b4f8"/><rect fill="#d3843d" height="4" rx="2" width="58" x="3" y="57"/><rect fill="#f9bb4b" height="4" rx="2" width="48" x="8" y="53"/><path d="m20 41h12v12h-12z" fill="#ececec"/><path d="m32 41h12v12h-12z" fill="#fff"/><path d="m26 29h12v12h-12z" fill="#f4f4e6"/><circle cx="32" cy="35" fill="#dd3e46" r="2"/><path d="m59 56h-2.184a2.947 2.947 0 0 0 -1.816-3.816v-27.184a23 23 0 0 0 -46 0v27.184a2.947 2.947 0 0 0 -1.816 3.816h-2.184a3 3 0 0 0 0 6h54a3 3 0 0 0 0-6zm-48-31a21 21 0 0 1 42 0v27h-8v-11a1 1 0 0 0 -1-1h-5v-11a1 1 0 0 0 -1-1h-12a1 1 0 0 0 -1 1v11h-5a1 1 0 0 0 -1 1v11h-8zm16 15v-10h10v10zm4 2v10h-10v-10zm2 0h10v10h-10zm-23 12h44a1 1 0 0 1 0 2h-44a1 1 0 0 1 0-2zm49 6h-54a1 1 0 0 1 0-2h54a1 1 0 0 1 0 2z"/><path d="m32 32a3 3 0 1 0 3 3 3 3 0 0 0 -3-3zm0 4a1 1 0 1 1 1-1 1 1 0 0 1 -1 1z"/><path d="m23 44h2v2h-2z"/><path d="m27 48h2v2h-2z"/><path d="m35 44h2v2h-2z"/><path d="m39 44h2v2h-2z"/><path d="m35 48h2v2h-2z"/><path d="m39 48h2v2h-2z"/><path d="m13 36h2v14h-2z"/><path d="m13 32h2v2h-2z"/><path d="m49 25v1h2v-1a19.021 19.021 0 0 0 -19-19v2a17.019 17.019 0 0 1 17 17z"/><path d="m49 28h2v2h-2z"/></g></svg>