<svg height="512" viewBox="0 0 64 64" width="512" xmlns="http://www.w3.org/2000/svg"><g id="Filled_outline" data-name="Filled outline"><path d="m42 7h6v9h-6z" fill="#f9bb4b"/><rect fill="#d3843d" height="4" rx="2" width="12" x="39" y="3"/><path d="m45 15a16 16 0 0 1 16 16v30a0 0 0 0 1 0 0h-32a0 0 0 0 1 0 0v-30a16 16 0 0 1 16-16z" fill="#cdeef6"/><path d="m3 57h40v4h-40z" fill="#ad6327"/><path d="m5 51h36v6h-36z" fill="#f9bb4b"/><path d="m5 47h32v4h-32z" fill="#55b56a"/><g fill="#f4f4e6"><path d="m7 35h12v12h-12z"/><path d="m15 15h12v12h-12z"/><path d="m21.343 29.343h11.314v11.314h-11.314z" transform="matrix(.707 -.707 .707 .707 -16.841 29.343)"/></g><circle cx="27" cy="35" fill="#da1c4b" r="2"/><path d="m10 38h2v2h-2z"/><path d="m12 40h2v2h-2z"/><path d="m14 42h2v2h-2z"/><path d="m18 18h2v2h-2z"/><path d="m22 18h2v2h-2z"/><path d="m18 22h2v2h-2z"/><path d="m22 22h2v2h-2z"/><path d="m20 20h2v2h-2z"/><path d="m30 35a3 3 0 1 0 -3 3 3 3 0 0 0 3-3zm-4 0a1 1 0 1 1 1 1 1 1 0 0 1 -1-1z"/><path d="m49 14.49v-6.49a3 3 0 0 0 0-6h-8a3 3 0 0 0 0 6v6.492a16.97 16.97 0 0 0 -12.529 12.565l-.471-.471v-11.586a1 1 0 0 0 -1-1h-12a1 1 0 0 0 -1 1v12a1 1 0 0 0 1 1h9.586l-6 6h-11.586a1 1 0 0 0 -1 1v11h-1a1 1 0 0 0 -1 1v9h-1a1 1 0 0 0 -1 1v4a1 1 0 0 0 1 1h58a1 1 0 0 0 1-1v-30a16.933 16.933 0 0 0 -13-16.51zm-9-9.49a1 1 0 0 1 1-1h8a1 1 0 0 1 0 2h-8a1 1 0 0 1 -1-1zm7 3v6.128a17.236 17.236 0 0 0 -2-.128 16.948 16.948 0 0 0 -2 .131v-6.131zm-31 18v-10h10v10zm11 2.414 6.586 6.586-6.586 6.586-6.586-6.586zm-7 9 6.293 6.293a1 1 0 0 0 1.414 0l.293-.293v2.586h-8zm-12-1.414h10v10h-10zm-2 12h30v2h-30zm0 4h34v4h-34zm36 8h-38v-2h38zm18 0h-16v-3a1 1 0 0 0 -1-1h-1v-8h-2v2h-2v-3a1 1 0 0 0 -1-1h-7v-4.586l5.707-5.707a1 1 0 0 0 0-1.414l-5.528-5.528a14.993 14.993 0 0 1 29.821 2.235z"/><path d="m45 18v2a11.013 11.013 0 0 1 11 11h2a13.015 13.015 0 0 0 -13-13z"/><path d="m56 33h2v2h-2z"/><path d="m48 56h6v2h-6z"/><path d="m56 56h2v2h-2z"/></g></svg>