<svg height="512" viewBox="0 0 64 64" width="512" xmlns="http://www.w3.org/2000/svg"><g id="Filled_outline" data-name="Filled outline"><path d="m23 3h10a16 16 0 0 1 16 16 0 0 0 0 1 0 0h-42a0 0 0 0 1 0 0 16 16 0 0 1 16-16z" fill="#f9bb4b"/><path d="m7 19h42v6h-42z" fill="#e1462b"/><path d="m7 43h42v8h-42z" fill="#e1462b"/><path d="m7 51h42v6h-42z" fill="#f9bb4b"/><path d="m3 57h50v4h-50z" fill="#e97424"/><path d="m7 25h14v18h-14z" fill="#f4f4e6"/><path d="m21 25h14v18h-14z" fill="#fff"/><path d="m35 25h14v18h-14z" fill="#f4f4e6"/><rect fill="#fcf05a" height="4" rx="2" width="9" x="36" y="47"/><path d="m23 51h10v6h-10z" fill="#f4f4e6"/><path d="m49 45h4a4 4 0 0 1 4 4 4 4 0 0 1 -4 4h-4a0 0 0 0 1 0 0v-8a0 0 0 0 1 0 0z" fill="#143441"/><path d="m55 20-6 21v4h4v-4l6-21z" fill="#4f97d5"/><circle cx="57" cy="17" fill="#dd3e46" r="4"/><g fill="#f9bb4b"><path d="m14 31a3 3 0 0 1 3 3v3a0 0 0 0 1 0 0h-6a0 0 0 0 1 0 0v-3a3 3 0 0 1 3-3z"/><path d="m28 31a3 3 0 0 1 3 3v3a0 0 0 0 1 0 0h-6a0 0 0 0 1 0 0v-3a3 3 0 0 1 3-3z"/><path d="m42 31a3 3 0 0 1 3 3v3a0 0 0 0 1 0 0h-6a0 0 0 0 1 0 0v-3a3 3 0 0 1 3-3z"/></g><path d="m15 30.142v-2.142h-2v2.142a4 4 0 0 0 -3 3.858v3a1 1 0 0 0 1 1h2v1a1 1 0 0 0 2 0v-1h2a1 1 0 0 0 1-1v-3a4 4 0 0 0 -3-3.858zm1 5.858h-4v-2a2 2 0 0 1 4 0z"/><path d="m25 38h2v1a1 1 0 0 0 2 0v-1h2a1 1 0 0 0 1-1v-3a4 4 0 0 0 -3-3.858v-2.142h-2v2.142a4 4 0 0 0 -3 3.858v3a1 1 0 0 0 1 1zm1-4a2 2 0 0 1 4 0v2h-4z"/><path d="m39 38h2v1a1 1 0 0 0 2 0v-1h2a1 1 0 0 0 1-1v-3a4 4 0 0 0 -3-3.858v-2.142h-2v2.142a4 4 0 0 0 -3 3.858v3a1 1 0 0 0 1 1zm1-4a2 2 0 0 1 4 0v2h-4z"/><path d="m24.445 47.168 1.11 1.664a4.4 4.4 0 0 1 4.89 0l1.11-1.664a6.4 6.4 0 0 0 -7.11 0z"/><path d="m42.729 10.314a14.965 14.965 0 0 0 -7.5-4.288l-.456 1.948a12.954 12.954 0 0 1 6.5 3.712z"/><path d="m43 12h2v2h-2z"/><path d="m3 62h50a1 1 0 0 0 1-1v-4a1 1 0 0 0 -1-1h-3v-2h3a5 5 0 0 0 1-9.9v-2.96l5.7-19.94a5.013 5.013 0 1 0 -5.952-.436l-3.748 13.096v-14.86a17.019 17.019 0 0 0 -17-17h-10a17.019 17.019 0 0 0 -17 17v37h-3a1 1 0 0 0 -1 1v4a1 1 0 0 0 1 1zm54-48a3 3 0 1 1 -3 3 3 3 0 0 1 3-3zm-7 27.14 5.539-19.383a4.942 4.942 0 0 0 1.461.243c.136 0 .264-.029.4-.04l-5.362 18.766a1.007 1.007 0 0 0 -.038.274v3h-2zm0 4.86h3a3 3 0 0 1 0 6h-3zm-21-42h4a15.02 15.02 0 0 1 14.967 14h-18.967v-2h1a3 3 0 0 0 0-6h-4a1 1 0 0 1 0-2h6v-2h-3zm-6 0h4v2h-1a3 3 0 0 0 0 6h4a1 1 0 0 1 0 2h-6v2h3v2h-18.967a15.02 15.02 0 0 1 14.967-14zm-15 16h40v4h-40zm40 6v16h-12v-16zm-14 0v16h-12v-16zm-26 0h12v16h-12zm0 18h40v6h-2.184a2.966 2.966 0 0 0 .184-1 3 3 0 0 0 -3-3h-5a3 3 0 0 0 -3 3 2.966 2.966 0 0 0 .184 1h-27.184zm40 8v4h-14v-4zm-11-3a1 1 0 0 1 1-1h5a1 1 0 0 1 0 2h-5a1 1 0 0 1 -1-1zm-5 3v4h-8v-4zm-24 0h14v4h-14zm-4 6h48v2h-48z"/></g></svg>