<svg height="512" viewBox="0 0 64 64" width="512" xmlns="http://www.w3.org/2000/svg"><g id="Filled_outline" data-name="Filled outline"><ellipse cx="32" cy="8" fill="#f9bb4b" rx="12" ry="5"/><path d="m49 13h-33a6 6 0 0 0 -6 6v10h45v-10a6 6 0 0 0 -6-6z" fill="#50b4f8"/><path d="m10 29h45v8h-45z" fill="#cdeef6"/><path d="m10 37h45v15h-45z" fill="#ffd782"/><path d="m10 52h45v9h-45z" fill="#50b4f8"/><path d="m45 57a3 3 0 0 1 3 3v1a0 0 0 0 1 0 0h-6a0 0 0 0 1 0 0v-1a3 3 0 0 1 3-3z" fill="#f4f4e6"/><path d="m25 37h15v15h-15z" fill="#f9bb4b"/><path d="m40 37h15v15h-15z" fill="#ffd782"/><path d="m10 37h15v15h-15z" fill="#ffd782"/><circle cx="31" cy="46" fill="#b11e48" r="2"/><circle cx="34" cy="46" fill="#dd3e46" r="2"/><circle cx="46" cy="46" fill="#b11e48" r="2"/><circle cx="49" cy="46" fill="#dd3e46" r="2"/><path d="m10 29h7v8h-7z" fill="#cdeef6"/><path d="m17 29h6v8h-6z" fill="#7fcac9"/><path d="m23 29h6v8h-6z" fill="#cdeef6"/><path d="m29 29h6v8h-6z" fill="#7fcac9"/><path d="m35 29h6v8h-6z" fill="#cdeef6"/><path d="m41 29h6v8h-6z" fill="#7fcac9"/><path d="m47 29h8v8h-8z" fill="#cdeef6"/><circle cx="19" cy="46" fill="#dd3e46" r="2"/><circle cx="16" cy="46" fill="#b11e48" r="2"/><path d="m56 19a7.008 7.008 0 0 0 -7-7h-7.166c1.983-1.047 3.166-2.433 3.166-4 0-3.421-5.589-6-13-6s-13 2.579-13 6c0 1.567 1.183 2.953 3.166 4h-6.166a7.008 7.008 0 0 0 -7 7v42a1 1 0 0 0 1 1h45a1 1 0 0 0 1-1zm-35-11c0-1.889 4.7-4 11-4s11 2.111 11 4-4.7 4-11 4-11-2.111-11-4zm-10 11a5.006 5.006 0 0 1 5-5h15v2h-1a3 3 0 0 0 0 6h4a1 1 0 0 1 0 2h-6v2h3v2h-20zm28 19v13h-13v-13zm-3-2v-6h4v6zm-12 0v-6h4v6zm10 0h-4v-6h4zm-12-6v6h-4v-6zm-11 0h5v6h-5zm0 8h13v13h-13zm32 22a2 2 0 0 1 4 0zm11 0h-5a4 4 0 0 0 -8 0h-30v-7h43zm0-9h-13v-13h13zm-12-15v-6h4v6zm12 0h-6v-6h6zm0-8h-21v-2h1a3 3 0 0 0 0-6h-4a1 1 0 0 1 0-2h6v-2h-3v-2h16a5.006 5.006 0 0 1 5 5z"/><path d="m15 56h2v2h-2z"/><path d="m19 56h2v2h-2z"/><path d="m23 56h2v2h-2z"/><path d="m27 56h2v2h-2z"/><path d="m31 56h2v2h-2z"/><path d="m35 56h2v2h-2z"/><path d="m29.044 43.744a2.984 2.984 0 0 0 3.463 4.835 2.956 2.956 0 0 0 1.493.421 2.993 2.993 0 0 0 .757-5.891l-.369-1.109h.612a1 1 0 0 0 0-2h-6a1 1 0 0 0 0 2h.612l-.561 1.684c-.006.016-.002.04-.007.06zm4.783 1.294a.956.956 0 0 1 .173-.038 1 1 0 0 1 0 2 .956.956 0 0 1 -.173-.038 2.761 2.761 0 0 0 0-1.924zm-2.106-3.038h.558l.433 1.3c-.072.035-.136.083-.205.123a2.969 2.969 0 0 0 -1.132-.383zm-.721 3a1 1 0 1 1 -1 1 1 1 0 0 1 1-1z"/><path d="m19.757 43.109-.369-1.109h.612a1 1 0 0 0 0-2h-6a1 1 0 0 0 0 2h.612l-.561 1.684c-.006.02 0 .04-.007.06a2.984 2.984 0 0 0 3.463 4.835 2.956 2.956 0 0 0 1.493.421 2.993 2.993 0 0 0 .757-5.891zm-3.757 3.891a1 1 0 1 1 1-1 1 1 0 0 1 -1 1zm1.507-3.579a2.969 2.969 0 0 0 -1.132-.383l.346-1.038h.558l.433 1.3c-.072.033-.136.081-.205.121zm1.493 3.579a.956.956 0 0 1 -.173-.038 2.761 2.761 0 0 0 0-1.924.956.956 0 0 1 .173-.038 1 1 0 0 1 0 2z"/><path d="m44.044 43.744a2.984 2.984 0 0 0 3.463 4.835 2.956 2.956 0 0 0 1.493.421 2.993 2.993 0 0 0 .757-5.891l-.369-1.109h.612a1 1 0 0 0 0-2h-6a1 1 0 0 0 0 2h.612l-.561 1.684c-.006.016-.002.04-.007.06zm4.783 1.294a.956.956 0 0 1 .173-.038 1 1 0 0 1 0 2 .956.956 0 0 1 -.173-.038 2.761 2.761 0 0 0 0-1.924zm-2.106-3.038h.558l.433 1.3c-.072.035-.136.083-.205.123a2.969 2.969 0 0 0 -1.132-.383zm-.721 3a1 1 0 1 1 -1 1 1 1 0 0 1 1-1z"/><path d="m25 7h14v2h-14z"/><path d="m50 55h2v2h-2z"/><path d="m13 24h2v2h-2z"/><path d="m13 17h2v5h-2z"/><path d="m49 16h-3v2h3c.691 0 1 .309 1 1v3h2v-3a2.841 2.841 0 0 0 -3-3z"/><path d="m50 24h2v2h-2z"/></g></svg>