<svg height="512" viewBox="0 0 64 64" width="512" xmlns="http://www.w3.org/2000/svg"><g id="Filled_outline" data-name="Filled outline"><path d="m3 20h16v24h-16z" fill="#fff69a"/><path d="m19 20h16v24h-16z" fill="#fcf05a"/><path d="m35 20h16v24h-16z" fill="#fff69a"/><path d="m20 3h14a17 17 0 0 1 17 17 0 0 0 0 1 0 0h-48a0 0 0 0 1 0 0 17 17 0 0 1 17-17z" fill="#da1c4b"/><path d="m3 44h48v17h-48z" fill="#da1c4b"/><path d="m51 45h8a0 0 0 0 1 0 0v6a4 4 0 0 1 -4 4 4 4 0 0 1 -4-4v-6a0 0 0 0 1 0 0z" fill="#394d5c"/><path d="m55 24v13l-4 8h5l3-7v-14z" fill="#4f97d5"/><path d="m37 48h10v4h-10z" fill="#e5e4cf"/><path d="m7 48h14v13h-14z" fill="#f98c96"/><circle cx="14" cy="58" fill="#f9bb4b" r="3"/><path d="m7 44h14v4h-14z" fill="#b11e48"/><circle cx="16" cy="54" fill="#ffd782" r="3"/><path d="m24 48h10v2h-10z" fill="#e5e4cf"/><path d="m36 11-4 4-4-4-4 4-4-4-3 3v6h22v-6z" fill="#f9bb4b"/><g fill="#fcf05a"><circle cx="20" cy="9" r="2"/><circle cx="28" cy="9" r="2"/><circle cx="36" cy="9" r="2"/></g><circle cx="57" cy="21" fill="#da1c4b" r="4"/><path d="m13 31h-4a1 1 0 0 1 0-2h6v-2h-3v-2h-2v2h-1a3 3 0 0 0 0 6h4a1 1 0 0 1 0 2h-6v2h3v2h2v-2h1a3 3 0 0 0 0-6z"/><path d="m29 31h-4a1 1 0 0 1 0-2h6v-2h-3v-2h-2v2h-1a3 3 0 0 0 0 6h4a1 1 0 0 1 0 2h-6v2h3v2h2v-2h1a3 3 0 0 0 0-6z"/><path d="m41 33h4a1 1 0 0 1 0 2h-6v2h3v2h2v-2h1a3 3 0 0 0 0-6h-4a1 1 0 0 1 0-2h6v-2h-3v-2h-2v2h-1a3 3 0 0 0 0 6z"/><path d="m57 16a4.983 4.983 0 0 0 -3 8.974v11.79l-2 4v-20.764a18.021 18.021 0 0 0 -18-18h-14a18.021 18.021 0 0 0 -18 18v41a1 1 0 0 0 1 1h48a1 1 0 0 0 1-1v-6.026a4.948 4.948 0 0 0 3 1.026 5.006 5.006 0 0 0 5-5v-6a1 1 0 0 0 -1-1h-1.484l2.4-5.606a.985.985 0 0 0 .084-.394v-13.026a4.983 4.983 0 0 0 -3-8.974zm-37-12h14a16.021 16.021 0 0 1 15.969 15h-9.969v-5a1 1 0 0 0 -.293-.707l-1.907-1.908a3 3 0 1 0 -3.6 0l-2.2 2.2-2.2-2.2a3 3 0 1 0 -3.6 0l-2.2 2.2-2.2-2.2a3 3 0 1 0 -3.6 0l-1.908 1.908a1 1 0 0 0 -.292.707v5h-11.969a16.021 16.021 0 0 1 15.969-15zm0 8.414 3.293 3.293a1 1 0 0 0 1.414 0l3.293-3.293 3.293 3.293a1 1 0 0 0 1.414 0l3.293-3.293 2 2v4.586h-20v-4.586zm-1-3.414a1 1 0 1 1 1 1 1 1 0 0 1 -1-1zm8 0a1 1 0 1 1 1 1 1 1 0 0 1 -1-1zm8 0a1 1 0 1 1 1 1 1 1 0 0 1 -1-1zm-31 12h14v22h-14zm2 39h-2v-15h2zm8 0a1.993 1.993 0 0 1 -1.182-3.6 3.981 3.981 0 0 0 3.182 1.6 2 2 0 0 1 -2 2zm2-4a2 2 0 1 1 2-2 2 2 0 0 1 -2 2zm4 4h-2.556a3.57 3.57 0 0 0 .5-2.528 4.074 4.074 0 1 0 -5.895-2.946 3.937 3.937 0 0 0 -1.493 5.474h-2.556v-11h12zm0-13h-12v-2h12zm0-26h14v22h-14zm30 39h-28v-15h28zm0-17h-14v-22h14zm8 3v5a3 3 0 0 1 -6 0v-5zm0-8.2-2.659 6.2h-2.723l3.282-6.553a1 1 0 0 0 .1-.447v-11.1a5 5 0 0 0 2 0zm-1-13.8a3 3 0 1 1 3-3 3 3 0 0 1 -3 3z"/><path d="m37 53h10a1 1 0 0 0 1-1v-4a1 1 0 0 0 -1-1h-10a1 1 0 0 0 -1 1v4a1 1 0 0 0 1 1zm1-4h8v2h-8z"/><path d="m24 52h2v2h-2z"/><path d="m28 52h2v2h-2z"/><path d="m32 52h2v2h-2z"/><path d="m24 56h2v2h-2z"/><path d="m28 56h2v2h-2z"/><path d="m32 56h2v2h-2z"/><path d="m24 48h10v2h-10z"/><path d="m43 56h4v2h-4z"/></g></svg>