<svg height="512" viewBox="0 0 64 64" width="512" xmlns="http://www.w3.org/2000/svg"><g id="Filled_outline" data-name="Filled outline"><path d="m31 11h18v20h-18z" fill="#ffd782"/><path d="m49 15a4 4 0 0 1 0 8z" fill="#f9bb4b"/><path d="m28 35h24v26h-24z" fill="#195c85"/><path d="m52 35v10h6v-4a6 6 0 0 0 -6-6z" fill="#4f97d5"/><path d="m35 23h8a0 0 0 0 1 0 0v2a4 4 0 0 1 -4 4 4 4 0 0 1 -4-4v-2a0 0 0 0 1 0 0z" fill="#dd3e46"/><path d="m47 5c-.6 0-.633.27-1 .69a3.238 3.238 0 0 0 -2-.69c-.4 0-.771-.2-1.084 0a2.735 2.735 0 0 0 -2.916-2 2.735 2.735 0 0 0 -2.916 2c-.313-.2-.684 0-1.084 0a3.566 3.566 0 0 0 -2 1c-.367-.419-.4-1-1-1a2 2 0 0 0 -2 2v4h18v-4a2 2 0 0 0 -2-2z" fill="#394d5c"/><path d="m22 41v8h-9l-5-2-2 2 5 6h17v-20a6 6 0 0 0 -6 6z" fill="#ffd782"/><path d="m8.05 25.05h9.899v9.899h-9.899z" fill="#f4f4e6" transform="matrix(.707 -.707 .707 .707 -17.406 17.979)"/><path d="m28 35a0 0 0 0 1 0 0v10a0 0 0 0 1 0 0h-6a0 0 0 0 1 0 0v-4a6 6 0 0 1 6-6z" fill="#4f97d5"/><path d="m34 35 6 6 6-6z" fill="#ffd782"/><path d="m44 45h8v4h-8z" fill="#f4f4e6"/><path d="m52 45h6v16h-6z" fill="#ffd782"/><path d="m47 4a1.771 1.771 0 0 0 -1.2.39 4.938 4.938 0 0 0 -1.8-.39 1.382 1.382 0 0 1 -.226-.031c-.057-.011-.12-.022-.19-.032a3.841 3.841 0 0 0 -3.584-1.937 3.841 3.841 0 0 0 -3.584 1.937c-.07.01-.133.021-.19.032a1.382 1.382 0 0 1 -.226.031 3.779 3.779 0 0 0 -1.75.566 1.579 1.579 0 0 0 -1.25-.566 3 3 0 0 0 -3 3v24a1 1 0 0 0 1 1h18a1 1 0 0 0 1-1v-7.1a5 5 0 0 0 0-9.8v-7.1a3 3 0 0 0 -3-3zm1 26h-16v-18h16zm0-20h-16v-3a1 1 0 0 1 .824-.984l.018.034a3.233 3.233 0 0 0 .406.608 1.028 1.028 0 0 0 1.5 0 2.816 2.816 0 0 1 1.252-.658 3.31 3.31 0 0 0 .578-.062l.107-.021a1 1 0 0 0 1.373-.691c.256-1.107 1.442-1.226 1.942-1.226s1.686.119 1.942 1.226a1 1 0 0 0 1.373.691l.107.021a3.31 3.31 0 0 0 .578.062 2.715 2.715 0 0 1 1.248.348 1.03 1.03 0 0 0 1.5 0c.1-.114.179-.217.25-.311l.031-.037a1 1 0 0 1 .971 1zm4 9a3.006 3.006 0 0 1 -2 2.829v-5.658a3.006 3.006 0 0 1 2 2.829z"/><path d="m34 14h2v2h-2z"/><path d="m42 14h2v2h-2z"/><path d="m21 41v7h-7.808l-4.82-1.929a1 1 0 0 0 -1.079.222l-2 2a1 1 0 0 0 -.061 1.348l5 6a1 1 0 0 0 .768.359h16v5a1 1 0 0 0 1 1h30a1 1 0 0 0 1-1v-20a7.008 7.008 0 0 0 -7-7h-24a7.008 7.008 0 0 0 -7 7zm6 13h-15.532l-4.115-4.938.888-.888 4.387 1.755a1.012 1.012 0 0 0 .372.071h9a1 1 0 0 0 1-1v-3h4zm0-10h-4v-3a5.008 5.008 0 0 1 4-4.9zm26-7.9a5.008 5.008 0 0 1 4 4.9v3h-4zm0 9.9h4v14h-4zm-2 2h-6v-2h6zm-7.414-12-3.586 3.586-3.586-3.586zm-14.586 0h4.586l5.707 5.707a1 1 0 0 0 1.414 0l5.707-5.707h4.586v8h-7a1 1 0 0 0 -1 1v4a1 1 0 0 0 1 1h7v10h-22z"/><path d="m38 16h2v4h-2z"/><path d="m44 25v-2a1 1 0 0 0 -1-1h-8a1 1 0 0 0 -1 1v2a5 5 0 0 0 10 0zm-2 0a3 3 0 0 1 -6 0v-1h6z"/><path d="m13.707 22.293a1 1 0 0 0 -1.414 0l-7 7a1 1 0 0 0 0 1.414l7 7a1 1 0 0 0 1.414 0l7-7a1 1 0 0 0 0-1.414zm-.707 13.293-5.586-5.586 5.586-5.586 5.586 5.586z"/><path d="m12 27h2v2h-2z"/><path d="m12 31h2v2h-2z"/><path d="m9 39h2v5h-2z"/><path d="m15 41h2v5h-2z"/></g></svg>