<?xml version="1.0" encoding="UTF-8" standalone="no"?>
<!DOCTYPE svg PUBLIC "-//W3C//DTD SVG 1.1//EN" "http://www.w3.org/Graphics/SVG/1.1/DTD/svg11.dtd">
<svg width="100%" height="100%" viewBox="0 0 414 414" version="1.1" xmlns="http://www.w3.org/2000/svg" xmlns:xlink="http://www.w3.org/1999/xlink" xml:space="preserve" xmlns:serif="http://www.serif.com/" style="fill-rule:evenodd;clip-rule:evenodd;stroke-linejoin:round;stroke-miterlimit:2;">
    <g>
        <g>
            <path d="M214.96,199L214.96,181.32L198.96,181.32L198.96,199L181.28,199L181.28,215L198.96,215L198.96,232.68L214.96,232.68L214.96,215L232.64,215L232.64,199L214.96,199Z" style="fill:white;fill-rule:nonzero;"/>
        </g>
    </g>
    <g>
        <g>
            <path d="M391.6,188.44C382.638,100.711 313.254,31.36 225.52,22.44L228.8,0.04L185.2,0.04L188.48,22.44C100.746,31.36 31.362,100.711 22.4,188.44L0,185.16L0,228.76L22.4,225.48C31.32,313.214 100.671,382.598 188.4,391.56L185.12,413.96L228.72,413.96L225.44,391.56C313.174,382.64 382.558,313.289 391.52,225.56L413.92,228.84L414,185.16L391.6,188.44ZM222.96,38.36C303.755,46.131 367.732,110.005 375.655,190.764L302.48,201.4C299.502,153.026 260.934,114.458 212.56,111.48L222.96,38.36ZM190.96,38.36L201.6,111.48C153.132,114.341 114.431,152.94 111.44,201.4L38.32,191C46.134,110.157 110.117,46.174 190.96,38.36ZM190.96,375.72C110.09,367.9 46.098,303.875 38.32,223L111.44,212.36C114.301,260.828 152.9,299.529 201.36,302.52L190.96,375.72ZM206.96,264.04L203.68,287C162.023,285.324 128.636,251.937 126.96,210.28L150,207L126.96,203.72C128.636,162.063 162.023,128.676 203.68,127L206.96,150.04L210.24,127C251.897,128.676 285.284,162.062 286.96,203.72L264,207L286.96,210.28C285.284,251.937 251.897,285.324 210.24,287L206.96,264.04ZM222.96,375.72L212.56,302.52C260.934,299.542 299.502,260.974 302.48,212.6L375.68,223C367.895,303.902 303.862,367.936 222.96,375.72Z" style="fill:white;fill-rule:nonzero;"/>
        </g>
    </g>
</svg>
