<?xml version="1.0" encoding="UTF-8" standalone="no"?>
<!DOCTYPE svg PUBLIC "-//W3C//DTD SVG 1.1//EN" "http://www.w3.org/Graphics/SVG/1.1/DTD/svg11.dtd">
<svg width="100%" height="100%" viewBox="0 0 513 513" version="1.1" xmlns="http://www.w3.org/2000/svg" xmlns:xlink="http://www.w3.org/1999/xlink" xml:space="preserve" xmlns:serif="http://www.serif.com/" style="fill-rule:evenodd;clip-rule:evenodd;stroke-linejoin:round;stroke-miterlimit:2;">
    <g transform="matrix(1,0,0,1,0,-1)">
        <g>
            <g>
                <path d="M278.143,397.423C264.521,390.591 248.403,390.933 235.084,398.337C228.551,401.623 224.277,408.154 223.88,415.455C224.251,422.235 228.235,428.292 234.314,431.317C240.54,434.677 247.53,436.367 254.604,436.225C262.574,436.335 270.431,434.33 277.374,430.416C283.901,427.124 288.174,420.597 288.578,413.298C288.204,406.516 284.221,400.456 278.143,397.423ZM270.439,418.864C261.321,423.73 250.447,424.027 241.077,419.667C238.755,418.318 237.36,416.713 237.353,415.358C237.34,414.075 238.564,411.963 242.018,409.891C246.889,407.239 252.367,405.901 257.913,406.009C262.589,405.876 267.222,406.931 271.38,409.075C273.702,410.43 275.097,412.042 275.104,413.397C275.11,414.679 273.893,416.791 270.439,418.864Z" style="fill:white;fill-rule:nonzero;"/>
                <path d="M97.675,281.085C95.57,279.917 93.003,279.961 90.939,281.199C73.919,291.41 64.603,305.074 64.709,319.673C64.814,333.344 73.275,345.752 88.551,354.62C91.769,356.474 95.88,355.374 97.743,352.162C99.607,348.95 98.52,344.835 95.314,342.962C84.334,336.594 78.248,328.284 78.182,319.574C78.116,310.074 85.294,300.298 97.873,292.752C99.937,291.513 101.183,289.268 101.142,286.861C101.101,284.454 99.78,282.253 97.675,281.085Z" style="fill:white;fill-rule:nonzero;"/>
                <path d="M494.334,282.061L300.847,169.739C300.689,169.632 297.714,167.959 294.354,166.089L294.354,164.831C332.651,150.462 355.185,110.754 347.883,70.507C340.581,30.261 305.534,1 264.63,1C223.726,1 188.679,30.261 181.377,70.507C174.075,110.754 196.609,150.461 234.906,164.831L234.906,166.171C231.119,167.499 227.47,169.191 224.011,171.225L20.629,293.225C13.49,297.133 7.769,303.198 4.282,310.552C2.16,311.704 0.83,313.916 0.807,316.33L0.807,364.494C0.836,365.97 1.359,367.393 2.292,368.537C3.623,378.663 9.936,387.45 19.109,391.942L213.056,504.508C224.063,510.425 236.411,513.4 248.905,513.146C263.132,513.335 277.156,509.753 289.55,502.765L492.833,380.785C502.85,375.875 509.753,366.289 511.234,355.232C511.255,355.046 511.218,354.879 511.232,354.696C511.235,354.614 511.28,354.545 511.28,354.462L511.28,308.299C511.292,307.957 511.355,307.621 511.352,307.278C510.676,296.407 504.163,286.756 494.334,282.061ZM193.492,85.712C193.479,48.376 222.331,17.383 259.573,14.729C296.814,12.075 329.771,38.662 335.053,75.622C340.335,112.582 316.146,147.337 279.652,155.221C278.938,155.374 278.219,155.493 277.502,155.624C276.149,155.872 274.783,156.082 273.403,156.251C272.551,156.355 271.701,156.461 270.846,156.535C269.265,156.673 267.665,156.746 266.057,156.777C265.105,156.796 264.154,156.796 263.203,156.777C261.594,156.745 259.996,156.672 258.415,156.535C257.559,156.461 256.708,156.355 255.856,156.251C254.478,156.08 253.111,155.871 251.757,155.624C251.04,155.494 250.321,155.374 249.609,155.221C216.895,148.114 193.543,119.189 193.492,85.712ZM280.88,168.758L280.88,276.028C280.88,285.003 273.605,292.278 264.63,292.278C255.655,292.278 248.38,285.003 248.38,276.028L248.38,168.758C249.832,169.041 251.31,169.188 252.778,169.394C253.946,169.559 255.092,169.784 256.275,169.9C258.305,170.099 260.346,170.157 262.387,170.21C263.139,170.23 263.872,170.323 264.63,170.323C265.387,170.323 266.12,170.229 266.873,170.21C268.913,170.157 270.954,170.099 272.985,169.9C274.167,169.784 275.314,169.559 276.48,169.394C277.949,169.189 279.428,169.041 280.88,168.758ZM264.63,305.752C281.046,305.752 294.354,292.444 294.354,276.028L294.354,244.354C303.999,246.052 313.294,249.342 321.861,254.087C334.44,261.376 341.414,270.969 341.486,281.087C341.572,292.093 333.381,303.357 319.013,311.981C287.658,330.849 237.901,332.099 208.092,314.764C195.5,307.468 188.52,297.869 188.434,287.751C188.348,276.731 196.546,265.448 210.934,256.797C218.443,252.407 226.506,249.041 234.908,246.789L234.908,276.027C234.906,292.444 248.214,305.752 264.63,305.752ZM201.321,326.416C219.231,335.962 239.301,340.73 259.591,340.258C282.798,340.622 305.69,334.853 325.953,323.534C344.512,312.389 355.085,296.883 354.96,280.981C354.29,267.025 346.906,254.257 335.144,246.715C339.796,248.608 344.315,250.814 348.67,253.317C367.834,264.468 378.446,279.258 378.558,294.962C378.67,311.916 366.269,329.126 344.525,342.173C298.485,369.857 225.242,371.64 181.268,346.193C162.09,335.048 151.465,320.252 151.354,304.529C151.236,287.555 163.624,270.358 185.341,257.332C187.624,255.962 190.149,254.783 192.581,253.53C181.884,261.774 175.423,274.361 174.959,287.859C175.084,302.943 184.446,316.633 201.321,326.416ZM497.808,354.135C496.486,360.781 492.061,366.392 485.907,369.226L282.624,491.212C263.15,501.753 239.812,502.362 219.815,492.85L25.867,380.285C20.317,377.812 16.441,372.646 15.617,366.627C15.602,366.489 15.604,366.35 15.624,366.213C15.794,364.524 15.314,362.833 14.282,361.486L14.282,342.707C15.813,343.905 17.419,345.004 19.091,345.996L213.045,458.503C224.066,464.441 236.436,467.428 248.953,467.174C263.171,467.366 277.185,463.774 289.558,456.766L492.887,334.819C494.589,333.784 496.232,332.654 497.808,331.434L497.808,354.135ZM497.808,308.193C496.463,314.815 492.06,320.408 485.94,323.272L282.617,445.219C263.149,455.79 239.796,456.394 219.808,446.844L25.88,334.357C20.274,331.899 16.373,326.674 15.61,320.6C16.616,313.626 21.126,307.655 27.557,304.778L230.939,182.785C232.234,182.007 233.572,181.37 234.906,180.724L234.906,225.491C215.016,228.84 195.883,235.711 178.406,245.779C152.123,261.542 137.728,282.443 137.88,304.621C138.025,325.305 151.031,344.207 174.512,357.845C199.96,371.356 228.451,378.106 257.255,377.45C290.199,377.972 322.698,369.788 351.466,353.726C377.775,337.937 392.177,317.035 392.025,294.871C391.887,274.213 378.893,255.318 355.433,241.667C336.578,231.327 315.777,225.022 294.354,223.153L294.354,181.533L487.571,293.72C493.016,296.127 496.87,301.129 497.808,307.008L497.808,308.193Z" style="fill:white;fill-rule:nonzero;"/>
                <path d="M263.702,44.903C263.702,41.182 260.686,38.166 256.965,38.166C232.097,38.197 211.946,58.351 211.919,83.219C211.919,86.94 214.935,89.956 218.656,89.956C222.377,89.956 225.393,86.94 225.393,83.219C225.411,65.788 239.535,51.661 256.965,51.64C260.686,51.64 263.702,48.624 263.702,44.903Z" style="fill:white;fill-rule:nonzero;"/>
            </g>
        </g>
    </g>
</svg>
